<?xml version="1.0" encoding="utf-8"?>
<!-- Generator: Adobe Illustrator 24.1.0, SVG Export Plug-In . SVG Version: 6.00 Build 0)  -->
<svg version="1.1" id="Слой_1" xmlns="http://www.w3.org/2000/svg" xmlns:xlink="http://www.w3.org/1999/xlink" x="0px" y="0px"
	 viewBox="0 0 148.6 130" style="enable-background:new 0 0 148.6 130;" xml:space="preserve">
<style type="text/css">
	.st0{fill:none;stroke:#8264FF;stroke-width:3;stroke-linecap:round;stroke-miterlimit:10;}
	.st1{fill:none;stroke:#C1B1FF;stroke-width:2;stroke-linecap:round;stroke-linejoin:round;stroke-miterlimit:10;}
	.st2{fill:none;stroke:#C1B1FF;stroke-width:2.0533;stroke-linecap:round;stroke-linejoin:round;stroke-miterlimit:10;}
	.st3{fill:none;stroke:#8264FF;stroke-width:2;stroke-linecap:round;stroke-linejoin:round;stroke-miterlimit:10;}
	.st4{fill:none;stroke:#8264FF;stroke-width:3;stroke-linecap:round;stroke-linejoin:round;stroke-miterlimit:10;}
	.st5{fill:none;stroke:#8264FF;stroke-width:2.2147;stroke-linecap:round;stroke-linejoin:round;stroke-miterlimit:10;}
</style>
<g>
	<path class="st0" d="M27.7,11.5V6.5c0-2.3,1.7-4.2,3.8-4.2h14.1c2.1,0,3.8,1.9,3.8,4.2v44.1c0,2.3-1.7,4.2-3.8,4.2H31.5
		c-2.1,0-3.8-1.9-3.8-4.2V22.3"/>
	<path class="st1" d="M39.8,81.6l4.9-10.7c0.4-0.9-0.3-2-1.3-2h-9.8c-1,0-1.7,1.1-1.3,2l4.9,10.7C37.8,82.7,39.3,82.7,39.8,81.6z"/>
	<path class="st2" d="M38.6,41.7H74c3.8,0,6.9-3.2,6.9-7.2v-7.6v0c0-3.2,2.5-5.8,5.5-5.8h0.7h50.7V2.4H87.1h-0.7
		c-3,0-5.5,2.6-5.5,5.8v0v7.6c0,4-3.1,7.2-6.9,7.2H38.6"/>
	<path class="st2" d="M38.6,35.5H74c3.8,0,6.9-3.2,6.9-7.2v-7.6v0c0-3.2,2.5-5.8,5.5-5.8h0.7h50.7"/>
	<path class="st2" d="M38.6,29.3H74c3.8,0,6.9-3.2,6.9-7.2v-7.6v0c0-3.2,2.5-5.8,5.5-5.8h0.7h50.7"/>
	<line class="st3" x1="38.6" y1="18.7" x2="38.6" y2="44.7"/>
	<path class="st3" d="M48.8,68.9H28.3c-1.2,0-2.2-1-2.2-2.2v-2.4H51v2.4C51,67.9,50,68.9,48.8,68.9z"/>
	<path class="st4" d="M53.3,63.3H23.8c-1.6,0-2.9-1.3-2.9-2.9v-2.5c0-1.6,1.3-2.9,2.9-2.9h29.4c1.6,0,2.9,1.3,2.9,2.9v2.5
		C56.2,62,54.9,63.3,53.3,63.3z"/>
	<line class="st3" x1="48.8" y1="68.9" x2="48.8" y2="74.9"/>
	<line class="st3" x1="28.3" y1="68.9" x2="28.3" y2="74.9"/>
	<path class="st1" d="M49.2,101.2h4.9c1.2,0,2.1,1,2.1,2.1v9.2c0,1.2-1,2.1-2.1,2.1H23.9c-1.2,0-2.1-1-2.1-2.1v-9.2
		c0-1.2,1-2.1,2.1-2.1h16"/>
	<ellipse class="st1" cx="38.6" cy="9.9" rx="2.4" ry="2.4"/>
	<line class="st3" x1="91.1" y1="120.2" x2="103.7" y2="120.2"/>
	<path class="st3" d="M117.4,120.2h18.5c1,0,1.9,0.8,1.9,1.9v3.7c0,1-0.8,1.9-1.9,1.9H13.5c-1,0-1.9-0.8-1.9-1.9V122
		c0-1,0.8-1.9,1.9-1.9h61.9"/>
	<path class="st5" d="M58.4,120.2H19.5c-0.9,0-1.6-0.7-1.6-1.6v-2.2c0-0.9,0.7-1.6,1.6-1.6h38.9c0.9,0,1.6,0.7,1.6,1.6v2.2
		C60.1,119.4,59.3,120.2,58.4,120.2z"/>
</g>
</svg>
