<?xml version="1.0" encoding="utf-8"?>
<!-- Generator: Adobe Illustrator 24.1.0, SVG Export Plug-In . SVG Version: 6.00 Build 0)  -->
<svg version="1.1" id="Layer_1" xmlns="http://www.w3.org/2000/svg" xmlns:xlink="http://www.w3.org/1999/xlink" x="0px" y="0px"
	 viewBox="0 0 585.2 491.8" style="enable-background:new 0 0 585.2 491.8;" xml:space="preserve">
<style type="text/css">
	.st0{fill:#F2F3F6;}
	.st1{fill:#8264FF;}
	.st2{opacity:0.5;fill:#8264FF;enable-background:new    ;}
	.st3{opacity:0.2;fill:#8264FF;enable-background:new    ;}
	.st4{fill:#8264FF;stroke:#8264FF;stroke-width:0.7084;stroke-miterlimit:10;}
	.st5{clip-path:url(#SVGID_5_);}
	.st6{clip-path:url(#SVGID_6_);fill:url(#SVGID_7_);}
	.st7{opacity:0.3;fill:none;stroke:url(#SVGID_8_);stroke-miterlimit:10;enable-background:new    ;}
	.st8{opacity:0.3;fill:none;stroke:url(#SVGID_9_);stroke-miterlimit:10;enable-background:new    ;}
	.st9{clip-path:url(#SVGID_12_);}
	.st10{clip-path:url(#SVGID_13_);fill:url(#SVGID_14_);}
	.st11{opacity:0.1;fill:#0A0A23;enable-background:new    ;}
	.st12{opacity:0.5;}
	.st13{fill:#222B49;}
	.st14{fill:#2C2C2C;}
	.st15{fill:#0A0A23;}
	.st16{clip-path:url(#SVGID_17_);}
	.st17{opacity:0.3;clip-path:url(#SVGID_18_);fill:#222B49;enable-background:new    ;}
	.st18{fill:none;}
</style>
<rect class="st0" width="585.2" height="491.8"/>
<g>
	<g>
		<path class="st1" d="M505.1,124.7l0.7,1.7c7.2-3,11.8-10,11.8-17.8c0-10.7-8.7-19.4-19.4-19.4s-19.4,8.7-19.4,19.4
			c0,5.4,2.1,10.3,6,14l1.3-1.4c-3.5-3.3-5.4-7.8-5.4-12.7c0-9.6,7.8-17.5,17.5-17.5s17.5,7.8,17.5,17.5
			C515.7,115.6,511.6,122,505.1,124.7z"/>
		<path class="st2" d="M507.9,136.8l0.6,1.8c12.8-4.4,21.4-16.4,21.4-30c0-17.4-14.2-31.6-31.6-31.6s-31.6,14.2-31.6,31.6
			c0,9.5,4.2,18.5,11.6,24.5l1.2-1.5c-7-5.7-10.9-14.1-10.9-23.1c0-16.4,13.3-29.8,29.8-29.8c16.4,0,29.8,13.3,29.8,29.8
			C528,121.3,519.9,132.7,507.9,136.8z"/>
		<path class="st3" d="M498.3,154.9v1.9c26.6,0,48.2-21.6,48.2-48.2s-21.6-48.2-48.2-48.2c-26.6,0-48.2,21.6-48.2,48.2
			c0,21.2,13.5,39.6,33.7,46l0.6-1.8C465,146.7,452,129,452,108.6c0-25.5,20.8-46.3,46.3-46.3s46.3,20.8,46.3,46.3
			S523.8,154.9,498.3,154.9z"/>
	</g>
</g>
<g>
	<path class="st1" d="M497.5,111.9c-0.4-0.1-0.8,0.1-1,0.4L480.3,140c-0.2,0.4-0.2,0.8,0.1,1.1c0.3,0.3,0.7,0.4,1.1,0.2l10.4-5.3
		l7.8,9.1c0.2,0.2,0.4,0.3,0.7,0.3c0.1,0,0.2,0,0.4-0.1c0.4-0.2,0.6-0.5,0.6-1l-3-31.7C498.2,112.4,497.9,112,497.5,111.9z
		 M499.1,141.6l-6.3-7.4c-0.2-0.2-0.4-0.3-0.7-0.3c-0.1,0-0.3,0-0.4,0.1l-8.1,4.2l13.1-22.3L499.1,141.6z"/>
	<path class="st4" d="M392.6,326.4c-42.3,41-97.1,73.8-162.9,97.6c-112.2,40.4-218.9,40.3-220,40.3v1.9h0.1
		c4.1,0,109.6-0.5,220.4-40.4c66.1-23.8,121.1-56.8,163.6-98c53.1-51.5,86.5-116.2,99.4-192.1l-1.9-0.3
		C478.7,210.9,445.4,275.2,392.6,326.4z"/>
</g>
<g>
	<g>
		<defs>
			<polygon id="SVGID_1_" points="1,1 2,1 1,2 			"/>
		</defs>
		<defs>
			<polygon id="SVGID_4_" points="-1,-1 -2,-1 -1,-2 			"/>
		</defs>
		<clipPath id="SVGID_5_">
			<use xlink:href="#SVGID_1_"  style="overflow:visible;"/>
		</clipPath>
		<clipPath id="SVGID_6_" class="st5">
			<use xlink:href="#SVGID_4_"  style="overflow:visible;"/>
		</clipPath>
		
			<linearGradient id="SVGID_7_" gradientUnits="userSpaceOnUse" x1="252.2" y1="27.745" x2="252.2" y2="307.6511" gradientTransform="matrix(1 0 0 -1 0 494)">
			<stop  offset="0" style="stop-color:#000000"/>
			<stop  offset="6.726506e-02" style="stop-color:#353535"/>
			<stop  offset="0.2203" style="stop-color:#B7B7B7"/>
			<stop  offset="0.3012" style="stop-color:#FFFFFF"/>
		</linearGradient>
		<polygon class="st6" points="385.4,195.2 349.7,251.8 331.5,219 297.6,269.3 245.7,187.4 194.4,287.9 162.6,252.9 134.1,301.2 
			112,273 91.9,325.8 70.4,299.9 42.6,369.2 17.4,331.1 9.5,362.1 9.5,467.5 494.9,467.5 494.9,160.1 415.6,241.4 		"/>
	</g>
</g>
<linearGradient id="SVGID_8_" gradientUnits="userSpaceOnUse" x1="252.9422" y1="123.6234" x2="252.9422" y2="334.1732" gradientTransform="matrix(1 0 0 -1 0 494)">
	<stop  offset="0" style="stop-color:#222B49"/>
	<stop  offset="0.3012" style="stop-color:#222B49"/>
</linearGradient>
<polyline class="st7" points="496.8,160.1 446,238 420.6,251.4 397.7,210.9 373.6,248.7 350.2,233.9 300.6,284.7 251.9,236.3 
	202.4,287.9 154.6,282.9 131.1,301.2 106,273 82.9,325.8 58.4,299.9 32.6,369.2 9.1,328 "/>
<linearGradient id="SVGID_9_" gradientUnits="userSpaceOnUse" x1="252.2" y1="26" x2="252.2" y2="27.2" gradientTransform="matrix(1 0 0 -1 0 494)">
	<stop  offset="0" style="stop-color:#222B49"/>
	<stop  offset="0.3012" style="stop-color:#222B49"/>
</linearGradient>
<line class="st8" x1="9.5" y1="467.5" x2="494.9" y2="467.3"/>
<g>
	<g>
		<defs>
			<polygon id="SVGID_10_" points="1,1 2,1 1,2 			"/>
		</defs>
		<defs>
			<polygon id="SVGID_11_" points="-1,-1 -2,-1 -1,-2 			"/>
		</defs>
		<clipPath id="SVGID_12_">
			<use xlink:href="#SVGID_10_"  style="overflow:visible;"/>
		</clipPath>
		<clipPath id="SVGID_13_" class="st9">
			<use xlink:href="#SVGID_11_"  style="overflow:visible;"/>
		</clipPath>
		
			<linearGradient id="SVGID_14_" gradientUnits="userSpaceOnUse" x1="252.85" y1="29.1577" x2="252.85" y2="210.4494" gradientTransform="matrix(1 0 0 -1 0 494)">
			<stop  offset="0" style="stop-color:#000000"/>
			<stop  offset="6.726506e-02" style="stop-color:#353535"/>
			<stop  offset="0.2203" style="stop-color:#B7B7B7"/>
			<stop  offset="0.3012" style="stop-color:#FFFFFF"/>
		</linearGradient>
		<polygon class="st10" points="435.1,293.7 413.6,386.3 393.4,334.5 371.3,372.6 342.7,345.6 310.8,365.1 259.4,308.9 207.3,365.9 
			173.4,348.9 155.1,400.7 119.2,369.1 89,394.9 9.5,371.7 9.5,465.7 496.2,465.7 496.2,283.9 488.3,266.5 463.1,332.5 		"/>
	</g>
</g>
<polygon class="st11" points="433.7,295.4 412.2,388 392,336.2 369.9,374.3 341.3,347.3 309.4,366.8 258,310.6 205.9,367.6 
	172,350.6 153.7,402.4 117.8,370.8 87.6,396.6 9.5,373.5 9.5,467.5 494.8,467.4 494.8,285.6 486.9,268.2 461.7,334.2 "/>
<g class="st12">
	<rect x="81.9" y="248.7" class="st1" width="0.2" height="218.8"/>
	<rect x="57.6" y="248.7" class="st13" width="0.2" height="218.8"/>
	<rect x="33.3" y="248.7" class="st1" width="0.2" height="218.8"/>
	<rect x="106.2" y="248.7" class="st13" width="0.2" height="218.8"/>
	<rect x="130.5" y="248.7" class="st1" width="0.2" height="218.8"/>
	<rect x="154.8" y="248.7" class="st13" width="0.2" height="218.8"/>
	<rect x="179.1" y="248.7" class="st1" width="0.2" height="218.8"/>
	<rect x="203.4" y="248.7" class="st13" width="0.2" height="218.8"/>
	<rect x="227.7" y="248.7" class="st1" width="0.2" height="218.8"/>
	<rect x="251.9" y="248.7" class="st13" width="0.2" height="218.8"/>
	<rect x="276.2" y="248.7" class="st1" width="0.2" height="218.8"/>
	<rect x="300.5" y="248.7" class="st13" width="0.2" height="218.8"/>
	<rect x="324.8" y="248.7" class="st1" width="0.2" height="218.8"/>
	<rect x="349.1" y="248.7" class="st13" width="0.2" height="218.8"/>
	<rect x="373.4" y="248.7" class="st1" width="0.2" height="218.8"/>
	<rect x="397.7" y="248.7" class="st13" width="0.2" height="218.8"/>
	<rect x="422" y="248.7" class="st1" width="0.2" height="218.8"/>
	<rect x="446.3" y="248.7" class="st13" width="0.2" height="218.8"/>
	<rect x="470.5" y="248.7" class="st1" width="0.2" height="218.8"/>
	<rect x="494.8" y="248.7" class="st13" width="0.2" height="218.8"/>
	<rect x="9.1" y="248.7" class="st13" width="0.2" height="218.8"/>
</g>
<g class="st12">
	<g>
		<polygon class="st14" points="35.2,478.8 35.2,474.5 34.7,474.5 33.8,475.1 33.9,475.5 34.7,475.1 34.7,475.1 34.7,478.8 		"/>
		<polygon class="st14" points="35.7,479.3 35.7,474.1 34.6,474.1 33.3,474.8 33.6,476.2 34.2,475.9 34.2,479.3 		"/>
	</g>
	<g>
		<path class="st14" d="M56.5,478l-0.5,0.4v0.4h2.7v-0.5h-1.9l0,0l0.3-0.3c0.9-0.9,1.5-1.5,1.5-2.3c0-0.6-0.4-1.3-1.3-1.3
			c-0.5,0-0.9,0.2-1.2,0.4l0.2,0.4c0.2-0.2,0.5-0.4,0.9-0.4c0.6,0,0.9,0.4,0.9,0.8C58.1,476.4,57.6,477,56.5,478z"/>
		<path class="st14" d="M56.2,477.7l-0.6,0.6v1h3.7v-1.4H58c0.7-0.7,1.1-1.4,1.1-2.2c0-0.8-0.6-1.7-1.8-1.7c-0.6,0-1.1,0.2-1.5,0.5
			l-0.3,0.2l0.6,1.3l0.5-0.4c0.1-0.1,0.3-0.3,0.6-0.3s0.4,0.1,0.4,0.4C57.6,476.3,57.2,476.8,56.2,477.7z"/>
	</g>
	<g>
		<path class="st14" d="M81.8,478.5c-0.4,0-0.8-0.2-1-0.3l-0.2,0.4c0.2,0.1,0.6,0.3,1.1,0.3c1,0,1.6-0.6,1.6-1.3c0-0.6-0.4-1-1-1.1
			l0,0c0.5-0.2,0.8-0.6,0.8-1c0-0.5-0.4-1-1.2-1c-0.5,0-0.9,0.2-1.1,0.3l0.2,0.4c0.2-0.1,0.5-0.3,0.9-0.3c0.5,0,0.8,0.3,0.8,0.6
			c0,0.5-0.5,0.7-1,0.7h-0.3v0.4h0.3c0.6,0,1.1,0.3,1.1,0.9C82.8,478,82.6,478.5,81.8,478.5z"/>
		<path class="st14" d="M81.8,478c-0.3,0-0.6-0.1-0.7-0.2l-0.5-0.3l-0.5,1.4l0.3,0.2c0.3,0.2,0.8,0.4,1.4,0.4c1.4,0,2-0.9,2-1.8
			c0-0.5-0.2-0.9-0.5-1.2c0.2-0.3,0.4-0.6,0.4-1c0-0.7-0.5-1.5-1.7-1.5c-0.6,0-1.1,0.2-1.4,0.4l-0.3,0.2l0.5,1.3l0.1-0.1v1.3h0.8
			c0.1,0,0.6,0,0.6,0.4c0,0,0,0.1-0.1,0.2C82.1,478,81.9,478,81.8,478z M81.7,475.8H81l0.3-0.2c0.1-0.1,0.4-0.2,0.6-0.2
			c0.3,0,0.3,0.1,0.3,0.2C82.2,475.8,81.8,475.8,81.7,475.8z"/>
	</g>
	<g>
		<path class="st14" d="M107.7,478.8v-1.2h0.6v-0.5h-0.6v-2.7h-0.6l-1.9,2.7v0.4h2v1.2h0.5V478.8z M105.8,477.2L105.8,477.2l1.1-1.5
			c0.1-0.2,0.2-0.4,0.4-0.6l0,0c0,0.2,0,0.5,0,0.7v1.4H105.8z"/>
		<polygon class="st14" points="108.2,479.3 108.2,478.2 108.8,478.2 108.8,476.7 108.2,476.7 108.2,474.1 106.9,474.1 104.7,477.1 
			104.7,478.2 106.7,478.2 106.7,479.3 		"/>
	</g>
	<g>
		<path class="st14" d="M131.1,478.5c-0.4,0-0.7-0.1-0.9-0.2l-0.1,0.4c0.2,0.1,0.6,0.3,1.1,0.3c0.9,0,1.6-0.6,1.6-1.5
			c0-0.5-0.3-0.9-0.6-1.1s-0.6-0.2-0.9-0.2c-0.2,0-0.3,0-0.4,0l0.2-1.1h1.6v-0.5h-2.1l-0.3,2.1c0.2,0,0.4,0,0.6,0
			c0.9,0,1.2,0.4,1.2,1C132.1,478.1,131.7,478.5,131.1,478.5z"/>
		<path class="st14" d="M131.1,478c-0.3,0-0.6-0.1-0.7-0.2l-0.5-0.3l-0.4,1.3l0.3,0.2c0.3,0.2,0.7,0.3,1.3,0.3
			c1.2,0,2.1-0.8,2.1-1.9c0-0.7-0.3-1.2-0.8-1.5c-0.3-0.2-0.6-0.3-1-0.3v-0.1h1.7v-1.4h-2.9l-0.3,2.5l-0.1,0.6l0.6-0.1
			c0.1,0,0.3,0,0.5,0c0.8,0,0.8,0.3,0.8,0.5C131.7,477.9,131.3,478,131.1,478z"/>
	</g>
	<g>
		<path class="st14" d="M156.8,475c0.2,0,0.3,0,0.4,0v-0.5c-0.1,0-0.3,0-0.4,0c-0.5,0.1-1,0.3-1.4,0.6c-0.4,0.4-0.7,1.1-0.7,1.9
			c0,1.1,0.6,1.8,1.5,1.8s1.4-0.7,1.4-1.5s-0.5-1.4-1.3-1.4c-0.5,0-0.8,0.2-1,0.5l0,0C155.4,475.8,155.9,475.1,156.8,475z
			 M155.3,477c0.2-0.3,0.5-0.5,0.8-0.5c0.5,0,0.9,0.4,0.9,1s-0.3,1-0.8,1c-0.6,0-0.9-0.5-0.9-1.2C155.3,477.1,155.3,477,155.3,477z"
			/>
		<path class="st14" d="M157.2,475.4h0.5V474h-0.5c-0.1,0-0.3,0-0.5,0c-0.6,0.1-1.2,0.3-1.7,0.8c-0.6,0.6-0.9,1.4-0.9,2.3
			c0,1.4,0.8,2.3,2,2.3c1.1,0,1.9-0.9,1.9-2c0-1-0.7-1.8-1.6-1.9c0.1,0,0.2-0.1,0.3-0.1C157,475.4,157,475.4,157.2,475.4z
			 M156.6,477.4c0,0.1,0,0.6-0.4,0.6s-0.5-0.5-0.5-0.8c0.1-0.2,0.2-0.3,0.4-0.3C156.3,476.9,156.6,476.9,156.6,477.4z"/>
	</g>
	<g>
		<polygon class="st14" points="179.8,478.8 180.4,478.8 182.2,474.9 182.2,474.5 179.5,474.5 179.5,475 181.6,475 181.6,475 		"/>
		<polygon class="st14" points="180.7,479.3 182.7,475.1 182.7,474.1 179.1,474.1 179.1,475.5 180.9,475.5 179,479.3 		"/>
	</g>
	<g>
		<path class="st14" d="M202,477.8c0,0.6,0.5,1.2,1.4,1.2c0.8,0,1.5-0.5,1.5-1.3c0-0.5-0.3-0.9-0.9-1.1l0,0c0.5-0.3,0.7-0.6,0.7-1
			c0-0.5-0.4-1.1-1.3-1.1c-0.8,0-1.3,0.5-1.3,1.1c0,0.4,0.2,0.7,0.7,1l0,0C202.3,476.8,202,477.2,202,477.8z M202.7,475.6
			c0-0.4,0.3-0.7,0.7-0.7c0.5,0,0.7,0.4,0.7,0.7c0,0.4-0.3,0.7-0.7,0.8C203.1,476.2,202.7,476,202.7,475.6z M203.4,476.8
			c0.6,0.2,0.9,0.4,0.9,0.9c0,0.4-0.3,0.8-0.9,0.8c-0.5,0-0.9-0.4-0.9-0.8C202.6,477.3,202.9,476.9,203.4,476.8z"/>
		<path class="st14" d="M203.5,479.4c1.1,0,1.9-0.7,1.9-1.7c0-0.5-0.2-0.9-0.5-1.2c0.2-0.3,0.4-0.6,0.4-1c0-0.8-0.6-1.5-1.7-1.5
			c-1,0-1.8,0.7-1.8,1.6c0,0.4,0.1,0.7,0.4,0.9c-0.3,0.3-0.5,0.7-0.5,1.2C201.5,478.6,202.2,479.4,203.5,479.4z M203.5,475.4
			c0.2,0,0.3,0,0.3,0.2c0,0.1-0.1,0.2-0.2,0.3c-0.3-0.1-0.3-0.2-0.3-0.3C203.2,475.4,203.3,475.4,203.5,475.4z M203.4,477.3
			c0.5,0.2,0.5,0.3,0.5,0.4c0,0.3-0.3,0.3-0.4,0.3c-0.1,0-0.2,0-0.3-0.1s-0.1-0.1-0.1-0.2C203.1,477.5,203.2,477.4,203.4,477.3z"/>
	</g>
	<g>
		<path class="st14" d="M227.6,478.4c-0.2,0-0.3,0-0.5,0v0.5c0.1,0,0.3,0,0.5,0c0.5-0.1,0.9-0.3,1.3-0.6c0.4-0.4,0.7-1.1,0.7-2
			c0-1.1-0.5-1.8-1.4-1.8s-1.5,0.7-1.5,1.5c0,0.7,0.5,1.3,1.3,1.3c0.4,0,0.8-0.2,1-0.5l0,0c-0.1,0.5-0.3,0.9-0.6,1.1
			C228.2,478.2,227.9,478.4,227.6,478.4z M229,476.4c-0.2,0.3-0.5,0.5-0.8,0.5c-0.5,0-0.8-0.4-0.8-0.9c0-0.6,0.4-1,0.8-1
			c0.6,0,0.9,0.6,0.9,1.3C229,476.3,229,476.4,229,476.4z"/>
		<path class="st14" d="M227.1,478l-0.5-0.1v1.5h0.6c0.1,0,0.3,0,0.5,0c0.6-0.1,1.1-0.3,1.5-0.7c0.4-0.4,0.9-1.1,0.9-2.4
			c0-1.4-0.8-2.3-1.9-2.3c-1.1,0-1.9,0.9-1.9,2c0,1,0.7,1.8,1.7,1.8c-0.1,0.1-0.3,0.1-0.4,0.2C227.4,478,227.3,478,227.1,478z
			 M227.8,476c0-0.3,0.1-0.6,0.4-0.6c0.4,0,0.4,0.6,0.4,0.8c-0.1,0.1-0.2,0.2-0.4,0.2C227.8,476.4,227.8,476.1,227.8,476z"/>
	</g>
	<g>
		<polygon class="st14" points="251.2,478.8 251.2,474.5 250.7,474.5 249.8,475.1 249.9,475.5 250.6,475.1 250.6,475.1 250.6,478.8 
					"/>
		<polygon class="st14" points="251.7,479.3 251.7,474.1 250.6,474.1 249.2,474.8 249.6,476.2 250.2,475.9 250.2,479.3 		"/>
	</g>
	<g>
		<path class="st14" d="M253.4,476.7c0,1.4,0.6,2.2,1.4,2.2c1,0,1.5-0.8,1.5-2.3c0-1.4-0.5-2.2-1.4-2.2
			C254,474.5,253.4,475.3,253.4,476.7z M255.7,476.7c0,1.1-0.3,1.8-0.9,1.8c-0.5,0-0.9-0.6-0.9-1.8c0-1.2,0.4-1.8,0.9-1.8
			C255.4,474.9,255.7,475.6,255.7,476.7z"/>
		<path class="st14" d="M252.9,476.7c0,2,1,2.7,1.9,2.7c1.2,0,2-1,2-2.7s-0.7-2.6-1.9-2.6C254,474,252.9,474.7,252.9,476.7z
			 M255.2,476.7c0,0.8-0.2,1.3-0.4,1.3s-0.4-0.4-0.4-1.3s0.2-1.3,0.4-1.3C255.1,475.4,255.2,475.9,255.2,476.7z"/>
	</g>
	<g>
		<polygon class="st14" points="275.8,478.8 275.8,474.5 275.3,474.5 274.4,475.1 274.5,475.5 275.2,475.1 275.2,475.1 275.2,478.8 
					"/>
		<polygon class="st14" points="276.3,479.3 276.3,474.1 275.2,474.1 273.8,474.8 274.2,476.2 274.8,475.9 274.8,479.3 		"/>
	</g>
	<g>
		<polygon class="st14" points="279.9,478.8 279.9,474.5 279.4,474.5 278.4,475.1 278.5,475.5 279.3,475.1 279.3,475.1 279.3,478.8 
					"/>
		<polygon class="st14" points="280.3,479.3 280.3,474.1 279.2,474.1 277.9,474.8 278.2,476.2 278.8,475.9 278.8,479.3 		"/>
	</g>
	<g>
		<polygon class="st14" points="298.4,478.8 298.4,474.5 297.9,474.5 296.9,475.1 297,475.5 297.8,475.1 297.8,475.1 297.8,478.8 		
			"/>
		<polygon class="st14" points="298.8,479.3 298.8,474.1 297.7,474.1 296.4,474.8 296.7,476.2 297.3,475.9 297.3,479.3 		"/>
	</g>
	<g>
		<path class="st14" d="M301,478l-0.5,0.4v0.4h2.7v-0.5h-1.9l0,0l0.3-0.3c0.9-0.9,1.5-1.5,1.5-2.3c0-0.6-0.4-1.3-1.3-1.3
			c-0.5,0-0.9,0.2-1.2,0.4l0.2,0.4c0.2-0.2,0.5-0.4,0.9-0.4c0.6,0,0.9,0.4,0.9,0.8C302.6,476.4,302.1,477,301,478z"/>
		<path class="st14" d="M300.7,477.7l-0.6,0.6v1h3.7v-1.4h-1.2c0.7-0.7,1.1-1.4,1.1-2.2c0-0.8-0.6-1.7-1.8-1.7
			c-0.6,0-1.1,0.2-1.5,0.5l-0.3,0.2l0.6,1.3l0.5-0.4c0.1-0.1,0.3-0.3,0.6-0.3c0.3,0,0.4,0.1,0.4,0.4
			C302.2,476.3,301.7,476.8,300.7,477.7z"/>
	</g>
	<g>
		<polygon class="st14" points="325,478.8 325,474.5 324.5,474.5 323.6,475.1 323.7,475.5 324.5,475.1 324.5,475.1 324.5,478.8 		
			"/>
		<polygon class="st14" points="325.5,479.3 325.5,474.1 324.4,474.1 323,474.8 323.4,476.2 324,475.9 324,479.3 		"/>
	</g>
	<g>
		<path class="st14" d="M328.3,478.5c-0.4,0-0.8-0.2-1-0.3l-0.2,0.4c0.2,0.1,0.6,0.3,1.1,0.3c1,0,1.6-0.6,1.6-1.3c0-0.6-0.4-1-1-1.1
			l0,0c0.5-0.2,0.8-0.6,0.8-1c0-0.5-0.4-1-1.2-1c-0.5,0-0.9,0.2-1.1,0.3l0.2,0.4c0.2-0.1,0.5-0.3,0.9-0.3c0.5,0,0.8,0.3,0.8,0.6
			c0,0.5-0.5,0.7-1,0.7h-0.3v0.4h0.3c0.6,0,1.1,0.3,1.1,0.9C329.3,478,329.1,478.5,328.3,478.5z"/>
		<path class="st14" d="M328.3,478c-0.3,0-0.6-0.1-0.7-0.2l-0.5-0.3l-0.5,1.4l0.3,0.2c0.3,0.2,0.8,0.4,1.4,0.4c1.4,0,2-0.9,2-1.8
			c0-0.5-0.2-0.9-0.5-1.2c0.2-0.3,0.4-0.6,0.4-1c0-0.7-0.5-1.5-1.7-1.5c-0.6,0-1.1,0.2-1.4,0.4l-0.3,0.2l0.5,1.3l0.1-0.1v1.3h0.8
			c0.1,0,0.6,0,0.6,0.4c0,0,0,0.1-0.1,0.2C328.7,478,328.5,478,328.3,478z M328.2,475.8h-0.7l0.3-0.2c0.1-0.1,0.4-0.2,0.6-0.2
			c0.3,0,0.3,0.1,0.3,0.2C328.7,475.8,328.4,475.8,328.2,475.8z"/>
	</g>
	<g>
		<polygon class="st14" points="347.6,478.8 347.6,474.5 347.1,474.5 346.1,475.1 346.3,475.5 347,475.1 347,475.1 347,478.8 		"/>
		<polygon class="st14" points="348.1,479.3 348.1,474.1 347,474.1 345.6,474.8 345.9,476.2 346.5,475.9 346.5,479.3 		"/>
	</g>
	<g>
		<path class="st14" d="M352.2,478.8v-1.2h0.6v-0.5h-0.6v-2.7h-0.6l-1.9,2.7v0.4h2v1.2h0.5V478.8z M350.2,477.2L350.2,477.2l1.1-1.5
			c0.1-0.2,0.2-0.4,0.4-0.6l0,0c0,0.2,0,0.5,0,0.7v1.4H350.2z"/>
		<polygon class="st14" points="352.6,479.3 352.6,478.2 353.2,478.2 353.2,476.7 352.6,476.7 352.6,474.1 351.3,474.1 349.1,477.1 
			349.1,478.2 351.1,478.2 351.1,479.3 		"/>
	</g>
	<g>
		<polygon class="st14" points="372.2,478.8 372.2,474.5 371.7,474.5 370.8,475.1 370.9,475.5 371.6,475.1 371.6,475.1 371.6,478.8 
					"/>
		<polygon class="st14" points="372.7,479.3 372.7,474.1 371.6,474.1 370.2,474.8 370.6,476.2 371.2,475.9 371.2,479.3 		"/>
	</g>
	<g>
		<path class="st14" d="M375.5,478.5c-0.4,0-0.7-0.1-0.9-0.2l-0.1,0.4c0.2,0.1,0.6,0.3,1.1,0.3c0.9,0,1.6-0.6,1.6-1.5
			c0-0.5-0.3-0.9-0.6-1.1c-0.3-0.2-0.6-0.2-0.9-0.2c-0.2,0-0.3,0-0.4,0l0.2-1.1h1.6v-0.5H375l-0.3,2.1c0.2,0,0.4,0,0.6,0
			c0.9,0,1.2,0.4,1.2,1C376.5,478.1,376,478.5,375.5,478.5z"/>
		<path class="st14" d="M375.5,478c-0.3,0-0.6-0.1-0.7-0.2l-0.5-0.3l-0.4,1.3l0.3,0.2c0.3,0.2,0.7,0.3,1.3,0.3
			c1.2,0,2.1-0.8,2.1-1.9c0-0.7-0.3-1.2-0.8-1.5c-0.3-0.2-0.6-0.3-1-0.3v-0.1h1.7v-1.4h-2.9l-0.3,2.5l-0.1,0.6l0.6-0.1
			c0.1,0,0.3,0,0.5,0c0.8,0,0.8,0.3,0.8,0.5C376,477.9,375.7,478,375.5,478z"/>
	</g>
	<g>
		<polygon class="st14" points="396.8,478.8 396.8,474.5 396.3,474.5 395.4,475.1 395.5,475.5 396.2,475.1 396.2,475.1 396.2,478.8 
					"/>
		<polygon class="st14" points="397.3,479.3 397.3,474.1 396.2,474.1 394.8,474.8 395.2,476.2 395.8,475.9 395.8,479.3 		"/>
	</g>
	<g>
		<path class="st14" d="M401,475c0.2,0,0.3,0,0.4,0v-0.5c-0.1,0-0.3,0-0.4,0c-0.5,0.1-1,0.3-1.4,0.6c-0.4,0.4-0.7,1.1-0.7,1.9
			c0,1.1,0.6,1.8,1.5,1.8s1.4-0.7,1.4-1.5s-0.5-1.4-1.3-1.4c-0.5,0-0.8,0.2-1,0.5l0,0C399.6,475.8,400.1,475.1,401,475z M399.6,477
			c0.2-0.3,0.5-0.5,0.8-0.5c0.5,0,0.9,0.4,0.9,1s-0.3,1-0.8,1c-0.6,0-0.9-0.5-0.9-1.2C399.5,477.1,399.6,477,399.6,477z"/>
		<path class="st14" d="M401.5,475.4h0.5V474h-0.5c-0.1,0-0.3,0-0.5,0c-0.6,0.1-1.2,0.3-1.7,0.8c-0.6,0.6-0.9,1.4-0.9,2.3
			c0,1.4,0.8,2.3,2,2.3c1.1,0,1.9-0.9,1.9-2c0-1-0.7-1.8-1.6-1.9c0.1,0,0.2-0.1,0.3-0.1C401.2,475.4,401.3,475.4,401.5,475.4z
			 M400.8,477.4c0,0.1,0,0.6-0.4,0.6s-0.5-0.5-0.5-0.8c0.1-0.2,0.2-0.3,0.4-0.3C400.5,476.9,400.8,476.9,400.8,477.4z"/>
	</g>
	<g>
		<polygon class="st14" points="421.4,478.8 421.4,474.5 420.9,474.5 420,475.1 420.1,475.5 420.8,475.1 420.8,475.1 420.8,478.8 		
			"/>
		<polygon class="st14" points="421.9,479.3 421.9,474.1 420.8,474.1 419.4,474.8 419.8,476.2 420.4,475.9 420.4,479.3 		"/>
	</g>
	<g>
		<polygon class="st14" points="424,478.8 424.6,478.8 426.4,474.9 426.4,474.5 423.7,474.5 423.7,475 425.8,475 425.8,475 		"/>
		<polygon class="st14" points="424.9,479.3 426.9,475.1 426.9,474.1 423.2,474.1 423.2,475.5 425.1,475.5 423.2,479.3 		"/>
	</g>
	<g>
		<polygon class="st14" points="444,478.8 444,474.5 443.5,474.5 442.5,475.1 442.6,475.5 443.4,475.1 443.4,475.1 443.4,478.8 		
			"/>
		<polygon class="st14" points="444.4,479.3 444.4,474.1 443.3,474.1 442,474.8 442.3,476.2 442.9,475.9 442.9,479.3 		"/>
	</g>
	<g>
		<path class="st14" d="M446.1,477.8c0,0.6,0.5,1.2,1.4,1.2c0.8,0,1.5-0.5,1.5-1.3c0-0.5-0.3-0.9-0.9-1.1l0,0c0.5-0.3,0.7-0.6,0.7-1
			c0-0.5-0.4-1.1-1.3-1.1c-0.8,0-1.3,0.5-1.3,1.1c0,0.4,0.2,0.7,0.7,1l0,0C446.5,476.8,446.1,477.2,446.1,477.8z M446.8,475.6
			c0-0.4,0.3-0.7,0.7-0.7c0.5,0,0.7,0.4,0.7,0.7c0,0.4-0.3,0.7-0.7,0.8C447.2,476.2,446.8,476,446.8,475.6z M447.5,476.8
			c0.6,0.2,0.9,0.4,0.9,0.9c0,0.4-0.3,0.8-0.9,0.8c-0.5,0-0.9-0.4-0.9-0.8C446.7,477.3,447,476.9,447.5,476.8z"/>
		<path class="st14" d="M447.6,479.4c1.1,0,1.9-0.7,1.9-1.7c0-0.5-0.2-0.9-0.5-1.2c0.2-0.3,0.4-0.6,0.4-1c0-0.8-0.6-1.5-1.7-1.5
			c-1,0-1.8,0.7-1.8,1.6c0,0.4,0.1,0.7,0.4,0.9c-0.3,0.3-0.5,0.7-0.5,1.2C445.7,478.6,446.3,479.4,447.6,479.4z M447.6,475.4
			c0.2,0,0.3,0,0.3,0.2c0,0.1-0.1,0.2-0.2,0.3c-0.3-0.1-0.3-0.2-0.3-0.3C447.3,475.4,447.4,475.4,447.6,475.4z M447.5,477.3
			c0.5,0.2,0.5,0.3,0.5,0.4c0,0.3-0.3,0.3-0.4,0.3s-0.2,0-0.3-0.1c-0.1-0.1-0.1-0.1-0.1-0.2C447.2,477.5,447.3,477.4,447.5,477.3z"
			/>
	</g>
	<g>
		<polygon class="st14" points="470.6,478.8 470.6,474.5 470.1,474.5 469.2,475.1 469.3,475.5 470.1,475.1 470.1,475.1 470.1,478.8 
					"/>
		<polygon class="st14" points="471.1,479.3 471.1,474.1 470,474.1 468.6,474.8 469,476.2 469.6,475.9 469.6,479.3 		"/>
	</g>
	<g>
		<path class="st14" d="M473.7,478.4c-0.2,0-0.3,0-0.5,0v0.5c0.1,0,0.3,0,0.5,0c0.5-0.1,0.9-0.3,1.3-0.6c0.4-0.4,0.7-1.1,0.7-2
			c0-1.1-0.5-1.8-1.4-1.8s-1.5,0.7-1.5,1.5c0,0.7,0.5,1.3,1.3,1.3c0.4,0,0.8-0.2,1-0.5l0,0c-0.1,0.5-0.3,0.9-0.6,1.1
			C474.3,478.2,474,478.4,473.7,478.4z M475.1,476.4c-0.2,0.3-0.5,0.5-0.8,0.5c-0.5,0-0.8-0.4-0.8-0.9c0-0.6,0.4-1,0.8-1
			c0.6,0,0.9,0.6,0.9,1.3C475.1,476.3,475.1,476.4,475.1,476.4z"/>
		<path class="st14" d="M473.2,478l-0.5-0.1v1.5h0.6c0.1,0,0.3,0,0.5,0c0.6-0.1,1.1-0.3,1.5-0.7c0.4-0.4,0.9-1.1,0.9-2.4
			c0-1.4-0.8-2.3-1.9-2.3s-1.9,0.9-1.9,2c0,1,0.7,1.8,1.7,1.8c-0.1,0.1-0.3,0.1-0.4,0.2C473.5,478,473.4,478,473.2,478z M473.9,476
			c0-0.3,0.1-0.6,0.4-0.6c0.4,0,0.4,0.6,0.4,0.8c-0.1,0.1-0.2,0.2-0.4,0.2C473.9,476.4,473.9,476.1,473.9,476z"/>
	</g>
	<g>
		<path class="st14" d="M491.8,478l-0.5,0.4v0.4h2.7v-0.5h-1.9l0,0l0.3-0.3c0.9-0.9,1.5-1.5,1.5-2.3c0-0.6-0.4-1.3-1.3-1.3
			c-0.5,0-0.9,0.2-1.2,0.4l0.2,0.4c0.2-0.2,0.5-0.4,0.9-0.4c0.6,0,0.9,0.4,0.9,0.8C493.4,476.4,492.9,477,491.8,478z"/>
		<path class="st14" d="M491.5,477.7l-0.6,0.6v1h3.7v-1.4h-1.2c0.7-0.7,1.1-1.4,1.1-2.2c0-0.8-0.6-1.7-1.8-1.7
			c-0.6,0-1.1,0.2-1.5,0.5l-0.3,0.2l0.6,1.3l0.5-0.4c0.1-0.1,0.3-0.3,0.6-0.3c0.3,0,0.4,0.1,0.4,0.4
			C492.9,476.3,492.5,476.8,491.5,477.7z"/>
	</g>
	<g>
		<path class="st14" d="M495.3,476.7c0,1.4,0.6,2.2,1.4,2.2c1,0,1.5-0.8,1.5-2.3c0-1.4-0.5-2.2-1.4-2.2
			C496,474.5,495.3,475.3,495.3,476.7z M497.7,476.7c0,1.1-0.3,1.8-0.9,1.8c-0.5,0-0.9-0.6-0.9-1.8c0-1.2,0.4-1.8,0.9-1.8
			C497.4,474.9,497.7,475.6,497.7,476.7z"/>
		<path class="st14" d="M494.9,476.7c0,2,1,2.7,1.9,2.7c1.2,0,2-1,2-2.7s-0.7-2.6-1.9-2.6C495.9,474,494.9,474.7,494.9,476.7z
			 M497.2,476.7c0,0.8-0.2,1.3-0.4,1.3c-0.2,0-0.4-0.4-0.4-1.3s0.2-1.3,0.4-1.3C497,475.4,497.2,475.9,497.2,476.7z"/>
	</g>
</g>
<path class="st15" d="M488.2,369.4c0,1.5,1.2,2.8,2.6,2.8c0.7,0,1.4-0.3,1.8-0.8l3.2,4.2l0,0l-2.8-4.8c0.2-0.4,0.3-0.9,0.3-1.4
	c0-1.4-0.9-2.5-2.2-2.7l-0.5-7.9c1.2-0.2,2.1-1.4,2.1-2.7c0-1.5-1.2-2.8-2.6-2.8c-0.8,0-1.5,0.4-2,1l-8.4-6.3
	c0.4-0.5,0.6-1.1,0.6-1.7c0-1.5-1.2-2.8-2.6-2.8c-0.5,0-0.9,0.1-1.3,0.4l-5-9.2c1.1-0.3,1.9-1.4,1.9-2.6c0-1.5-1.2-2.8-2.6-2.8
	c-0.8,0-1.5,0.4-2,1l-2-2.7c0.5-0.5,0.7-1.2,0.7-1.9c0-1.5-1.2-2.8-2.6-2.8c-0.2,0-0.4,0-0.6,0.1l-5.2-17.2v-0.1l-2.5-1.3
	c0.1-0.3,0.1-0.7,0.1-1c0-2.4-1.8-4.3-4-4.3s-4,1.9-4,4.3c0,0.8,0.2,1.4,0.5,2.1l-6.5,5.3c-0.5-0.5-1.1-0.8-1.8-0.8
	c-1.4,0-2.6,1.2-2.6,2.8c0,0.7,0.2,1.3,0.6,1.7l-9.1,11.9c-0.3-0.1-0.6-0.2-0.9-0.2c-1.4,0-2.6,1.2-2.6,2.8c0,0.4,0.1,0.8,0.3,1.2
	l-10.3,9.4c-0.5-0.6-1.2-0.9-1.9-0.9c-1.4,0-2.6,1.2-2.6,2.8c0,0.6,0.2,1.2,0.6,1.7l-6.8,4.4c-0.5-0.7-1.2-1.2-2.1-1.2
	c-1.4,0-2.6,1.2-2.6,2.8c0,1,0.5,1.9,1.2,2.3l-7,15.4c-0.6-0.4-1.3-0.6-2.1-0.6c-1.7,0-3.2,1.2-3.8,2.8l-8.3-4.9
	c0.1-0.3,0.2-0.6,0.2-0.9c0-1.5-1.2-2.8-2.6-2.8c-0.4,0-0.8,0.1-1.1,0.3l-7.9-11.2c0.5-0.5,0.9-1.2,0.9-2c0-1.5-1.2-2.8-2.6-2.8
	c-1,0-1.8,0.6-2.2,1.4l-10.1-5.4c0.1-0.3,0.2-0.6,0.2-1c0-1.5-1.2-2.8-2.6-2.8c-0.2,0-0.4,0-0.6,0.1L342,312.7
	c1.2-0.7,2.1-2.1,2.1-3.7c0-2.4-1.8-4.3-4-4.3c-1.5,0-2.8,0.9-3.5,2.2l-5.7,3l-5.3,17.4c-0.2,0-0.3-0.1-0.5-0.1
	c-1.4,0-2.6,1.2-2.6,2.8c0,0.7,0.3,1.3,0.7,1.8l-2,2.7c-0.5-0.5-1.2-0.9-1.9-0.9c-1.4,0-2.6,1.2-2.6,2.8c0,1.2,0.7,2.2,1.8,2.6
	l-5,9.1c-0.4-0.2-0.7-0.3-1.2-0.3c-1.4,0-2.6,1.2-2.6,2.8c0,0.6,0.2,1.2,0.5,1.6l-8.4,6.3c-0.5-0.6-1.2-0.9-1.9-0.9
	c-1.4,0-2.6,1.2-2.6,2.8c0,1.3,0.8,2.4,2,2.7l-0.5,8c-1.2,0.3-2.1,1.4-2.1,2.7c0,0.4,0.1,0.9,0.3,1.2l-9,11.9
	c-0.3-0.1-0.6-0.2-0.9-0.2c-1.4,0-2.6,1.2-2.6,2.8v0.1l-7.9,2.8c-0.4-1-1.3-1.8-2.4-1.8c-0.9,0-1.7,0.5-2.2,1.2l-6.2-5.7
	c0.4-0.5,0.7-1.2,0.7-1.9c0-1.5-1.2-2.8-2.6-2.8c-1.2,0-2.1,0.8-2.5,1.9h-0.8l0,0c0-1.5-1.2-2.8-2.6-2.8h-0.1l-5.1-20.2
	c1-0.4,1.7-1.4,1.7-2.6c0-1.5-1.2-2.8-2.6-2.8c-0.3,0-0.5,0.1-0.7,0.1l-1.6-3.8c0.8-0.5,1.3-1.4,1.3-2.4c0-1.5-1.2-2.8-2.6-2.8
	c-1.4,0-2.6,1.2-2.6,2.8l0,0l-6.3,1.3c-0.2-1.2-1.2-2.2-2.4-2.3l-2.1-12.1c1.3-0.2,2.3-1.3,2.3-2.7c0-1.5-1.2-2.8-2.6-2.8
	c-1.2,0-2.1,0.8-2.5,1.9l-3.8-2.5c0.3-0.6,0.5-1.3,0.5-2.1c0-2.4-1.8-4.3-4-4.3s-4,1.9-4,4.3c0,1.6,0.8,3,2.1,3.7l-8.1,23.2
	c-0.1,0-0.1,0-0.2,0c-0.8,0-1.5,0.4-2,1l-12.1-7.8c0.1-0.3,0.2-0.7,0.2-1c0-1.5-1.2-2.8-2.6-2.8c-0.2,0-0.4,0-0.7,0.1l-7.6-27.5
	c0.4-0.5,0.6-1.1,0.6-1.8c0-1.5-1.1-2.7-2.5-2.8l-12.1-23.6c0.3-0.4,0.5-1,0.5-1.6c0-1.3-0.9-2.5-2.1-2.7l-4.1-11.5
	c1.1-0.8,1.9-2.1,1.9-3.6c0-2.4-1.8-4.3-4-4.3s-4,1.9-4,4.3c0,0.8,0.2,1.6,0.6,2.2l-11.5,8.5c-0.5-0.5-1.1-0.8-1.8-0.8
	c-1.4,0-2.6,1.2-2.6,2.8c0,0.8,0.4,1.6,0.9,2.1L139,301.4c-0.4-0.2-0.8-0.4-1.3-0.4c-1.4,0-2.6,1.2-2.6,2.8c0,1,0.6,1.9,1.4,2.4
	l-9.9,22.2c-0.5-0.6-1.2-1.1-2-1.1c-0.6,0-1.1,0.2-1.5,0.5l-7.7-6.2c0.1-0.3,0.1-0.5,0.1-0.8c0-1.5-1.2-2.8-2.6-2.8
	s-2.6,1.2-2.6,2.8c0,1.1,0.6,2.1,1.5,2.5l-10,20h-0.1c-1.4,0-2.6,1.2-2.6,2.8c0,0.5,0.1,1,0.4,1.4l-12.9,13.7
	c-0.5-0.5-1.1-0.9-1.9-0.9c-1.4,0-2.6,1.2-2.6,2.8c0,1.2,0.8,2.2,1.8,2.6l-8.3,24.6c-0.2,0-0.4-0.1-0.6-0.1c-1.4,0-2.6,1.2-2.6,2.8
	c0,0.5,0.1,0.9,0.3,1.3l-11,6.7c-0.4-0.9-1.3-1.5-2.3-1.5c-1.4,0-2.6,1.2-2.6,2.8c0,1,0.5,1.8,1.2,2.3l-7.5,11.3
	c-0.4-0.2-0.8-0.4-1.3-0.4c-0.3,0-0.6,0.1-0.9,0.2l-7.1-11c0.5-0.7,0.9-1.6,0.9-2.6c0-2.4-1.8-4.3-4-4.3s-4,1.9-4,4.3
	c0,0.3,0,0.5,0.1,0.8L23.5,408l-10.3,23.9c-0.3-0.2-0.7-0.2-1.1-0.2c-1.4,0-2.6,1.2-2.6,2.8c0,0.1,0,0.1,0,0.2l0.2,0.9
	c0.4,1,1.3,1.7,2.4,1.7c1.4,0,2.6-1.2,2.6-2.8c0-0.8-0.3-1.4-0.8-1.9l10-23.6l10.2-4.9c0.6,1.5,2,2.6,3.7,2.6c0.9,0,1.8-0.3,2.5-0.9
	l7,10.8c-0.6,0.5-0.9,1.3-0.9,2.1c0,1.5,1.2,2.8,2.6,2.8c1.4,0,2.6-1.2,2.6-2.8c0-0.7-0.2-1.3-0.6-1.8l7.6-11.6
	c0.2,0,0.4,0.1,0.6,0.1c1.4,0,2.6-1.2,2.6-2.8c0-0.1,0-0.2,0-0.3l11.3-6.9c0.5,0.4,1,0.7,1.7,0.7c1.4,0,2.6-1.2,2.6-2.8
	c0-1-0.5-1.8-1.2-2.3l8.4-24.9c1.4-0.1,2.5-1.3,2.5-2.7c0-0.4-0.1-0.7-0.2-1.1l13-13.8c0.4,0.4,1,0.6,1.6,0.6c1.4,0,2.6-1.2,2.6-2.8
	c0-1.1-0.6-2.1-1.5-2.5l10-20h0.1c0.8,0,1.6-0.4,2.1-1.1l7.5,6.1c-0.3,0.4-0.5,1-0.5,1.6c0,1.5,1.2,2.8,2.6,2.8s2.6-1.2,2.6-2.8
	c0-0.2,0-0.4,0-0.5l10.2-23.1c0.1,0,0.2,0,0.4,0c1.4,0,2.6-1.2,2.6-2.8c0-0.6-0.2-1.2-0.6-1.7l10.7-17.9c0.3,0.1,0.6,0.2,0.9,0.2
	c1.4,0,2.6-1.2,2.6-2.8c0-0.4-0.1-0.8-0.3-1.2l11.5-8.5c0.7,0.8,1.7,1.3,2.9,1.3c0.5,0,0.9-0.1,1.3-0.2l3.9,11.1
	c-1.2,0.3-2.1,1.4-2.1,2.7c0,1.5,1.2,2.8,2.6,2.8c0.5,0,1-0.2,1.5-0.5l11.8,23c-1,0.4-1.7,1.4-1.7,2.6c0,1.5,1.2,2.8,2.6,2.8
	c0.4,0,0.8-0.1,1.2-0.3l7.5,27.3c-0.7,0.5-1.1,1.3-1.1,2.2c0,1.5,1.2,2.8,2.6,2.8c0.8,0,1.4-0.4,1.9-0.9l12.2,7.9
	c-0.1,0.3-0.1,0.6-0.1,0.9c0,1.5,1.2,2.8,2.6,2.8c1.4,0,2.6-1.2,2.6-2.8c0-1.1-0.6-2-1.5-2.5l8-23.1c0.3,0.1,0.7,0.2,1.1,0.2
	c1.2,0,2.2-0.5,2.9-1.4l4.2,2.8c0.1,1.2,0.9,2.1,1.9,2.4l2.1,12.3c-1.1,0.4-1.8,1.4-1.8,2.6c0,1.5,1.2,2.8,2.6,2.8
	c1.3,0,2.3-1,2.6-2.3l6.5-1.4c0.4,1.1,1.3,1.8,2.4,1.8c0.1,0,0.3,0,0.4,0l1.7,3.9c-0.6,0.5-1,1.3-1,2.2c0,1.5,1.2,2.8,2.6,2.8l0,0
	L257,381c-0.9,0.4-1.6,1.4-1.6,2.5c0,1.5,1.2,2.8,2.6,2.8c1.1,0,2-0.7,2.4-1.8h0.9c0,1.5,1.2,2.7,2.6,2.7c0.4,0,0.8-0.1,1.1-0.3
	l6.6,6c0,0.2-0.1,0.4-0.1,0.6c0,1.5,1.2,2.8,2.6,2.8s2.6-1.2,2.6-2.8l0,0l8-2.8c0.4,1,1.3,1.7,2.4,1.7c1.4,0,2.6-1.2,2.6-2.8
	c0-0.8-0.4-1.6-0.9-2.1l8.8-11.5c0.5,0.4,1.1,0.7,1.7,0.7c1.4,0,2.6-1.2,2.6-2.8c0-1.4-1-2.5-2.2-2.7l0.5-7.9
	c1.3-0.2,2.3-1.3,2.3-2.7c0-0.4-0.1-0.7-0.2-1l8.6-6.4c0.4,0.3,0.9,0.5,1.4,0.5c1.4,0,2.6-1.2,2.6-2.8c0-0.7-0.3-1.4-0.7-1.9
	l5.2-9.6c1.4-0.1,2.5-1.3,2.5-2.7c0-0.3-0.1-0.7-0.2-1l2.2-3c0.4,0.2,0.8,0.3,1.2,0.3c1.4,0,2.6-1.2,2.6-2.8c0-1-0.5-1.9-1.3-2.4
	l5.2-17.1l4.4-2.3c0,0.2-0.1,0.5-0.1,0.8c0,2.4,1.8,4.3,4,4.3c0.5,0,0.9-0.1,1.3-0.3l10.4,24.4c-0.8,0.5-1.3,1.4-1.3,2.4
	c0,1.5,1.2,2.8,2.6,2.8c0.9,0,1.6-0.5,2.1-1.1l10.2,5.4c-0.1,0.2-0.1,0.5-0.1,0.7c0,1.5,1.2,2.8,2.6,2.8c0.4,0,0.8-0.1,1.2-0.3
	l7.9,11.2c-0.5,0.5-0.9,1.2-0.9,2.1c0,1.5,1.2,2.8,2.6,2.8c0.9,0,1.7-0.5,2.2-1.2l8.4,4.9c0,0.2-0.1,0.5-0.1,0.8
	c0,2.4,1.8,4.3,4,4.3s4-1.9,4-4.3c0-1.3-0.5-2.4-1.4-3.2l7.1-15.6c0.2,0.1,0.5,0.1,0.7,0.1c1.4,0,2.6-1.2,2.6-2.8
	c0-0.3-0.1-0.7-0.2-1l7-4.6c0.4,0.3,1,0.5,1.5,0.5c1.4,0,2.6-1.2,2.6-2.8c0-0.4-0.1-0.9-0.3-1.2l10.3-9.4c0.5,0.6,1.2,1,2,1
	c1.4,0,2.6-1.2,2.6-2.8c0-0.9-0.4-1.7-1.1-2.2l9-11.8c0.4,0.3,0.9,0.5,1.5,0.5c1.4,0,2.6-1.2,2.6-2.8c0-0.5-0.1-1-0.4-1.4l6.5-5.3
	c0.7,1,1.8,1.6,3.1,1.6c1.6,0,3.1-1.1,3.7-2.6l2.1,1.1l5.2,17.2c-0.8,0.5-1.3,1.4-1.3,2.4c0,1.5,1.2,2.8,2.6,2.8
	c0.5,0,0.9-0.2,1.3-0.4l2.1,2.9c-0.1,0.3-0.2,0.7-0.2,1.1c0,1.5,1.2,2.8,2.6,2.8l0,0l5.2,9.5c-0.5,0.5-0.8,1.2-0.8,2
	c0,1.5,1.2,2.8,2.6,2.8c0.6,0,1.1-0.2,1.5-0.5l8.5,6.4c-0.1,0.3-0.2,0.7-0.2,1.1c0,1.5,1.1,2.6,2.4,2.7l0.5,7.9
	C489.2,366.8,488.2,368,488.2,369.4z"/>
<g>
	<defs>
		<polygon id="SVGID_15_" points="1,1 2,1 1,2 		"/>
	</defs>
	<defs>
		<polygon id="SVGID_16_" points="-1,-1 -2,-1 -1,-2 		"/>
	</defs>
	<clipPath id="SVGID_17_">
		<use xlink:href="#SVGID_15_"  style="overflow:visible;"/>
	</clipPath>
	<clipPath id="SVGID_18_" class="st16">
		<use xlink:href="#SVGID_16_"  style="overflow:visible;"/>
	</clipPath>
	<path class="st17" d="M505,106.4L505,106.4L505,106.4z"/>
</g>
<g>
	<line class="st18" x1="42" y1="467.5" x2="494.8" y2="467.5"/>
	<rect x="9.5" y="467.4" class="st14" width="485.3" height="0.2"/>
</g>
<rect y="-24.7" class="st18" width="754.8" height="515.7"/>
<rect y="-25.4" class="st18" width="754.8" height="517.1"/>
</svg>
