<?xml version="1.0" encoding="utf-8"?>
<!-- Generator: Adobe Illustrator 24.1.1, SVG Export Plug-In . SVG Version: 6.00 Build 0)  -->
<svg version="1.1" id="Слой_1" xmlns="http://www.w3.org/2000/svg" xmlns:xlink="http://www.w3.org/1999/xlink" x="0px" y="0px"
	 viewBox="0 0 130 130" style="enable-background:new 0 0 130 130;" xml:space="preserve">
<style type="text/css">
	.st0{fill:none;stroke:#C1B1FF;stroke-width:2.5158;stroke-linecap:round;stroke-linejoin:round;stroke-miterlimit:10;}
	.st1{fill:none;stroke:#8264FF;stroke-width:2.5158;stroke-linecap:round;stroke-linejoin:round;stroke-miterlimit:10;}
	.st2{fill:#8264FF;}
</style>
<g>
	<polyline class="st0" points="37.1,61.5 60.3,61.5 71.2,72.4 94.3,72.4 	"/>
	<polyline class="st0" points="17.7,89.5 38.4,110.2 57.6,110.2 	"/>
	<polyline class="st0" points="75.1,21.8 93.4,21.8 113.5,42 	"/>
	<g>
		<polyline class="st1" points="74,96.4 72,100 83.3,117.4 92.8,99.8 90.3,95.9 84.9,87.6 81.5,82.3 77.9,89.1 		"/>
		<polyline class="st1" points="51.2,100.2 62.5,117.8 83.3,117.4 72,100 62.4,100.1 51.2,100.2 60.9,82.2 81.5,82.3 		"/>
	</g>
	<g>
		<g>
			<line class="st1" x1="94.6" y1="117.4" x2="104.1" y2="99.8"/>
		</g>
		<g>
			<line class="st1" x1="105.5" y1="117.4" x2="115" y2="99.8"/>
		</g>
		<g>
			<line class="st1" x1="116.5" y1="117.4" x2="125.9" y2="99.8"/>
		</g>
	</g>
	<g>
		<polygon class="st1" points="9.7,84.2 13.1,89.4 22.6,71.8 11.3,54.3 1.8,72 4.3,75.9 		"/>
		<polyline class="st1" points="43.4,71.5 32.2,54 11.3,54.3 22.6,71.8 32.2,71.7 43.4,71.5 33.7,89.5 13.1,89.4 		"/>
	</g>
	<g>
		<polyline class="st1" points="38.9,27.4 37.1,30.8 39.6,34.7 44.9,43 48.3,48.3 57.8,30.6 46.6,13.2 41.8,22.1 		"/>
		<polyline class="st1" points="78.7,30.4 67.4,12.8 46.6,13.2 57.8,30.6 67.5,30.5 78.7,30.4 69,48.4 48.3,48.3 		"/>
	</g>
	<g>
		<polygon class="st1" points="120.6,47.3 117.2,42.1 107.7,59.7 119,77.2 128.5,59.5 126,55.6 		"/>
		<polyline class="st1" points="86.9,60 98.1,77.5 119,77.2 107.7,59.7 98.1,59.8 86.9,60 96.6,42 117.2,42.1 		"/>
	</g>
	<circle class="st2" cx="6" cy="31" r="2.2"/>
	<circle class="st2" cx="17.7" cy="31" r="2.2"/>
	<circle class="st2" cx="29.4" cy="31" r="2.2"/>
</g>
</svg>
