<?xml version="1.0" encoding="utf-8"?>
<!-- Generator: Adobe Illustrator 24.1.0, SVG Export Plug-In . SVG Version: 6.00 Build 0)  -->
<svg version="1.1" id="Layer_1" xmlns="http://www.w3.org/2000/svg" xmlns:xlink="http://www.w3.org/1999/xlink" x="0px" y="0px"
	 viewBox="0 0 105.1 129.7" style="enable-background:new 0 0 105.1 129.7;" xml:space="preserve">
<style type="text/css">
	.st0{fill:#C1B1FF;}
	.st1{fill:none;stroke:#8264FF;stroke-width:3;stroke-linecap:round;stroke-linejoin:round;stroke-miterlimit:10;}
	.st2{fill:none;stroke:#8264FF;stroke-width:3;stroke-linejoin:round;stroke-miterlimit:10;}
	.st3{fill:none;stroke:#C1B1FF;stroke-width:3;stroke-linecap:round;stroke-linejoin:round;stroke-miterlimit:10;}
	.st4{fill:none;stroke:#8264FF;stroke-width:2.7588;stroke-linecap:round;stroke-linejoin:round;stroke-miterlimit:10;}
	.st5{fill:none;stroke:#C1B1FF;stroke-width:2.6962;stroke-linecap:round;stroke-linejoin:round;stroke-miterlimit:10;}
	.st6{fill:none;stroke:#8264FF;stroke-width:2;stroke-linecap:round;stroke-linejoin:round;stroke-miterlimit:10;}
	.st7{fill:none;stroke:#8264FF;stroke-width:2.8956;stroke-linejoin:round;stroke-miterlimit:10;}
</style>
<g>
	<g>
		<circle class="st0" cx="42.1" cy="26.8" r="2"/>
		<circle class="st0" cx="53" cy="26.8" r="2"/>
		<circle class="st0" cx="63.9" cy="26.8" r="2"/>
	</g>
	<line class="st1" x1="102.3" y1="34.3" x2="102.3" y2="53.3"/>
	<path class="st1" d="M3.7,85.2v-51C3.7,24.1,11.9,16,22,16h62c7,0,13,3.9,16.1,9.6"/>
	<path class="st1" d="M102.3,53.3v42.2c0,10.1-8.2,18.3-18.3,18.3H22c-10.1,0-18.3-8.2-18.3-18.3"/>
	<line class="st2" x1="102.3" y1="37.7" x2="3.7" y2="37.7"/>
	<g>
		<rect x="14.1" y="47.1" class="st3" width="9.2" height="9.2"/>
		<rect x="14.1" y="65.7" class="st1" width="9.2" height="9.2"/>
		<rect x="14.1" y="84.2" class="st3" width="9.2" height="9.2"/>
		<polyline class="st4" points="78.6,88.2 83.8,92.4 89.9,85.2 		"/>
		<polyline class="st4" points="78.6,51.1 83.8,55.3 89.9,48.1 		"/>
		<g>
			<line class="st5" x1="80.1" y1="74.5" x2="88.4" y2="66.1"/>
			<line class="st5" x1="80.1" y1="66.1" x2="88.4" y2="74.5"/>
		</g>
		<g>
			<line class="st6" x1="30.3" y1="54" x2="68.2" y2="54"/>
			<line class="st6" x1="48.1" y1="49.3" x2="68.2" y2="49.3"/>
			<line class="st6" x1="30.3" y1="49.3" x2="40" y2="49.3"/>
		</g>
		<g>
			<line class="st6" x1="61" y1="72.6" x2="68.2" y2="72.6"/>
			<line class="st6" x1="30.3" y1="72.6" x2="54.7" y2="72.6"/>
			<line class="st6" x1="52.1" y1="68" x2="68.2" y2="68"/>
			<line class="st6" x1="30.3" y1="68" x2="44.5" y2="68"/>
		</g>
		<g>
			<line class="st6" x1="46" y1="91.1" x2="68.2" y2="91.1"/>
			<line class="st6" x1="30.3" y1="86.5" x2="68.2" y2="86.5"/>
			<line class="st6" x1="30.3" y1="91.1" x2="40" y2="91.1"/>
		</g>
	</g>
	<line class="st1" x1="40.1" y1="104.7" x2="66" y2="104.7"/>
	<line class="st7" x1="24.4" y1="36.9" x2="24.4" y2="16"/>
</g>
</svg>
