<?xml version="1.0" encoding="utf-8"?>
<!-- Generator: Adobe Illustrator 24.1.0, SVG Export Plug-In . SVG Version: 6.00 Build 0)  -->
<svg version="1.1" id="Слой_1" xmlns="http://www.w3.org/2000/svg" xmlns:xlink="http://www.w3.org/1999/xlink" x="0px" y="0px"
	 viewBox="0 0 148.6 130" style="enable-background:new 0 0 148.6 130;" xml:space="preserve">
<style type="text/css">
	.st0{fill:none;stroke:#8264FF;stroke-width:3;stroke-linecap:round;stroke-linejoin:round;stroke-miterlimit:10;}
	.st1{fill:none;stroke:#C1B1FF;stroke-width:2.9841;stroke-linecap:round;stroke-linejoin:round;stroke-miterlimit:10;}
	.st2{fill:#C1B1FF;}
</style>
<g>
	<path class="st0" d="M83.2,57.6c-1.5,3.5-4.1,6.5-7.4,8.6L58.2,77.2L40.6,66.2c-5.6-3.5-9-9.6-9-16.2V33.6h37
		C69.1,43.8,74.8,52.7,83.2,57.6z"/>
	<path class="st0" d="M84.8,104.2v16.5H31.6v-16.5c0-6.6,3.4-12.7,9-16.2l17.6-10.9l17.6,10.9C81.3,91.5,84.8,97.7,84.8,104.2z"/>
	<path class="st0" d="M69.1,27.2c-0.3,1.6-0.4,3.3-0.4,5c0,0.5,0,0.9,0,1.4H23.8c-1.8,0-3.2-1.4-3.2-3.2c0-0.9,0.4-1.7,0.9-2.3
		c0.6-0.6,1.4-0.9,2.3-0.9H69.1z"/>
	<path class="st1" d="M86.8,27.2c1.2,2.9,4.1,4.9,7.4,4.9h1.1"/>
	<path class="st0" d="M92.6,127.1H23.8c-1.8,0-3.2-1.4-3.2-3.2l0,0c0-1.8,1.4-3.2,3.2-3.2h68.9c1.8,0,3.2,1.4,3.2,3.2l0,0
		C95.8,125.7,94.4,127.1,92.6,127.1z"/>
	<ellipse class="st2" cx="58" cy="71.3" rx="1.7" ry="1.7"/>
	<ellipse class="st2" cx="58" cy="86.6" rx="1.7" ry="1.7"/>
	<ellipse class="st2" cx="58" cy="91.9" rx="1.7" ry="1.7"/>
	<ellipse class="st2" cx="58" cy="97.3" rx="1.7" ry="1.7"/>
	<ellipse class="st2" cx="58" cy="102.6" rx="1.7" ry="1.7"/>
	<ellipse class="st2" cx="58" cy="108" rx="1.7" ry="1.7"/>
	<ellipse class="st2" cx="58" cy="113.3" rx="1.7" ry="1.7"/>
	<ellipse class="st2" cx="58" cy="63.6" rx="1.7" ry="1.7"/>
	<ellipse class="st2" cx="63.7" cy="67.5" rx="1.7" ry="1.7"/>
	<ellipse class="st2" cx="68.8" cy="63.6" rx="1.7" ry="1.7"/>
	<ellipse class="st2" cx="74.3" cy="60.3" rx="1.7" ry="1.7"/>
	<ellipse class="st2" cx="52.3" cy="67.5" rx="1.7" ry="1.7"/>
	<ellipse class="st2" cx="47" cy="63.6" rx="1.7" ry="1.7"/>
	<ellipse class="st2" cx="41.2" cy="60.3" rx="1.7" ry="1.7"/>
	<g>
		<g>
			<path class="st0" d="M86.2,40.1c0,4.5,3.6,8.1,8.1,8.1h4h4c4.5,0,8.1-3.6,8.1-8.1c0-2.2-0.9-4.3-2.4-5.7
				c-1.5-1.5-3.5-2.4-5.7-2.4h-4h-3h-1.1c-3.3,0-6.2-2-7.4-4.9c-0.4-1-0.7-2.1-0.7-3.2c0-2.2,0.9-4.3,2.4-5.7
				c1.5-1.5,3.5-2.4,5.7-2.4h4h4c3.6,0,6.7,2.4,7.7,5.7c0.2,0.8,0.4,1.6,0.4,2.4"/>
			<polyline class="st0" points="98.3,53.5 98.3,48.2 98.3,32 98.3,27.2 98.3,15.9 98.3,10.8 			"/>
		</g>
		<path class="st0" d="M69.1,27.2c2.4-14,14.5-24.6,29.2-24.6c16.4,0,29.7,13.3,29.7,29.6s-13.3,29.6-29.7,29.6
			c-5.5,0-10.7-1.5-15.1-4.1"/>
		<path class="st0" d="M86.8,27.2c1.2,2.9,4.1,4.9,7.4,4.9h1.1"/>
	</g>
</g>
</svg>
