<?xml version="1.0" encoding="utf-8"?>
<!-- Generator: Adobe Illustrator 24.1.0, SVG Export Plug-In . SVG Version: 6.00 Build 0)  -->
<svg version="1.1" id="Layer_1_copy" xmlns="http://www.w3.org/2000/svg" xmlns:xlink="http://www.w3.org/1999/xlink" x="0px"
	 y="0px" viewBox="0 0 420 270" style="enable-background:new 0 0 420 270;" xml:space="preserve">
<style type="text/css">
	.st0{fill:#DEE0E6;}
	.st1{fill:none;}
	.st2{fill:#111123;}
	.st3{font-family:'Brother-1816-Bold';}
	.st4{font-size:12px;}
	.st5{clip-path:url(#SVGID_2_);fill:none;stroke:#D9D9D9;stroke-width:0.75;stroke-linejoin:round;stroke-miterlimit:10;}
	.st6{clip-path:url(#SVGID_4_);fill:none;stroke:#D9D9D9;stroke-width:0.75;stroke-linejoin:round;stroke-miterlimit:10;}
	.st7{clip-path:url(#SVGID_6_);fill:none;stroke:#BFBFBF;stroke-width:0.75;stroke-linejoin:round;stroke-miterlimit:10;}
	.st8{clip-path:url(#SVGID_8_);fill:none;stroke:#D9D9D9;stroke-width:0.75;stroke-linejoin:round;stroke-miterlimit:10;}
	
		.st9{clip-path:url(#SVGID_10_);fill:none;stroke:#8264FF;stroke-width:1.5;stroke-linecap:round;stroke-linejoin:round;stroke-miterlimit:10;}
	
		.st10{clip-path:url(#SVGID_12_);fill:none;stroke:#8264FF;stroke-width:1.5;stroke-linecap:round;stroke-linejoin:round;stroke-miterlimit:10;}
	
		.st11{clip-path:url(#SVGID_14_);fill:none;stroke:#8264FF;stroke-width:1.5;stroke-linecap:round;stroke-linejoin:round;stroke-miterlimit:10;}
	
		.st12{clip-path:url(#SVGID_16_);fill:none;stroke:#8264FF;stroke-width:1.5;stroke-linecap:round;stroke-linejoin:round;stroke-miterlimit:10;}
	
		.st13{clip-path:url(#SVGID_18_);fill:none;stroke:#8264FF;stroke-width:1.5;stroke-linecap:round;stroke-linejoin:round;stroke-miterlimit:10;}
	
		.st14{clip-path:url(#SVGID_20_);fill:none;stroke:#8264FF;stroke-width:1.5;stroke-linecap:round;stroke-linejoin:round;stroke-miterlimit:10;}
	
		.st15{clip-path:url(#SVGID_22_);fill:none;stroke:#8264FF;stroke-width:1.5;stroke-linecap:round;stroke-linejoin:round;stroke-miterlimit:10;}
	
		.st16{clip-path:url(#SVGID_24_);fill:none;stroke:#8264FF;stroke-width:1.5;stroke-linecap:round;stroke-linejoin:round;stroke-miterlimit:10;}
	
		.st17{clip-path:url(#SVGID_26_);fill:none;stroke:#8264FF;stroke-width:1.5;stroke-linecap:round;stroke-linejoin:round;stroke-miterlimit:10;}
	
		.st18{clip-path:url(#SVGID_28_);fill:none;stroke:#8264FF;stroke-width:1.5;stroke-linecap:round;stroke-linejoin:round;stroke-miterlimit:10;}
	
		.st19{clip-path:url(#SVGID_30_);fill:none;stroke:#8264FF;stroke-width:1.5;stroke-linecap:round;stroke-linejoin:round;stroke-miterlimit:10;}
	
		.st20{clip-path:url(#SVGID_32_);fill:none;stroke:#8264FF;stroke-width:1.5;stroke-linecap:round;stroke-linejoin:round;stroke-miterlimit:10;}
	
		.st21{clip-path:url(#SVGID_34_);fill:none;stroke:#8264FF;stroke-width:1.5;stroke-linecap:round;stroke-linejoin:round;stroke-miterlimit:10;}
	
		.st22{clip-path:url(#SVGID_36_);fill:none;stroke:#8264FF;stroke-width:1.5;stroke-linecap:round;stroke-linejoin:round;stroke-miterlimit:10;}
	
		.st23{clip-path:url(#SVGID_38_);fill:none;stroke:#8264FF;stroke-width:1.5;stroke-linecap:round;stroke-linejoin:round;stroke-miterlimit:10;}
	
		.st24{clip-path:url(#SVGID_40_);fill:none;stroke:#8264FF;stroke-width:1.5;stroke-linecap:round;stroke-linejoin:round;stroke-miterlimit:10;}
	.st25{clip-path:url(#SVGID_42_);}
	.st26{fill:#1E1E46;}
	.st27{font-family:'Brother-1816-Regular';}
	.st28{font-size:8px;}
	.st29{clip-path:url(#SVGID_44_);}
	.st30{clip-path:url(#SVGID_46_);}
	.st31{clip-path:url(#SVGID_48_);}
	.st32{clip-path:url(#SVGID_50_);}
	.st33{clip-path:url(#SVGID_52_);}
	.st34{clip-path:url(#SVGID_54_);}
	.st35{clip-path:url(#SVGID_56_);}
	.st36{clip-path:url(#SVGID_58_);}
	.st37{clip-path:url(#SVGID_60_);}
	.st38{clip-path:url(#SVGID_62_);}
	.st39{clip-path:url(#SVGID_64_);}
	.st40{clip-path:url(#SVGID_66_);}
	.st41{clip-path:url(#SVGID_68_);}
	.st42{clip-path:url(#SVGID_70_);}
	.st43{font-size:9px;}
	.st44{fill:none;stroke:#111123;stroke-miterlimit:10;}
</style>
<rect y="253" class="st0" width="420" height="3"/>
<rect x="73.4" y="31" class="st1" width="273.1" height="56.9"/>
<text transform="matrix(1 0 0 1 139.5192 39.5957)" class="st2 st3 st4">Penetration of Electricity </text>
<text transform="matrix(1 0 0 1 130.7192 53.9957)" class="st2 st3 st4">by Manufacturing Subsector</text>
<g>
	<g>
		<defs>
			<rect id="SVGID_1_" x="27" y="22" width="383" height="200.3"/>
		</defs>
		<clipPath id="SVGID_2_">
			<use xlink:href="#SVGID_1_"  style="overflow:visible;"/>
		</clipPath>
		<path class="st5" d="M67.6,73.7h293.9 M67.6,99.3h293.9 M67.6,123.8h293.9 M67.6,148.3h293.9 M67.6,173.9h293.9"/>
	</g>
</g>
<g>
	<g>
		<defs>
			<rect id="SVGID_3_" x="7" y="22" width="383" height="200.3"/>
		</defs>
		<clipPath id="SVGID_4_">
			<use xlink:href="#SVGID_3_"  style="overflow:visible;"/>
		</clipPath>
		<path class="st6" d="M361.6,73.7v124.6 M324,73.7v124.6 M287.6,73.7v124.6 M251.1,73.7v124.6 M214.6,73.7v124.6 M177.1,73.7v124.6
			 M140.6,73.7v124.6 M104.1,73.7v124.6"/>
	</g>
</g>
<g>
	<g>
		<defs>
			<rect id="SVGID_5_" x="7" y="22" width="383" height="200.3"/>
		</defs>
		<clipPath id="SVGID_6_">
			<use xlink:href="#SVGID_5_"  style="overflow:visible;"/>
		</clipPath>
		<line class="st7" x1="67.6" y1="198.4" x2="67.6" y2="73.7"/>
	</g>
</g>
<g>
	<g>
		<defs>
			<rect id="SVGID_7_" x="7" y="22" width="383" height="200.3"/>
		</defs>
		<clipPath id="SVGID_8_">
			<use xlink:href="#SVGID_7_"  style="overflow:visible;"/>
		</clipPath>
		<line class="st8" x1="67.6" y1="198.4" x2="361.6" y2="198.4"/>
	</g>
</g>
<g>
	<g>
		<defs>
			<rect id="SVGID_9_" x="67.1" y="73.2" width="293.9" height="125.7"/>
		</defs>
		<clipPath id="SVGID_10_">
			<use xlink:href="#SVGID_9_"  style="overflow:visible;"/>
		</clipPath>
		<path class="st9" d="M100.4,190c12-11.9,23.7-22.3,35.9-35.6s24.8-32.4,37.1-44c12.3-11.6,24.6-21.1,36.8-25.8
			c12.2-4.8,21.9-2.2,36.3-2.7c14.4-0.4,34.9,0.3,50.1,0s34.1-1.3,40.9-1.5"/>
	</g>
</g>
<g>
	<g>
		<defs>
			<rect id="SVGID_11_" x="67.1" y="73.2" width="293.9" height="125.7"/>
		</defs>
		<clipPath id="SVGID_12_">
			<use xlink:href="#SVGID_11_"  style="overflow:visible;"/>
		</clipPath>
		<path class="st10" d="M100.4,195.6c6.1-3.6,24.7-12,36.8-21.5c12.1-9.5,24.2-23.9,35.8-35.4c11.7-11.4,28-27.3,34.2-33.3
			c1.5-1.4,1.5-2.8,3-2.8c6.5,0.2,23.6,3.1,36,3.7c12.3,0.6,22.9,3.1,38.1,0.1c15.2-2.9,44.3-14.8,53.1-17.7"/>
	</g>
</g>
<g>
	<g>
		<defs>
			<rect id="SVGID_13_" x="67.1" y="73.2" width="293.9" height="125.7"/>
		</defs>
		<clipPath id="SVGID_14_">
			<use xlink:href="#SVGID_13_"  style="overflow:visible;"/>
		</clipPath>
		<path class="st11" d="M338.5,82.1c-9.2,5-39.8,27.8-55,30.1c-15.3,2.3-24.4-14.9-36.6-16.6c-12.2-1.6-24.6-3.3-36.8,6.8
			s-24.3,40.7-36.4,53.8c-12.1,13.2-24.2,18.2-36.4,25.2c-12.2,6.9-30.7,13.7-36.8,16.4"/>
	</g>
</g>
<g>
	<g>
		<defs>
			<rect id="SVGID_15_" x="67.1" y="73.2" width="293.9" height="125.7"/>
		</defs>
		<clipPath id="SVGID_16_">
			<use xlink:href="#SVGID_15_"  style="overflow:visible;"/>
		</clipPath>
		<path class="st12" d="M338.5,85.4c-7.5,0.8-30.1,3.3-44.8,4.8c-14.6,1.5-35.1,3.5-43,4.3c-2.1,0.2-2.4,0.1-4.2,0.4
			c-6.8,1-24.9-1-36.3,5.7c-11.3,6.7-19.5,20.5-31.7,34.5C166.4,149.2,150,174.6,137,185s-30.5,10.7-36.6,12.8"/>
	</g>
</g>
<g>
	<g>
		<defs>
			<rect id="SVGID_17_" x="67.1" y="73.2" width="293.9" height="125.7"/>
		</defs>
		<clipPath id="SVGID_18_">
			<use xlink:href="#SVGID_17_"  style="overflow:visible;"/>
		</clipPath>
		<path class="st13" d="M338.5,92.2c-9.1,2.1-32.9,11.7-54.3,12.4c-21.4,0.7-55.5-15.9-74-8.1s-24.5,39.6-36.7,54.8
			s-24.2,28.7-36.4,36.4c-12.2,7.7-30.6,8.4-36.7,10.1"/>
	</g>
</g>
<g>
	<g>
		<defs>
			<rect id="SVGID_19_" x="67.1" y="73.2" width="293.9" height="125.7"/>
		</defs>
		<clipPath id="SVGID_20_">
			<use xlink:href="#SVGID_19_"  style="overflow:visible;"/>
		</clipPath>
		<path class="st14" d="M338.5,93.2c-9.1,1.6-39.6,7.7-54.8,9.4c-15.2,1.7-24.3-1.3-36.6,1.1c-12.3,2.3-24.9,1.2-37.2,13
			c-12.2,11.8-24.1,44.4-36.3,57.8s-24.8,18.7-37,22.7s-30.2,0.9-36.3,1.1"/>
	</g>
</g>
<g>
	<g>
		<defs>
			<rect id="SVGID_21_" x="67.1" y="73.2" width="293.9" height="125.7"/>
		</defs>
		<clipPath id="SVGID_22_">
			<use xlink:href="#SVGID_21_"  style="overflow:visible;"/>
		</clipPath>
		<path class="st15" d="M338.5,101c-8.9,0.4-38,1.2-53.2,2.7c-15.2,1.4-25.5,1.4-37.9,6s-24.4,11-36.7,21.4
			c-12.3,10.3-24.6,30-36.9,40.6c-12.3,10.6-24.6,18.4-36.9,22.8c-12.3,4.5-30.6,3.3-36.7,3.9"/>
	</g>
</g>
<g>
	<g>
		<defs>
			<rect id="SVGID_23_" x="67.1" y="73.2" width="293.9" height="125.7"/>
		</defs>
		<clipPath id="SVGID_24_">
			<use xlink:href="#SVGID_23_"  style="overflow:visible;"/>
		</clipPath>
		<path class="st16" d="M338.5,94.3c-8.8,2.1-37.6,8.5-52.9,12.7c-15.2,4.2-26,10-38.5,12.3c-12.6,2.3-24.8-5.7-37,1.7
			s-24.1,31.5-36.2,42.7c-12.2,11.3-24.5,19.3-36.8,25s-30.6,7.5-36.8,9"/>
	</g>
</g>
<g>
	<g>
		<defs>
			<rect id="SVGID_25_" x="67.1" y="73.2" width="293.9" height="125.7"/>
		</defs>
		<clipPath id="SVGID_26_">
			<use xlink:href="#SVGID_25_"  style="overflow:visible;"/>
		</clipPath>
		<path class="st17" d="M338.5,113.4c-9.1-0.2-39.1-3.5-54.8-1.1c-15.7,2.4-27,10.3-39.2,15.5s-22.2,8.2-34.2,15.6
			c-12,7.4-25.4,20.4-37.8,28.7c-12.4,8.2-24.3,16.5-36.4,20.7c-12,4.3-29.9,4.2-35.8,5"/>
	</g>
</g>
<g>
	<g>
		<defs>
			<rect id="SVGID_27_" x="67.1" y="73.2" width="293.9" height="125.7"/>
		</defs>
		<clipPath id="SVGID_28_">
			<use xlink:href="#SVGID_27_"  style="overflow:visible;"/>
		</clipPath>
		<path class="st18" d="M338.5,123c-9.1,0.6-39.3,3.6-54.6,3.3c-15.3-0.3-24.9-6.4-37.2-5.1c-12.3,1.4-23.7,6.2-36.7,13.3
			c-13,7.1-29.4,20.5-41.5,29.3c-12.1,8.9-19.9,18.2-31.2,23.9c-11.3,5.6-30.7,8.3-36.9,10"/>
	</g>
</g>
<g>
	<g>
		<defs>
			<rect id="SVGID_29_" x="67.1" y="73.2" width="293.9" height="125.7"/>
		</defs>
		<clipPath id="SVGID_30_">
			<use xlink:href="#SVGID_29_"  style="overflow:visible;"/>
		</clipPath>
		<path class="st19" d="M338.5,143.9c-9.1-2.6-39.5-12.8-54.8-15.4c-15.3-2.6-24.8-0.6-37-0.3c-12.2,0.3-24.2-3.8-36.3,2.4
			c-12.2,6.2-24.4,24.3-36.7,35s-24.8,23.8-37,29.1s-30.3,2.3-36.3,2.8"/>
	</g>
</g>
<g>
	<g>
		<defs>
			<rect id="SVGID_31_" x="67.1" y="73.2" width="293.9" height="125.7"/>
		</defs>
		<clipPath id="SVGID_32_">
			<use xlink:href="#SVGID_31_"  style="overflow:visible;"/>
		</clipPath>
		<path class="st20" d="M338.5,96.6c-9.1,2.5-39.2,10.9-54.4,15c-15.2,4.1-24.3,4.6-36.7,9.7c-12.4,5.1-25.4,12-37.7,20.9
			c-12.4,8.8-24.3,23.6-36.5,32.2c-12.2,8.6-24.4,15.5-36.5,19.4s-30.3,3.3-36.3,4"/>
	</g>
</g>
<g>
	<g>
		<defs>
			<rect id="SVGID_33_" x="67.1" y="73.2" width="293.9" height="125.7"/>
		</defs>
		<clipPath id="SVGID_34_">
			<use xlink:href="#SVGID_33_"  style="overflow:visible;"/>
		</clipPath>
		<path class="st21" d="M338.5,117.7c-8.9,1.9-38,8.4-53.3,11.5c-15.2,3.1-25.5,2.2-38,7.2s-24.8,14.4-37,22.5s-24.1,19.8-36.3,26.3
			s-24.5,10.5-36.8,12.7s-30.7,0.4-36.8,0.5"/>
	</g>
</g>
<g>
	<g>
		<defs>
			<rect id="SVGID_35_" x="67.1" y="73.2" width="293.9" height="125.7"/>
		</defs>
		<clipPath id="SVGID_36_">
			<use xlink:href="#SVGID_35_"  style="overflow:visible;"/>
		</clipPath>
		<path class="st22" d="M338.5,99.9c-9.1,1.9-39.6,8.9-54.8,11.7c-15.2,2.8-24.5-0.3-36.6,4.9c-12.1,5.2-23.9,16-36.1,26.4
			c-12.1,10.4-24.5,27.5-36.8,36s-24.7,12.1-37,15.3c-12.3,3.1-30.7,3-36.8,3.6"/>
	</g>
</g>
<g>
	<g>
		<defs>
			<rect id="SVGID_37_" x="67.1" y="73.2" width="293.9" height="125.7"/>
		</defs>
		<clipPath id="SVGID_38_">
			<use xlink:href="#SVGID_37_"  style="overflow:visible;"/>
		</clipPath>
		<path class="st23" d="M338.5,121c-8.9,1.3-38.4,4.6-53.7,7.8c-15.2,3.1-25.3,3.8-37.7,11c-12.4,7.2-24.6,23.6-36.8,32.1
			c-12.2,8.5-24.4,14.8-36.7,19.1c-12.2,4.3-24.4,5.5-36.7,6.7c-12.2,1.2-30.5,0.6-36.7,0.7"/>
	</g>
</g>
<g>
	<g>
		<defs>
			<rect id="SVGID_39_" x="67.1" y="73.2" width="293.9" height="125.7"/>
		</defs>
		<clipPath id="SVGID_40_">
			<use xlink:href="#SVGID_39_"  style="overflow:visible;"/>
		</clipPath>
		<path class="st24" d="M100.4,195.6c6.1-3.6,24.5-11.7,36.8-21.5s24.6-25,36.8-37.1s24.5-30.2,36.6-35.5c12.1-5.2,23.7,3.3,35.9,4
			c12.2,0.7,22.2,3.2,37.3,0.3c15.2-3,35.7-12.1,53.6-18.1"/>
	</g>
</g>
<g>
	<g>
		<defs>
			<rect id="SVGID_41_" x="7" y="22" width="383" height="200.3"/>
		</defs>
		<clipPath id="SVGID_42_">
			<use xlink:href="#SVGID_41_"  style="overflow:visible;"/>
		</clipPath>
		<g class="st25">
			<text transform="matrix(1.0117 0 0 1 50.043 198.1455)" class="st26 st27 st28">0%</text>
		</g>
	</g>
</g>
<g>
	<g>
		<defs>
			<rect id="SVGID_43_" x="7" y="22" width="383" height="200.3"/>
		</defs>
		<clipPath id="SVGID_44_">
			<use xlink:href="#SVGID_43_"  style="overflow:visible;"/>
		</clipPath>
		<g class="st29">
			<text transform="matrix(1.0117 0 0 1 44.9365 173.9941)" class="st26 st27 st28">20%</text>
		</g>
	</g>
</g>
<g>
	<g>
		<defs>
			<rect id="SVGID_45_" x="7" y="22" width="383" height="200.3"/>
		</defs>
		<clipPath id="SVGID_46_">
			<use xlink:href="#SVGID_45_"  style="overflow:visible;"/>
		</clipPath>
		<g class="st30">
			<text transform="matrix(1.0117 0 0 1 44.9365 149.8423)" class="st26 st27 st28">40%</text>
		</g>
	</g>
</g>
<g>
	<g>
		<defs>
			<rect id="SVGID_47_" x="7" y="22" width="383" height="200.3"/>
		</defs>
		<clipPath id="SVGID_48_">
			<use xlink:href="#SVGID_47_"  style="overflow:visible;"/>
		</clipPath>
		<g class="st31">
			<text transform="matrix(1.0117 0 0 1 44.9365 125.6904)" class="st26 st27 st28">60%</text>
		</g>
	</g>
</g>
<g>
	<g>
		<defs>
			<rect id="SVGID_49_" x="7" y="22" width="383" height="200.3"/>
		</defs>
		<clipPath id="SVGID_50_">
			<use xlink:href="#SVGID_49_"  style="overflow:visible;"/>
		</clipPath>
		<g class="st32">
			<text transform="matrix(1.0117 0 0 1 44.9365 101.5391)" class="st26 st27 st28">80%</text>
		</g>
	</g>
</g>
<g>
	<g>
		<defs>
			<rect id="SVGID_51_" x="7" y="22" width="383" height="200.3"/>
		</defs>
		<clipPath id="SVGID_52_">
			<use xlink:href="#SVGID_51_"  style="overflow:visible;"/>
		</clipPath>
		<g class="st33">
			<text transform="matrix(1.0117 0 0 1 39.8306 77.3877)" class="st26 st27 st28">100%</text>
		</g>
	</g>
</g>
<g>
	<g>
		<defs>
			<rect id="SVGID_53_" x="7" y="22" width="383" height="200.3"/>
		</defs>
		<clipPath id="SVGID_54_">
			<use xlink:href="#SVGID_53_"  style="overflow:visible;"/>
		</clipPath>
		<g class="st34">
			<text transform="matrix(1.0117 0 0 1 56.936 215.9307)" class="st26 st27 st28">1880</text>
		</g>
	</g>
</g>
<g>
	<g>
		<defs>
			<rect id="SVGID_55_" x="7" y="22" width="383" height="200.3"/>
		</defs>
		<clipPath id="SVGID_56_">
			<use xlink:href="#SVGID_55_"  style="overflow:visible;"/>
		</clipPath>
		<g class="st35">
			<text transform="matrix(1.0117 0 0 1 93.6748 215.9307)" class="st26 st27 st28">1890</text>
		</g>
	</g>
</g>
<g>
	<g>
		<defs>
			<rect id="SVGID_57_" x="7" y="22" width="383" height="200.3"/>
		</defs>
		<clipPath id="SVGID_58_">
			<use xlink:href="#SVGID_57_"  style="overflow:visible;"/>
		</clipPath>
		<g class="st36">
			<text transform="matrix(1.0117 0 0 1 130.4136 215.9307)" class="st26 st27 st28">1900</text>
		</g>
	</g>
</g>
<g>
	<g>
		<defs>
			<rect id="SVGID_59_" x="7" y="22" width="383" height="200.3"/>
		</defs>
		<clipPath id="SVGID_60_">
			<use xlink:href="#SVGID_59_"  style="overflow:visible;"/>
		</clipPath>
		<g class="st37">
			<text transform="matrix(1.0117 0 0 1 167.1523 215.9307)" class="st26 st27 st28">1910</text>
		</g>
	</g>
</g>
<g>
	<g>
		<defs>
			<rect id="SVGID_61_" x="7" y="22" width="383" height="200.3"/>
		</defs>
		<clipPath id="SVGID_62_">
			<use xlink:href="#SVGID_61_"  style="overflow:visible;"/>
		</clipPath>
		<g class="st38">
			<text transform="matrix(1.0117 0 0 1 203.8916 215.9307)" class="st26 st27 st28">1920</text>
		</g>
	</g>
</g>
<g>
	<g>
		<defs>
			<rect id="SVGID_63_" x="7" y="22" width="383" height="200.3"/>
		</defs>
		<clipPath id="SVGID_64_">
			<use xlink:href="#SVGID_63_"  style="overflow:visible;"/>
		</clipPath>
		<g class="st39">
			<text transform="matrix(1.0117 0 0 1 240.6299 215.9307)" class="st26 st27 st28">1930</text>
		</g>
	</g>
</g>
<g>
	<g>
		<defs>
			<rect id="SVGID_65_" x="7" y="22" width="383" height="200.3"/>
		</defs>
		<clipPath id="SVGID_66_">
			<use xlink:href="#SVGID_65_"  style="overflow:visible;"/>
		</clipPath>
		<g class="st40">
			<text transform="matrix(1.0117 0 0 1 277.3691 215.9307)" class="st26 st27 st28">1940</text>
		</g>
	</g>
</g>
<g>
	<g>
		<defs>
			<rect id="SVGID_67_" x="7" y="22" width="383" height="200.3"/>
		</defs>
		<clipPath id="SVGID_68_">
			<use xlink:href="#SVGID_67_"  style="overflow:visible;"/>
		</clipPath>
		<g class="st41">
			<text transform="matrix(1.0117 0 0 1 314.1074 215.9307)" class="st26 st27 st28">1950</text>
		</g>
	</g>
</g>
<g>
	<g>
		<defs>
			<rect id="SVGID_69_" x="7" y="22" width="383" height="200.3"/>
		</defs>
		<clipPath id="SVGID_70_">
			<use xlink:href="#SVGID_69_"  style="overflow:visible;"/>
		</clipPath>
		<g class="st42">
			<text transform="matrix(1.0117 0 0 1 350.8467 215.9307)" class="st26 st27 st28">1960</text>
		</g>
	</g>
</g>
<text transform="matrix(1 0 0 1 106.2293 236.2131)" class="st2 st27 st43">Within 30 years, electricity penetrated most sectors</text>
<path class="st2" d="M210.4,75.2l-0.1-0.2l1.2,1.7l-0.2-0.2l1.7,1.2l-0.2-0.1l2.1,0.4h-0.2l2.1-0.4l-0.2,0.1l1.7-1.2l-0.2,0.2
	l1.2-1.7l-0.1,0.2l0.4-2.1v0.2l-0.4-2.1l0.1,0.2l-1.2-1.7l0.2,0.2l-1.7-1.2l0.2,0.1l-2.1-0.4h0.2l-2.1,0.4l0.2-0.1l-1.7,1.2l0.2-0.2
	l-1.2,1.7l0.1-0.2l-0.4,2.1v-0.2L210.4,75.2z M208.8,73.2l0.5-2.3l1.3-1.9l1.9-1.3l2.3-0.5l2.3,0.5L219,69l1.3,1.9l0.5,2.3l-0.5,2.3
	l-1.3,1.9l-1.9,1.3l-2.3,0.5l-2.3-0.5l-1.9-1.3l-1.3-1.9L208.8,73.2z"/>
<line class="st44" x1="215" y1="79" x2="215" y2="198"/>
</svg>
