<?xml version="1.0" encoding="utf-8"?>
<!-- Generator: Adobe Illustrator 24.1.1, SVG Export Plug-In . SVG Version: 6.00 Build 0)  -->
<svg version="1.1" id="Слой_1" xmlns="http://www.w3.org/2000/svg" xmlns:xlink="http://www.w3.org/1999/xlink" x="0px" y="0px"
	 viewBox="0 0 130 130" style="enable-background:new 0 0 130 130;" xml:space="preserve">
<style type="text/css">
	.st0{fill:none;stroke:#C1B1FF;stroke-width:3;stroke-linecap:round;stroke-linejoin:round;stroke-miterlimit:10;}
	.st1{fill:none;stroke:#8264FF;stroke-width:3;stroke-linecap:round;stroke-linejoin:round;stroke-miterlimit:10;}
	.st2{fill:#8264FF;}
	.st3{fill:none;stroke:#8264FF;stroke-width:3.1833;stroke-linecap:round;stroke-linejoin:round;stroke-miterlimit:10;}
</style>
<g>
	<polyline class="st0" points="112.5,113.1 112.5,98.4 94.8,85.4 	"/>
	<line class="st0" x1="46.5" y1="54.7" x2="28.1" y2="41"/>
	<circle class="st0" cx="112.5" cy="119.1" r="5.8"/>
	<g>
		<polyline class="st1" points="47.1,44 38.3,37.4 38.3,16.4 		"/>
		<circle class="st1" cx="37.8" cy="10.6" r="5.8"/>
		<circle class="st1" cx="13.8" cy="10.6" r="5.8"/>
		<polyline class="st1" points="38.3,26 21.3,26 16.1,16.4 		"/>
	</g>
	<g>
		<g>
			<circle class="st2" cx="107.4" cy="16.8" r="2.2"/>
			<circle class="st2" cx="107.4" cy="30.4" r="2.2"/>
			<circle class="st2" cx="107.4" cy="44" r="2.2"/>
			<circle class="st2" cx="107.4" cy="57.6" r="2.2"/>
		</g>
		<circle class="st2" cx="120.5" cy="30.4" r="2.2"/>
		<circle class="st2" cx="120.5" cy="44" r="2.2"/>
		<circle class="st2" cx="120.5" cy="57.6" r="2.2"/>
		<circle class="st2" cx="120.5" cy="71.2" r="2.2"/>
	</g>
	<g>
		<path class="st3" d="M93.8,42.6V109c0,2.3-1.9,4.2-4.2,4.2H51.4c-2.3,0-4.2-1.9-4.2-4.2V73.1v-3.4v-27c0-2.3,1.9-4.2,4.2-4.2h4.9
			v-7.7c0-1,0.8-1.8,1.8-1.8h24.8c1,0,1.8,0.8,1.8,1.8v7.7h4.9C91.9,38.4,93.8,40.3,93.8,42.6z"/>
		<line class="st3" x1="54" y1="104.8" x2="86" y2="104.8"/>
		<line class="st3" x1="53.9" y1="96.7" x2="85.8" y2="96.7"/>
		<line class="st3" x1="74.3" y1="38.7" x2="78.2" y2="38.7"/>
		<path class="st2" d="M79.9,70.8l-8.2,14.8c-0.8,1.4-2.8,0.8-2.8-0.9l-0.1-13.9c0-0.9-0.7-1.7-1.5-1.7h-5.1c-1.2,0-1.9-1.5-1.3-2.6
			l8.7-15.4c0.8-1.4,2.7-0.8,2.8,0.9l0.3,14.5c0,0.9,0.7,1.6,1.5,1.6h4.4C79.8,68.2,80.5,69.7,79.9,70.8z"/>
	</g>
</g>
</svg>
