<?xml version="1.0" encoding="utf-8"?>
<!-- Generator: Adobe Illustrator 24.1.0, SVG Export Plug-In . SVG Version: 6.00 Build 0)  -->
<svg version="1.1" id="Layer_1" xmlns="http://www.w3.org/2000/svg" xmlns:xlink="http://www.w3.org/1999/xlink" x="0px" y="0px"
	 viewBox="0 0 105.1 129.7" style="enable-background:new 0 0 105.1 129.7;" xml:space="preserve">
<style type="text/css">
	.st0{fill:none;stroke:#8264FF;stroke-width:3;stroke-linecap:round;stroke-miterlimit:10;}
	.st1{fill:none;stroke:#C1B1FF;stroke-width:3;stroke-linecap:round;stroke-miterlimit:10;}
</style>
<g id="Layer_2_1_">
	<g id="Layer_1-2">
		<path class="st0" d="M75.1,93.8c0.3,12.4-9.5,22.6-21.9,22.9s-22.6-9.5-22.9-21.9c0-0.3,0-0.6,0-0.9"/>
		<line class="st0" x1="52.7" y1="116.2" x2="52.7" y2="128.2"/>
		<line class="st0" x1="43.9" y1="128.2" x2="61.6" y2="128.2"/>
		<path class="st0" d="M52.3,56.1L52.3,56.1c6.9,0,12.6,5.6,12.6,12.6v23.8c0,6.9-5.6,12.6-12.6,12.6h0c-6.9,0-12.6-5.6-12.6-12.6
			V68.7C39.7,61.7,45.4,56.1,52.3,56.1z"/>
		<line class="st0" x1="40.2" y1="74.2" x2="50.2" y2="74.2"/>
		<line class="st0" x1="40.2" y1="81.8" x2="50.2" y2="81.8"/>
		<path class="st1" d="M32.6,36.3c10.4-10.8,27.5-11.2,38.3-0.8c0.4,0.4,0.8,0.8,1.2,1.2"/>
		<path class="st1" d="M38.4,42.7c7.2-7.6,19.1-7.9,26.6-0.7c0.3,0.3,0.7,0.6,1,1"/>
		<path class="st1" d="M44,48.8c4.7-4.3,11.8-4.2,16.4,0.2"/>
		<path class="st0" d="M88.6,39C86.6,19.1,68.7,4.6,48.8,6.7C31.7,8.4,18.2,21.9,16.4,39"/>
		<path class="st0" d="M11.6,38.7c2.2-22.6,22.3-39.2,44.9-37C76,3.6,91.4,18.9,93.4,38.4"/>
		<path class="st1" d="M6.2,69.1c0,1.3-1,2.3-2.3,2.3l0,0c-1.3,0-2.3-1-2.3-2.3V50.7c0-1.3,1-2.3,2.3-2.3c0,0,0,0,0,0l0,0
			c1.3,0,2.3,1,2.3,2.3l0,0"/>
		<path class="st1" d="M98.9,50.7c0-1.3,1-2.3,2.3-2.3l0,0l0,0c1.3,0,2.3,1,2.3,2.3v0v18.4c0,1.3-1,2.3-2.3,2.3l0,0
			c-1.3,0-2.3-1-2.3-2.3"/>
		<path class="st0" d="M13.2,39.6h1.7c3.9,0,7,3.1,7,7v26.6c0,3.9-3.1,7-7,7h-1.7c-3.9,0-7-3.1-7-7V46.6
			C6.2,42.7,9.4,39.6,13.2,39.6z"/>
		<path class="st0" d="M90.2,39.6h1.7c3.9,0,7,3.1,7,7v26.6c0,3.9-3.1,7-7,7h-1.7c-3.9,0-7-3.1-7-7V46.6
			C83.2,42.7,86.4,39.6,90.2,39.6z"/>
	</g>
</g>
</svg>
