<?xml version="1.0" encoding="utf-8"?>
<!-- Generator: Adobe Illustrator 24.1.1, SVG Export Plug-In . SVG Version: 6.00 Build 0)  -->
<svg version="1.1" id="Слой_1" xmlns="http://www.w3.org/2000/svg" xmlns:xlink="http://www.w3.org/1999/xlink" x="0px" y="0px"
	 viewBox="0 0 130 130" style="enable-background:new 0 0 130 130;" xml:space="preserve">
<style type="text/css">
	.st0{fill:none;stroke:#C1B1FF;stroke-width:3.0291;stroke-linecap:round;stroke-linejoin:round;stroke-miterlimit:10;}
	.st1{fill:#C1B1FF;}
	.st2{fill:none;stroke:#C1B1FF;stroke-width:3.0654;stroke-linecap:round;stroke-linejoin:round;stroke-miterlimit:10;}
	.st3{fill:none;stroke:#C1B1FF;stroke-width:3;stroke-linecap:round;stroke-linejoin:round;stroke-miterlimit:10;}
	.st4{fill:#8264FF;}
	.st5{fill:none;stroke:#8264FF;stroke-width:4;stroke-linecap:round;stroke-linejoin:round;stroke-miterlimit:10;}
</style>
<g>
	<line class="st0" x1="57.7" y1="115.3" x2="23.1" y2="115.3"/>
	<g>
		<g>
			<path class="st1" d="M51.4,83c-6.7,8.7-16.4,13.7-24,21.4c-6.4,6.5-9.8,12.8-9.8,21.9c0,2.5,3.8,2.5,3.8,0c0-4.6,0.4-8.1,2.9-12
				c2.9-4.6,6.7-8.5,11-11.8c7-5.4,13.8-10.5,19.3-17.6C56.2,83,52.9,81.1,51.4,83L51.4,83z"/>
		</g>
	</g>
	<g>
		<g>
			<path class="st1" d="M39.4,34.1c4.1,3.6,8.3,7.1,11.9,11.1c1.6,1.8,4.4-0.9,2.7-2.7c-3.6-4.1-7.8-7.6-11.9-11.1
				C40.2,29.8,37.5,32.5,39.4,34.1L39.4,34.1z"/>
		</g>
	</g>
	<line class="st2" x1="56.8" y1="13.6" x2="23" y2="13.6"/>
	<line class="st3" x1="48.1" y1="52" x2="23.7" y2="52"/>
	<line class="st3" x1="48.3" y1="77.5" x2="24.6" y2="77.5"/>
	<line class="st3" x1="44.1" y1="64.7" x2="20.4" y2="64.7"/>
	<path class="st4" d="M95.1,85l14.8,24.1c1.6,2.7,0.8,6.2-1.8,7.8h0c-2.6,1.6-6.1,0.8-7.8-1.8L85.8,91.5c0,0,3.7-1.7,4.8-2.5
		C91.9,88.2,95.1,85,95.1,85z"/>
	<path class="st4" d="M90.8,52.8L83,48.3c-0.4-0.2-0.9-0.2-1.4,0l-7.2,4.1l-7.2-4.1c-0.4-0.2-0.9-0.2-1.4,0L58,52.8
		c-0.4,0.2-0.7,0.7-0.7,1.2v9.1c0,0.5,0.3,0.9,0.7,1.2l7.2,4.1v8.3c0,0.5,0.3,0.9,0.7,1.2l7.9,4.5c0.2,0.1,0.4,0.2,0.7,0.2
		c0.2,0,0.5-0.1,0.7-0.2l7.9-4.5c0.4-0.2,0.7-0.7,0.7-1.2v-8.3l7.2-4.1c0.4-0.2,0.7-0.7,0.7-1.2V54C91.5,53.5,91.2,53.1,90.8,52.8z
		 M60.1,62.3v-7.5h0l6.5-3.8l6.5,3.8v7.5l-3.2,1.9l-3.2,1.9L60.1,62.3z M74.4,79.7l-6.5-3.8v-7.5l3.2-1.9l3.2-1.9l3.2,1.9l3.2,1.9
		v7.5h0L74.4,79.7z M88.8,62.3l-6.5,3.8L79,64.2l-3.2-1.9v-7.5l6.5-3.8l6.5,3.8V62.3z"/>
	<circle class="st5" cx="74.4" cy="64.4" r="28.2"/>
	<g>
		<g>
			<path class="st4" d="M57.8,3.4c0.5,6.1-1.2,10.7-5.5,15.1c-3.8,3.9-7.9,7.6-11.9,11.1c-7.9,6.9-15.9,13.4-20.2,23.3
				c-9.1,21.2,9.4,38,24.9,49.6c2,1.5,3.9-1.9,1.9-3.3C38.7,92.9,30.4,86.3,25.2,77c-6.5-11.8-3-24,5.8-33.5
				c6.5-7,14.2-13,21.2-19.5c6.3-5.9,10.2-11.6,9.4-20.6C61.4,1,57.6,0.9,57.8,3.4L57.8,3.4z"/>
		</g>
	</g>
	<g>
		<g>
			<path class="st4" d="M51.2,108c2.5,2.8,5.1,5.9,6.6,9.3c1.3,2.9,1.2,5.9,1.2,9c0,2.5,3.8,2.5,3.8,0c0-3.6,0-7.1-1.5-10.5
				c-1.8-3.9-4.6-7.4-7.5-10.6C52.2,103.4,49.5,106.2,51.2,108L51.2,108z"/>
		</g>
	</g>
	<g>
		<g>
			<path class="st1" d="M18.9,3.4c-1.1,9.6,4,15.6,10.7,21.7c1.8,1.7,4.5-1,2.7-2.7c-3-2.7-6.6-5.6-8.3-9.3
				c-1.3-2.9-1.6-6.5-1.3-9.7C23,0.9,19.2,1,18.9,3.4L18.9,3.4z"/>
		</g>
	</g>
</g>
</svg>
