<?xml version="1.0" encoding="utf-8"?>
<!-- Generator: Adobe Illustrator 24.1.0, SVG Export Plug-In . SVG Version: 6.00 Build 0)  -->
<svg version="1.1" id="Layer_1" xmlns="http://www.w3.org/2000/svg" xmlns:xlink="http://www.w3.org/1999/xlink" x="0px" y="0px"
	 viewBox="0 0 420 285" style="enable-background:new 0 0 420 285;" xml:space="preserve">
<style type="text/css">
	.st0{fill:#DEE0E6;}
	
		.st1{clip-path:url(#SVGID_2_);fill:none;stroke:#8264FF;stroke-width:2.25;stroke-linecap:round;stroke-linejoin:round;stroke-miterlimit:10;}
	.st2{clip-path:url(#SVGID_4_);}
	.st3{fill:#1D1E46;}
	.st4{font-family:'Brother-1816-Regular';}
	.st5{font-size:7.7606px;}
	.st6{clip-path:url(#SVGID_6_);}
	.st7{clip-path:url(#SVGID_8_);}
	.st8{clip-path:url(#SVGID_10_);}
	.st9{clip-path:url(#SVGID_12_);}
	.st10{clip-path:url(#SVGID_14_);}
	.st11{clip-path:url(#SVGID_16_);}
	.st12{clip-path:url(#SVGID_18_);}
	.st13{clip-path:url(#SVGID_20_);}
	.st14{clip-path:url(#SVGID_22_);}
	.st15{font-size:9px;}
	.st16{fill:#111123;}
	.st17{fill:none;}
	.st18{font-family:'Brother-1816-Bold';}
	.st19{font-size:12px;}
</style>
<g id="Layer_1_1_">
	<rect y="273" class="st0" width="420" height="3"/>
	<g>
		<g>
			<defs>
				<rect id="SVGID_1_" x="69" y="96.9" width="320" height="150.6"/>
			</defs>
			<clipPath id="SVGID_2_">
				<use xlink:href="#SVGID_1_"  style="overflow:visible;"/>
			</clipPath>
			<polyline class="st1" points="73,142.7 75.9,138.8 78.8,135.7 81.7,133.4 84.6,131 87.5,129.5 90.4,127.1 94.1,125.6 97,124.8 
				99.9,123.3 102.8,122.5 105.7,120.9 108.6,120.2 111.4,119.4 114.3,118.6 117.2,117.8 120.1,117.1 123,116.3 125.9,116.3 
				129.6,115.5 132.5,114.7 135.4,114.7 138.3,114 141.2,114 144.1,113.2 147,113.2 149.9,112.4 152.8,112.4 155.7,111.6 
				158.6,111.6 162.2,111.6 165.1,110.8 168,110.8 170.9,110.8 173.8,110.1 176.7,110.1 179.6,110.1 182.5,109.3 185.4,109.3 
				188.3,109.3 191.2,109.3 194.8,109.3 197.7,109.3 200.6,109.3 203.5,109.3 206.4,108.5 209.3,108.5 212.2,108.5 215.1,108.5 
				218,108.5 220.9,108.5 223.8,108.5 226.7,109.3 230.3,109.3 233.2,109.3 236.1,109.3 239,109.3 241.9,110.1 244.8,110.1 
				247.7,110.1 250.6,110.1 253.5,110.1 256.4,110.8 259.3,111.6 262.9,112.4 265.8,113.2 268.7,114 271.6,114.7 274.5,115.5 
				277.4,115.5 280.3,116.3 283.2,117.1 286.1,118.6 289,120.2 291.9,121.7 295.5,123.3 298.4,124.8 301.3,126.4 304.2,127.9 
				307.1,129.5 310,132.6 312.9,135.7 315.8,138.8 318.7,141.9 321.6,145 324.5,147.3 328.1,154.3 331,160.5 333.9,166.7 
				336.8,172.2 339.7,177.6 342.6,182.2 345.5,194.7 348.4,204.8 351.3,214.1 354.2,221.8 357.1,228 360,232.7 363.6,236.6 
				366.5,239.7 369.4,241.2 372.3,242.8 375.2,243.6 378.1,244.3 381,245.1 383.9,245.9 386.8,245.9 			"/>
		</g>
	</g>
	<g>
		<g>
			<defs>
				<rect id="SVGID_3_" x="11.7" y="79.1" width="418.3" height="175.3"/>
			</defs>
			<clipPath id="SVGID_4_">
				<use xlink:href="#SVGID_3_"  style="overflow:visible;"/>
			</clipPath>
			<g class="st2">
				<text transform="matrix(1 0 0 1 53.2695 99.208)" class="st3 st4 st5">0</text>
				<text transform="matrix(1 0 0 1 57.9695 99.208)" class="st3 st4 st5">%</text>
			</g>
		</g>
	</g>
	<g>
		<g>
			<defs>
				<rect id="SVGID_5_" x="11.7" y="79.1" width="418.3" height="175.3"/>
			</defs>
			<clipPath id="SVGID_6_">
				<use xlink:href="#SVGID_5_"  style="overflow:visible;"/>
			</clipPath>
			<g class="st6">
				<text transform="matrix(1 0 0 1 54.3086 118.6094)" class="st3 st4 st5">2</text>
				<text transform="matrix(1 0 0 1 58.2086 118.6094)" class="st3 st4 st5">%</text>
			</g>
		</g>
	</g>
	<g>
		<g>
			<defs>
				<rect id="SVGID_7_" x="11.7" y="79.1" width="418.3" height="175.3"/>
			</defs>
			<clipPath id="SVGID_8_">
				<use xlink:href="#SVGID_7_"  style="overflow:visible;"/>
			</clipPath>
			<g class="st7">
				<text transform="matrix(1 0 0 1 53.96 137.2354)" class="st3 st4 st5">4</text>
				<text transform="matrix(1 0 0 1 58.66 137.2354)" class="st3 st4 st5">%</text>
			</g>
		</g>
	</g>
	<g>
		<g>
			<defs>
				<rect id="SVGID_9_" x="11.7" y="79.1" width="418.3" height="175.3"/>
			</defs>
			<clipPath id="SVGID_10_">
				<use xlink:href="#SVGID_9_"  style="overflow:visible;"/>
			</clipPath>
			<g class="st8">
				<text transform="matrix(1 0 0 1 53.7578 155.8604)" class="st3 st4 st5">6</text>
				<text transform="matrix(1 0 0 1 58.4578 155.8604)" class="st3 st4 st5">%</text>
			</g>
		</g>
	</g>
	<g>
		<g>
			<defs>
				<rect id="SVGID_11_" x="11.7" y="79.1" width="418.3" height="175.3"/>
			</defs>
			<clipPath id="SVGID_12_">
				<use xlink:href="#SVGID_11_"  style="overflow:visible;"/>
			</clipPath>
			<g class="st9">
				<text transform="matrix(1 0 0 1 54.084 174.4863)" class="st3 st4 st5">8</text>
				<text transform="matrix(1 0 0 1 57.984 174.4863)" class="st3 st4 st5">%</text>
			</g>
		</g>
	</g>
	<g>
		<g>
			<defs>
				<rect id="SVGID_13_" x="11.7" y="79.1" width="418.3" height="175.3"/>
			</defs>
			<clipPath id="SVGID_14_">
				<use xlink:href="#SVGID_13_"  style="overflow:visible;"/>
			</clipPath>
			<g class="st10">
				<text transform="matrix(1 0 0 1 50.6309 193.8867)" class="st3 st4 st5">1</text>
				<text transform="matrix(1 0 0 1 52.9309 193.8867)" class="st3 st4 st5">0</text>
				<text transform="matrix(1 0 0 1 58.4309 193.8867)" class="st3 st4 st5">%</text>
			</g>
		</g>
	</g>
	<g>
		<g>
			<defs>
				<rect id="SVGID_15_" x="11.7" y="79.1" width="418.3" height="175.3"/>
			</defs>
			<clipPath id="SVGID_16_">
				<use xlink:href="#SVGID_15_"  style="overflow:visible;"/>
			</clipPath>
			<g class="st11">
				<text transform="matrix(1 0 0 1 51.6699 212.5117)" class="st3 st4 st5">1</text>
				<text transform="matrix(1 0 0 1 53.9699 212.5117)" class="st3 st4 st5">2</text>
				<text transform="matrix(1 0 0 1 58.6699 212.5117)" class="st3 st4 st5">%</text>
			</g>
		</g>
	</g>
	<g>
		<g>
			<defs>
				<rect id="SVGID_17_" x="11.7" y="79.1" width="418.3" height="175.3"/>
			</defs>
			<clipPath id="SVGID_18_">
				<use xlink:href="#SVGID_17_"  style="overflow:visible;"/>
			</clipPath>
			<g class="st12">
				<text transform="matrix(1 0 0 1 51.3213 231.1377)" class="st3 st4 st5">1</text>
				<text transform="matrix(1 0 0 1 53.6213 231.1377)" class="st3 st4 st5">4</text>
				<text transform="matrix(1 0 0 1 58.3213 231.1377)" class="st3 st4 st5">%</text>
			</g>
		</g>
	</g>
	<g>
		<g>
			<defs>
				<rect id="SVGID_19_" x="11.7" y="79.1" width="418.3" height="175.3"/>
			</defs>
			<clipPath id="SVGID_20_">
				<use xlink:href="#SVGID_19_"  style="overflow:visible;"/>
			</clipPath>
			<g class="st13">
				<text transform="matrix(1 0 0 1 51.1191 249.7637)" class="st3 st4 st5">1</text>
				<text transform="matrix(1 0 0 1 53.4191 249.7637)" class="st3 st4 st5">6</text>
				<text transform="matrix(1 0 0 1 58.1191 249.7637)" class="st3 st4 st5">%</text>
			</g>
		</g>
	</g>
	<g>
		<g>
			<defs>
				<rect id="SVGID_21_" x="11.7" y="79.1" width="418.3" height="175.3"/>
			</defs>
			<clipPath id="SVGID_22_">
				<use xlink:href="#SVGID_21_"  style="overflow:visible;"/>
			</clipPath>
			<g class="st14">
				<text transform="matrix(-1.224647e-16 -1 1 -1.224647e-16 36.584 223.8252)" class="st3 st4 st15">Percent Change in Costs</text>
			</g>
		</g>
	</g>
	<text transform="matrix(1 0 0 1 151.9648 135.2354)" class="st16 st4 st15">C</text>
	<text transform="matrix(1 0 0 1 157.9648 135.2354)" class="st16 st4 st15">o</text>
	<text transform="matrix(1 0 0 1 163.4648 135.2354)" class="st16 st4 st15">s</text>
	<text transform="matrix(1 0 0 1 167.3648 135.2354)" class="st16 st4 st15">t</text>
	<text transform="matrix(1 0 0 1 170.7648 135.2354)" class="st16 st4 st15"> </text>
	<text transform="matrix(1 0 0 1 173.1648 135.2354)" class="st16 st4 st15">c</text>
	<text transform="matrix(1 0 0 1 177.7648 135.2354)" class="st16 st4 st15">u</text>
	<text transform="matrix(1 0 0 1 183.2648 135.2354)" class="st16 st4 st15">r</text>
	<text transform="matrix(1 0 0 1 186.6648 135.2354)" class="st16 st4 st15">v</text>
	<text transform="matrix(1 0 0 1 191.1648 135.2354)" class="st16 st4 st15">e</text>
	<text transform="matrix(1 0 0 1 196.1648 135.2354)" class="st16 st4 st15"> </text>
	<text transform="matrix(1 0 0 1 198.5648 135.2354)" class="st16 st4 st15">b</text>
	<text transform="matrix(1 0 0 1 204.2648 135.2354)" class="st16 st4 st15">en</text>
	<text transform="matrix(1 0 0 1 214.8648 135.2354)" class="st16 st4 st15">d</text>
	<text transform="matrix(1 0 0 1 220.6648 135.2354)" class="st16 st4 st15">s</text>
	<text transform="matrix(1 0 0 1 224.5648 135.2354)" class="st16 st4 st15"> </text>
	<text transform="matrix(1 0 0 1 226.9648 135.2354)" class="st16 st4 st15">a</text>
	<text transform="matrix(1 0 0 1 231.7648 135.2354)" class="st16 st4 st15">s</text>
	<text transform="matrix(1 0 0 1 235.6648 135.2354)" class="st16 st4 st15"> </text>
	<text transform="matrix(1 0 0 1 238.0648 135.2354)" class="st16 st4 st15">u</text>
	<text transform="matrix(1 0 0 1 243.5648 135.2354)" class="st16 st4 st15">n</text>
	<text transform="matrix(1 0 0 1 249.0648 135.2354)" class="st16 st4 st15">i</text>
	<text transform="matrix(1 0 0 1 251.5648 135.2354)" class="st16 st4 st15">t</text>
	<text transform="matrix(1 0 0 1 254.9648 135.2354)" class="st16 st4 st15"> </text>
	<text transform="matrix(1 0 0 1 257.2648 135.2354)" class="st16 st4 st15">d</text>
	<text transform="matrix(1 0 0 1 263.0648 135.2354)" class="st16 st4 st15">e</text>
	<text transform="matrix(1 0 0 1 268.0648 135.2354)" class="st16 st4 st15">m</text>
	<text transform="matrix(1 0 0 1 276.5648 135.2354)" class="st16 st4 st15">a</text>
	<text transform="matrix(1 0 0 1 281.3648 135.2354)" class="st16 st4 st15">n</text>
	<text transform="matrix(1 0 0 1 286.8648 135.2354)" class="st16 st4 st15">d </text>
	<text transform="matrix(1 0 0 1 184.6621 147.5479)" class="st16 st4 st15">c</text>
	<text transform="matrix(1 0 0 1 189.2621 147.5479)" class="st16 st4 st15">r</text>
	<text transform="matrix(1 0 0 1 192.6621 147.5479)" class="st16 st4 st15">o</text>
	<text transform="matrix(1 0 0 1 198.1621 147.5479)" class="st16 st4 st15">ss</text>
	<text transform="matrix(1 0 0 1 206.0621 147.5479)" class="st16 st4 st15">e</text>
	<text transform="matrix(1 0 0 1 211.1621 147.5479)" class="st16 st4 st15">s</text>
	<text transform="matrix(1 0 0 1 215.0621 147.5479)" class="st16 st4 st15"> </text>
	<text transform="matrix(1 0 0 1 217.4621 147.5479)" class="st16 st4 st15">c</text>
	<text transform="matrix(1 0 0 1 222.0621 147.5479)" class="st16 st4 st15">r</text>
	<text transform="matrix(1 0 0 1 225.4621 147.5479)" class="st16 st4 st15">i</text>
	<text transform="matrix(1 0 0 1 227.8621 147.5479)" class="st16 st4 st15">t</text>
	<text transform="matrix(1 0 0 1 231.2621 147.5479)" class="st16 st4 st15">i</text>
	<text transform="matrix(1 0 0 1 233.7621 147.5479)" class="st16 st4 st15">c</text>
	<text transform="matrix(1 0 0 1 238.3621 147.5479)" class="st16 st4 st15">al</text>
	<text transform="matrix(1 0 0 1 245.9621 147.5479)" class="st16 st4 st15"> </text>
	<text transform="matrix(1 0 0 1 248.3621 147.5479)" class="st16 st4 st15">t</text>
	<text transform="matrix(1 0 0 1 251.7621 147.5479)" class="st16 st4 st15">h</text>
	<text transform="matrix(1 0 0 1 257.2621 147.5479)" class="st16 st4 st15">r</text>
	<text transform="matrix(1 0 0 1 260.6621 147.5479)" class="st16 st4 st15">e</text>
	<text transform="matrix(1 0 0 1 265.6621 147.5479)" class="st16 st4 st15">s</text>
	<text transform="matrix(1 0 0 1 269.6621 147.5479)" class="st16 st4 st15">h</text>
	<text transform="matrix(1 0 0 1 275.1621 147.5479)" class="st16 st4 st15">o</text>
	<text transform="matrix(1 0 0 1 280.6621 147.5479)" class="st16 st4 st15">l</text>
	<text transform="matrix(1 0 0 1 283.4621 147.5479)" class="st16 st4 st15">d</text>
	<text transform="matrix(1 0 0 1 289.1621 147.5479)" class="st16 st4 st15">s</text>
	<text transform="matrix(1 0 0 1 293.1621 147.5479)" class="st16 st4 st15">.</text>
	<text transform="matrix(1 0 0 1 197.166 195.4229)" class="st16 st4 st15">C</text>
	<text transform="matrix(1 0 0 1 203.166 195.4229)" class="st16 st4 st15">o</text>
	<text transform="matrix(1 0 0 1 208.666 195.4229)" class="st16 st4 st15">s</text>
	<text transform="matrix(1 0 0 1 212.566 195.4229)" class="st16 st4 st15">t</text>
	<text transform="matrix(1 0 0 1 215.966 195.4229)" class="st16 st4 st15"> </text>
	<text transform="matrix(1 0 0 1 218.366 195.4229)" class="st16 st4 st15">d</text>
	<text transform="matrix(1 0 0 1 224.066 195.4229)" class="st16 st4 st15">e</text>
	<text transform="matrix(1 0 0 1 229.166 195.4229)" class="st16 st4 st15">c</text>
	<text transform="matrix(1 0 0 1 233.766 195.4229)" class="st16 st4 st15">l</text>
	<text transform="matrix(1 0 0 1 236.566 195.4229)" class="st16 st4 st15">i</text>
	<text transform="matrix(1 0 0 1 239.066 195.4229)" class="st16 st4 st15">ne</text>
	<text transform="matrix(1 0 0 1 249.566 195.4229)" class="st16 st4 st15">s</text>
	<text transform="matrix(1 0 0 1 253.566 195.4229)" class="st16 st4 st15"> </text>
	<text transform="matrix(1 0 0 1 255.966 195.4229)" class="st16 st4 st15">c</text>
	<text transform="matrix(1 0 0 1 260.566 195.4229)" class="st16 st4 st15">o</text>
	<text transform="matrix(1 0 0 1 266.066 195.4229)" class="st16 st4 st15">m</text>
	<text transform="matrix(1 0 0 1 274.466 195.4229)" class="st16 st4 st15">po</text>
	<text transform="matrix(1 0 0 1 285.766 195.4229)" class="st16 st4 st15">u</text>
	<text transform="matrix(1 0 0 1 291.266 195.4229)" class="st16 st4 st15">n</text>
	<text transform="matrix(1 0 0 1 296.766 195.4229)" class="st16 st4 st15">d</text>
	<text transform="matrix(1 0 0 1 302.466 195.4229)" class="st16 st4 st15"> </text>
	<text transform="matrix(1 0 0 1 304.866 195.4229)" class="st16 st4 st15">a</text>
	<text transform="matrix(1 0 0 1 309.666 195.4229)" class="st16 st4 st15">s</text>
	<text transform="matrix(1 0 0 1 313.666 195.4229)" class="st16 st4 st15"> </text>
	<text transform="matrix(1 0 0 1 184.8721 206.7363)" class="st16 st4 st15">p</text>
	<text transform="matrix(1 0 0 1 190.5721 206.7363)" class="st16 st4 st15">r</text>
	<text transform="matrix(1 0 0 1 193.9721 206.7363)" class="st16 st4 st15">od</text>
	<text transform="matrix(1 0 0 1 205.2721 206.7363)" class="st16 st4 st15">u</text>
	<text transform="matrix(1 0 0 1 210.7721 206.7363)" class="st16 st4 st15">ct</text>
	<text transform="matrix(1 0 0 1 218.7721 206.7363)" class="st16 st4 st15">io</text>
	<text transform="matrix(1 0 0 1 226.6721 206.7363)" class="st16 st4 st15">n</text>
	<text transform="matrix(1 0 0 1 232.2721 206.7363)" class="st16 st4 st15"> </text>
	<text transform="matrix(1 0 0 1 234.5721 206.7363)" class="st16 st4 st15">g</text>
	<text transform="matrix(1 0 0 1 239.4721 206.7363)" class="st16 st4 st15">r</text>
	<text transform="matrix(1 0 0 1 242.8721 206.7363)" class="st16 st4 st15">o</text>
	<text transform="matrix(1 0 0 1 248.3721 206.7363)" class="st16 st4 st15">w</text>
	<text transform="matrix(1 0 0 1 255.2721 206.7363)" class="st16 st4 st15">t</text>
	<text transform="matrix(1 0 0 1 258.6721 206.7363)" class="st16 st4 st15">h</text>
	<text transform="matrix(1 0 0 1 264.1721 206.7363)" class="st16 st4 st15"> </text>
	<text transform="matrix(1 0 0 1 266.5721 206.7363)" class="st16 st4 st15">a</text>
	<text transform="matrix(1 0 0 1 271.3721 206.7363)" class="st16 st4 st15">cc</text>
	<text transform="matrix(1 0 0 1 280.5721 206.7363)" class="st16 st4 st15">e</text>
	<text transform="matrix(1 0 0 1 285.6721 206.7363)" class="st16 st4 st15">l</text>
	<text transform="matrix(1 0 0 1 288.4721 206.7363)" class="st16 st4 st15">e</text>
	<text transform="matrix(1 0 0 1 293.5721 206.7363)" class="st16 st4 st15">r</text>
	<text transform="matrix(1 0 0 1 296.9721 206.7363)" class="st16 st4 st15">at</text>
	<text transform="matrix(1 0 0 1 305.1721 206.7363)" class="st16 st4 st15">e</text>
	<text transform="matrix(1 0 0 1 310.1721 206.7363)" class="st16 st4 st15">s</text>
	<text transform="matrix(1 0 0 1 314.1721 206.7363)" class="st16 st4 st15">.</text>
	<path class="st16" d="M332.8,204.5l-1.3,6.2l-4.8-4.2c-0.2-0.2-0.3-0.6,0-0.8c0.2-0.2,0.6-0.3,0.8,0l4,3.6l-1,0.3l1.1-5.3
		c0.1-0.3,0.4-0.5,0.7-0.4C332.7,203.9,332.9,204.2,332.8,204.5z M322.9,182.8l8.7,26.7l-1.1,0.4l-8.7-26.7L322.9,182.8z"/>
	<path class="st16" d="M301,130.7l-0.1-0.2l1.2,1.7l-0.2-0.2l1.7,1.2l-0.2-0.1l2.1,0.4h-0.2l2.1-0.4l-0.2,0.1l1.7-1.2l-0.2,0.2
		l1.2-1.7l-0.1,0.2l0.4-2.1v0.2l-0.4-2.1l0.1,0.2l-1.2-1.7l0.2,0.2l-1.7-1.2l0.2,0.1l-2.1-0.4h0.2l-2.1,0.4l0.2-0.1l-1.7,1.2
		l0.2-0.2l-1.2,1.7l0.1-0.2l-0.4,2.1v-0.2L301,130.7z M299.4,128.7l0.5-2.3l1.3-1.9l1.9-1.3l2.3-0.5l2.3,0.5l1.9,1.3l1.3,1.9
		l0.5,2.3L311,131l-1.3,1.9l-1.9,1.3l-2.3,0.5l-2.3-0.5l-1.9-1.3L300,131L299.4,128.7z"/>
	<text transform="matrix(1 0 0 1 47.8291 118.6094)" class="st3 st4 st5">-</text>
	<text transform="matrix(1 0 0 1 47.8291 137.2354)" class="st3 st4 st5">-</text>
	<text transform="matrix(1 0 0 1 47.8291 155.8604)" class="st3 st4 st5">-</text>
	<text transform="matrix(1 0 0 1 47.8291 175.2627)" class="st3 st4 st5">-</text>
	<text transform="matrix(1 0 0 1 44.7412 193.8867)" class="st3 st4 st5">-</text>
	<text transform="matrix(1 0 0 1 44.7412 212.5117)" class="st3 st4 st5">-</text>
	<text transform="matrix(1 0 0 1 44.7412 231.1377)" class="st3 st4 st5">-</text>
	<text transform="matrix(1 0 0 1 44.7412 249.7637)" class="st3 st4 st5">-</text>
	<rect x="73.4" y="51" class="st17" width="273.1" height="56.9"/>
	<text transform="matrix(1 0 0 1 117.6013 59.5957)" class="st16 st18 st19">Cost Decline Under Wright’s Law </text>
	<text transform="matrix(1 0 0 1 140.8013 73.9957)" class="st16 st4 st19">(Including Tipping Point)</text>
</g>
<g id="Layer_2_1_">
</g>
</svg>
