<?xml version="1.0" encoding="utf-8"?>
<!-- Generator: Adobe Illustrator 24.1.0, SVG Export Plug-In . SVG Version: 6.00 Build 0)  -->
<svg version="1.1" id="Layer_1" xmlns="http://www.w3.org/2000/svg" xmlns:xlink="http://www.w3.org/1999/xlink" x="0px" y="0px"
	 viewBox="0 0 105.1 129.7" style="enable-background:new 0 0 105.1 129.7;" xml:space="preserve">
<style type="text/css">
	.st0{fill:none;stroke:#8264FF;stroke-width:3;stroke-linecap:round;stroke-linejoin:round;stroke-miterlimit:10;}
	.st1{fill:none;stroke:#8264FF;stroke-width:2;stroke-linecap:round;stroke-linejoin:round;stroke-miterlimit:10;}
	.st2{fill:none;stroke:#C1B1FF;stroke-width:2;stroke-linecap:round;stroke-linejoin:round;stroke-miterlimit:10;}
</style>
<g>
	<polyline class="st0" points="76.1,9.3 95.9,9.3 95.9,120.4 9.2,120.4 9.2,9.3 56,9.3 	"/>
	<polyline class="st1" points="84.6,54.3 84.6,62.7 71.2,62.7 71.2,45.4 84.6,45.4 84.6,49 	"/>
	<line class="st1" x1="70" y1="69" x2="85.9" y2="69"/>
	<g>
		<line class="st1" x1="21.2" y1="45.1" x2="56" y2="45.1"/>
		<line class="st1" x1="21.2" y1="53.1" x2="56" y2="53.1"/>
		<line class="st1" x1="21.2" y1="61.1" x2="56" y2="61.1"/>
		<line class="st1" x1="21.2" y1="69" x2="56" y2="69"/>
	</g>
	<polyline class="st2" points="34.5,33.8 21.1,33.8 21.1,18.8 86.6,18.8 86.6,33.8 40.3,33.8 	"/>
	<g>
		<line class="st2" x1="81.2" y1="108.8" x2="81.2" y2="87.9"/>
		<line class="st2" x1="74.5" y1="108.8" x2="74.5" y2="91.3"/>
		<line class="st2" x1="67.7" y1="108.8" x2="67.7" y2="95.4"/>
		<line class="st2" x1="61" y1="108.8" x2="61" y2="99.2"/>
		<line class="st1" x1="56" y1="108.8" x2="86.6" y2="108.8"/>
	</g>
	<g>
		<path class="st1" d="M47.9,95.9c0,7.4-6,13.4-13.4,13.4s-13.4-6-13.4-13.4s6-13.4,13.4-13.4"/>
		<polyline class="st1" points="47.9,95.9 34.5,95.9 34.5,82.5 		"/>
		<path class="st2" d="M39.7,77.9c3.4,0,6.5,1.3,8.9,3.4c2.8,2.5,4.5,6,4.5,10"/>
		<polyline class="st2" points="53.1,91.3 39.7,91.3 39.7,77.9 		"/>
	</g>
	<g>
		<line class="st1" x1="48.9" y1="26.3" x2="58.8" y2="26.3"/>
		<line class="st1" x1="31.5" y1="26.3" x2="41.3" y2="26.3"/>
		<line class="st1" x1="66.4" y1="26.3" x2="76.2" y2="26.3"/>
	</g>
</g>
</svg>
