<?xml version="1.0" encoding="utf-8"?>
<!-- Generator: Adobe Illustrator 24.1.0, SVG Export Plug-In . SVG Version: 6.00 Build 0)  -->
<svg version="1.1" id="Layer_1_copy" xmlns="http://www.w3.org/2000/svg" xmlns:xlink="http://www.w3.org/1999/xlink" x="0px"
	 y="0px" viewBox="0 0 420 270" style="enable-background:new 0 0 420 270;" xml:space="preserve">
<style type="text/css">
	.st0{fill:#DEE0E6;}
	.st1{fill:none;}
	.st2{fill:#111123;}
	.st3{font-family:'Brother-1816-Bold';}
	.st4{font-size:12px;}
	.st5{fill:none;stroke:#0A0A23;stroke-width:2;stroke-linecap:round;stroke-linejoin:round;stroke-miterlimit:10;}
	.st6{fill:none;stroke:#0A0A23;stroke-linecap:round;stroke-linejoin:round;stroke-miterlimit:10;}
	.st7{fill:#0A0A23;stroke:#0A0A23;stroke-width:0.5;stroke-miterlimit:10;}
	.st8{fill:none;stroke:#8264FF;stroke-width:1.2;stroke-linecap:round;stroke-linejoin:round;stroke-miterlimit:10;}
	.st9{fill:none;stroke:#C1B1FF;stroke-width:1.3796;stroke-linecap:round;stroke-miterlimit:10;}
	.st10{fill:none;stroke:#6856D6;stroke-width:1.3796;stroke-linecap:round;stroke-linejoin:round;stroke-miterlimit:10;}
	.st11{fill:none;stroke:#6856D6;stroke-width:1.7047;stroke-linecap:round;stroke-linejoin:round;stroke-miterlimit:10;}
	.st12{fill:none;stroke:#C1B1FF;stroke-width:1.3796;stroke-miterlimit:10;}
	.st13{fill:none;stroke:#6856D6;stroke-width:1.7047;stroke-miterlimit:10;}
	.st14{fill:none;stroke:#6856D6;stroke-width:1.0786;stroke-linecap:round;stroke-linejoin:round;stroke-miterlimit:10;}
	.st15{fill:none;stroke:#8264FF;stroke-width:0.115;stroke-linecap:round;stroke-linejoin:round;stroke-miterlimit:10;}
	.st16{fill:none;stroke:#C1B1FF;stroke-width:0.8393;stroke-linecap:round;stroke-linejoin:round;stroke-miterlimit:10;}
	.st17{fill:none;stroke:#6856D6;stroke-width:1.6786;stroke-linecap:round;stroke-linejoin:round;stroke-miterlimit:10;}
	.st18{fill:none;stroke:#8264FF;stroke-width:1.3676;stroke-linecap:round;stroke-linejoin:round;stroke-miterlimit:10;}
	.st19{fill:none;stroke:#6856D6;stroke-width:0.8393;stroke-linecap:round;stroke-linejoin:round;stroke-miterlimit:10;}
	.st20{fill:none;stroke:#6856D6;stroke-width:0.9117;stroke-linecap:round;stroke-linejoin:round;stroke-miterlimit:10;}
	.st21{fill:none;stroke:#C1B1FF;stroke-width:0.9117;stroke-miterlimit:10;}
	.st22{fill:#6856D6;}
	.st23{fill:none;stroke:#6856D6;stroke-width:1.72;stroke-linecap:round;stroke-linejoin:round;stroke-miterlimit:10;}
	.st24{fill:none;stroke:#C1B1FF;stroke-miterlimit:10;}
	.st25{fill:none;stroke:#6856D6;stroke-width:1.3738;stroke-linecap:round;stroke-linejoin:round;stroke-miterlimit:10;}
	.st26{fill:none;stroke:#C1B1FF;stroke-width:0.9159;stroke-miterlimit:10;}
	.st27{fill:none;stroke:#6856D6;stroke-width:1.3738;stroke-miterlimit:10;}
	.st28{fill:none;stroke:#8264FF;stroke-width:1.3738;stroke-linecap:round;stroke-linejoin:round;stroke-miterlimit:10;}
	.st29{fill:none;stroke:#6856D6;stroke-width:1.1852;stroke-linecap:round;stroke-linejoin:round;stroke-miterlimit:10;}
	.st30{fill:none;stroke:#C1B1FF;stroke-width:1.3234;stroke-linecap:round;stroke-linejoin:round;stroke-miterlimit:10;}
</style>
<rect y="253" class="st0" width="420" height="3"/>
<rect x="73.4" y="31" class="st1" width="273.1" height="56.9"/>
<text transform="matrix(1 0 0 1 114.5773 39.5957)" class="st2 st3 st4">New Innovation and Technologies </text>
<text transform="matrix(1 0 0 1 116.9773 53.9957)" class="st2 st3 st4">Thanks to Battery Breakthroughs</text>
<g>
	<polyline class="st5" points="238,141.5 238,131.6 226.1,122.9 	"/>
	<line class="st5" x1="193.9" y1="102.4" x2="181.6" y2="93.2"/>
	<circle class="st5" cx="238" cy="145.5" r="3.9"/>
	<g>
		<polyline class="st5" points="194.3,95.2 188.4,90.8 188.4,76.8 		"/>
		<circle class="st5" cx="188" cy="72.9" r="3.9"/>
		<circle class="st5" cx="172" cy="72.9" r="3.9"/>
		<polyline class="st5" points="188.4,83.2 177,83.2 173.5,76.8 		"/>
	</g>
	<path class="st5" d="M225.5,94.3v44.4c0,1.6-1.3,2.8-2.8,2.8h-25.5c-1.6,0-2.8-1.3-2.8-2.8v-24v-2.3V94.3c0-1.6,1.3-2.8,2.8-2.8
		h3.3v-5.2c0-0.7,0.5-1.2,1.2-1.2h16.6c0.7,0,1.2,0.5,1.2,1.2v5.2h3.3C224.2,91.5,225.5,92.7,225.5,94.3z"/>
	<line class="st6" x1="198.9" y1="135.9" x2="220.3" y2="135.9"/>
	<line class="st6" x1="198.8" y1="130.5" x2="220.2" y2="130.5"/>
	<path class="st7" d="M215.6,112.9l-5,8.9c-0.5,0.9-1.6,0.5-1.6-0.5l-0.1-8.4c0-0.5-0.5-1-0.9-1h-3.1c-0.7,0-1.2-0.9-0.7-1.5
		l5.2-9.3c0.5-0.8,1.6-0.5,1.6,0.5l0.2,8.7c0,0.5,0.5,1,0.9,1h2.7C215.5,111.4,215.9,112.3,215.6,112.9z"/>
</g>
<g>
	<g>
		<polyline class="st8" points="205.2,170.2 210.1,175.2 215,170.2 		"/>
		<line class="st8" x1="210.1" y1="157.2" x2="210.1" y2="174.4"/>
	</g>
	<g>
		<polyline class="st8" points="144.2,165.4 144.1,171.5 150.6,171.5 		"/>
		<line class="st8" x1="155.6" y1="160.1" x2="144.7" y2="171"/>
	</g>
	<g>
		<polyline class="st8" points="83.1,165.4 83.1,171.5 89.5,171.5 		"/>
		<line class="st8" x1="94.6" y1="160.1" x2="83.7" y2="171"/>
	</g>
	<g>
		<polyline class="st8" points="276,165.4 276,171.7 269.7,171.7 		"/>
		<line class="st8" x1="264.6" y1="160.3" x2="275.5" y2="171.2"/>
	</g>
	<g>
		<polyline class="st8" points="336.9,165.4 336.9,171.7 330.7,171.7 		"/>
		<line class="st8" x1="325.6" y1="160.3" x2="336.4" y2="171.2"/>
	</g>
</g>
<g>
	<g>
		<path class="st9" d="M270.3,207.2c-0.3-1.3-1.6-2.1-2.9-1.8"/>
		<path class="st9" d="M283.3,196.9c-0.3-1.3-1.6-2.1-2.9-1.8"/>
		<line class="st10" x1="269.5" y1="225.9" x2="274.7" y2="225.9"/>
		<g>
			<polyline class="st11" points="271.7,193.6 268.4,189.8 266,189.9 			"/>
			<circle class="st11" cx="264.6" cy="189.8" r="1.3"/>
		</g>
		<ellipse class="st12" cx="269.5" cy="212.5" rx="2.4" ry="2.4"/>
		<path class="st9" d="M277.9,202.4c-1-0.2-1.7-1.3-1.5-2.3c0.2-1.1,1.3-1.7,2.3-1.5"/>
		<path class="st9" d="M269.2,199.9c0.5,0.9,1.6,1.1,2.5,0.6s0.7-1.4,0.7-2.4c0.2-2.4,3.3-1.8,3.3-1.8"/>
		<ellipse class="st13" cx="269.5" cy="212.5" rx="4.7" ry="4.7"/>
		<g>
			<line class="st11" x1="265.4" y1="196.9" x2="259.9" y2="196.9"/>
			<circle class="st11" cx="258.4" cy="196.9" r="1.3"/>
		</g>
		<g>
			<line class="st11" x1="264.2" y1="204.5" x2="260.9" y2="204.6"/>
			<circle class="st11" cx="259.5" cy="204.5" r="1.3"/>
		</g>
		<line class="st11" x1="273.3" y1="207" x2="272" y2="208.2"/>
		<path class="st11" d="M265.1,209.6c0,0-4.1-5.1,2.3-7.1c0,0-1.5-1.4-1.8-3.3c-0.3-2.2,0.6-6,6.8-5.2c0,0,0.5-1.6,1.5-2.3
			c0.7-0.5,1.6-0.8,2.2-0.9c0.4,0,1.3,0,1.8,0.2c0.7,0.3,1.3,0.7,2.2,1.5c0,0,3.7-2.6,6.8,1.7l-11.8,11"/>
		<polyline class="st11" points="269.5,217.2 269.5,228.8 282.9,228.9 282.9,226.3 		"/>
		<path class="st11" d="M273.8,210.6c0,0,5.5-2.1,5.5,8.6c0,0,10.4,3.5,11.9,3.5s1.7-1.1,1.7-1.1v-5.2v-0.7c0,0,2.7-0.6,2.9-1.4
			c0.2-0.7-4.5-6.1-4.1-7.7c0.4-1.4,1.2-8.2-4.8-12.4"/>
		<path class="st11" d="M291.3,206.7H289l-0.7-1.8c0,0-6.5,1.1-8.7,3.6h-7.1"/>
		<circle class="st14" cx="287.5" cy="208.5" r="1"/>
		<path class="st10" d="M269.8,220.5h3.6c0.7,0,1.3,0.6,1.3,1.4c0,0.8-0.6,1.4-1.3,1.4h-3.6"/>
		<path class="st15" d="M275,228.5"/>
		<path class="st15" d="M275,222.1"/>
	</g>
	<g>
		<g>
			<polyline class="st16" points="57.4,193 47.3,193 47.3,222 52.8,222 			"/>
			<polyline class="st16" points="56.2,222 66.3,222 66.3,193 60.8,193 			"/>
		</g>
		<g>
			<path class="st17" d="M58.6,231.2h7.2c2.2,0,4-1.8,4-4v-5.4v-2v-19.2V190c0-2.2-1.8-4-4-4h-18c-2.2,0-4,1.8-4,4v5.4v20.5v11.4
				c0,2.2,1.8,4,4,4H55h3.9"/>
			<path class="st18" d="M69.8,220.9"/>
			<line class="st19" x1="43.8" y1="190.6" x2="69.8" y2="190.6"/>
			<line class="st17" x1="43.8" y1="225.5" x2="69.8" y2="225.5"/>
			<line class="st20" x1="55.5" y1="188.5" x2="58.9" y2="188.5"/>
			<line class="st20" x1="52.9" y1="188.5" x2="51.4" y2="188.5"/>
			<circle class="st21" cx="56.8" cy="228.2" r="1.2"/>
		</g>
	</g>
	<g>
		<g>
			<path class="st22" d="M131.1,208.8l-2.5,4.5c-0.2,0.4-0.8,0.2-0.8-0.3v-4.2c0-0.3-0.2-0.5-0.5-0.5h-1.6c-0.4,0-0.6-0.4-0.4-0.8
				l2.6-4.7c0.2-0.4,0.8-0.2,0.8,0.3l0.1,4.4c0,0.3,0.2,0.5,0.5,0.5h1.4C131,208.1,131.3,208.5,131.1,208.8z"/>
			<g>
				<polyline class="st23" points="136.7,187.8 143.5,187.8 149.4,221.5 				"/>
				<circle class="st23" cx="149.7" cy="225.3" r="3.8"/>
				<circle class="st23" cx="112.6" cy="225" r="3.8"/>
				<polyline class="st23" points="120.6,226.5 136.7,226.5 147.2,208.9 				"/>
				<path class="st23" d="M104.5,224.6c0.2-4.5,4-7.9,8.4-7.7c4.5,0.2,7.9,5.2,7.7,9.6l-4.4-0.6"/>
				<line class="st23" x1="138.6" y1="223.3" x2="120.1" y2="223"/>
				<path class="st23" d="M142.7,225.9c-0.6-3.7,2.4-6.8,6-8.1"/>
			</g>
		</g>
		<circle class="st24" cx="128.2" cy="208.1" r="7.5"/>
	</g>
	<g>
		<polyline class="st17" points="195.5,193.8 195.5,192.9 196.7,192.9 		"/>
		<polyline class="st17" points="223.3,192.9 224.1,192.9 224.1,193.8 		"/>
		<polyline class="st17" points="195.5,220.5 195.5,221.5 196.7,221.5 		"/>
		<polyline class="st17" points="224.1,220.5 224.1,221.5 223.3,221.5 		"/>
		<path class="st16" d="M190.4,186.3c1.4-1.1,3.2-1.7,5.1-1.7c4.6,0,8.4,3.8,8.4,8.4s-3.8,8.4-8.4,8.4s-8.4-3.8-8.4-8.4
			c0-1.8,0.5-3.4,1.5-4.7"/>
		<path class="st16" d="M231.6,189.2c0.6,1.1,0.9,2.4,0.9,3.8c0,4.6-3.8,8.4-8.4,8.4s-8.4-3.8-8.4-8.4s3.8-8.4,8.4-8.4
			c2.3,0,4.4,0.9,5.9,2.5"/>
		<path class="st16" d="M229.4,228c-1.4,1.2-3.3,1.9-5.3,1.9c-4.6,0-8.4-3.8-8.4-8.4s3.8-8.4,8.4-8.4s8.4,3.8,8.4,8.4
			c0,1.8-0.6,3.4-1.5,4.8"/>
		<path class="st16" d="M188.8,226.4c-1-1.4-1.6-3.1-1.6-5c0-4.6,3.8-8.4,8.4-8.4s8.4,3.8,8.4,8.4s-3.8,8.4-8.4,8.4
			c-1.8,0-3.5-0.6-4.9-1.6"/>
		<g>
			<line class="st17" x1="193.8" y1="194.7" x2="191.8" y2="196.7"/>
			<line class="st17" x1="199.3" y1="189.2" x2="197.4" y2="191.1"/>
		</g>
		<g>
			<line class="st17" x1="197.3" y1="223.2" x2="199.3" y2="225.2"/>
			<line class="st17" x1="191.8" y1="217.7" x2="193.6" y2="219.6"/>
		</g>
		<g>
			<line class="st17" x1="225.8" y1="219.7" x2="227.8" y2="217.7"/>
			<line class="st17" x1="220.3" y1="225.2" x2="222.2" y2="223.4"/>
		</g>
		<g>
			<line class="st17" x1="225.8" y1="194.7" x2="227.8" y2="196.7"/>
			<line class="st17" x1="220.3" y1="189.2" x2="222.2" y2="191.1"/>
		</g>
		<path class="st17" d="M211.2,204.2"/>
		<rect x="207.6" y="206" class="st17" width="4.9" height="2.4"/>
		<path class="st17" d="M194.8,192.1c0.2,0.6,0.5,1.1,0.7,1.7c1.9,3.6,5.1,6.5,8.9,7.8l0,0c1.7,0.6,3.4,0.9,5.3,0.9
			c2,0,4-0.4,5.8-1.1c3.7-1.4,6.7-4.2,8.5-7.7c0.3-0.5,0.5-1,0.7-1.5"/>
		<path class="st17" d="M224.8,222.1c-0.2-0.6-0.5-1.1-0.7-1.7c-1.8-3.5-4.8-6.3-8.5-7.7c-1.8-0.7-3.7-1.1-5.7-1.1
			c-1.8,0-3.6,0.3-5.3,0.9c-3.9,1.4-7.1,4.2-9,7.9c-0.3,0.6-0.6,1.2-0.8,1.8"/>
		<path class="st17" d="M224.7,192.3c-0.5,0.2-1,0.4-1.5,0.7c-3.5,1.8-6.3,4.8-7.7,8.5l0,0c-0.7,1.8-1.1,3.7-1.1,5.7s0.4,3.8,1,5.6
			c1.4,3.8,4.2,6.9,7.7,8.7c0.5,0.3,1,0.5,1.5,0.7"/>
		<path class="st17" d="M194.7,222.3c0.7-0.2,1.4-0.5,2-0.9c3.6-1.8,6.4-5,7.8-8.8c0.6-1.7,0.9-3.5,0.9-5.4c0-2-0.4-3.8-1-5.6
			c-1.4-3.8-4.2-6.9-7.8-8.7c-0.6-0.3-1.3-0.6-1.9-0.8"/>
	</g>
	<g>
		<g>
			<line class="st25" x1="321.7" y1="230.4" x2="375.9" y2="230.4"/>
			<g>
				<ellipse class="st26" cx="332.5" cy="225.6" rx="2.5" ry="2.5"/>
				<ellipse class="st27" cx="332.5" cy="225.6" rx="4.6" ry="4.6"/>
			</g>
			<g>
				<ellipse class="st26" cx="363.5" cy="225.6" rx="2.5" ry="2.5"/>
				<ellipse class="st27" cx="363.5" cy="225.6" rx="4.6" ry="4.6"/>
			</g>
			<g>
				<line class="st25" x1="339.9" y1="224.5" x2="355.7" y2="224.5"/>
				<polyline class="st25" points="323.5,219.9 323.5,214.1 335,214.1 				"/>
				<polyline class="st25" points="326.5,219.9 321.4,219.9 323.5,225 325.2,225 				"/>
				<line class="st25" x1="331.1" y1="217" x2="331.1" y2="214.1"/>
				<polyline class="st25" points="370.4,224.5 372.3,224.5 376.2,222.8 376.2,217.9 				"/>
				<path class="st28" d="M342.7,207.5"/>
				<path class="st28" d="M357.7,213.3"/>
				<polyline class="st25" points="360.4,217.9 376.2,217.9 373.5,216 357.7,213.3 349.3,207.5 338.9,207.5 				"/>
				<polyline class="st25" points="323.5,214.1 326.5,212.8 338.9,207.5 				"/>
			</g>
			<path class="st29" d="M358,213.5h-12.8c-1.4,0-2.8-0.4-3.9-1.2l-1.8-1.2"/>
			<line class="st30" x1="340.7" y1="217" x2="345.4" y2="217"/>
		</g>
		<g>
			<g>
				<path class="st22" d="M351.6,194.8l-2.5,4.5c-0.2,0.4-0.8,0.2-0.8-0.3v-4.2c0-0.3-0.2-0.5-0.5-0.5h-1.6c-0.4,0-0.6-0.4-0.4-0.8
					l2.6-4.7c0.2-0.4,0.8-0.2,0.8,0.3l0.1,4.4c0,0.3,0.2,0.5,0.5,0.5h1.4C351.6,194,351.8,194.5,351.6,194.8z"/>
			</g>
			<circle class="st24" cx="348.7" cy="194.1" r="7.5"/>
		</g>
	</g>
</g>
</svg>
