<?xml version="1.0" encoding="utf-8"?>
<!-- Generator: Adobe Illustrator 24.1.1, SVG Export Plug-In . SVG Version: 6.00 Build 0)  -->
<svg version="1.1" id="Слой_1" xmlns="http://www.w3.org/2000/svg" xmlns:xlink="http://www.w3.org/1999/xlink" x="0px" y="0px"
	 viewBox="0 0 130 130" style="enable-background:new 0 0 130 130;" xml:space="preserve">
<style type="text/css">
	.st0{fill:#8264FF;}
	.st1{fill:none;stroke:#C1B1FF;stroke-width:3.0522;stroke-linecap:round;stroke-miterlimit:10;}
	.st2{fill:#C1B1FF;}
	.st3{fill:none;stroke:#8264FF;stroke-width:2.6001;stroke-linecap:round;stroke-linejoin:round;stroke-miterlimit:10;}
	.st4{fill:none;stroke:#8264FF;stroke-width:2.9029;stroke-linecap:round;stroke-linejoin:round;stroke-miterlimit:10;}
</style>
<g>
	<g>
		<circle class="st0" cx="97.3" cy="32.3" r="6.2"/>
		<path class="st1" d="M127,29.7c0-15.1-12.2-27.3-27.3-27.3"/>
		<path class="st1" d="M118.6,30.7c0-11-8.9-19.8-19.8-19.8"/>
		<path class="st1" d="M110.4,31.7c0-7-5.7-12.7-12.7-12.7"/>
	</g>
	<path class="st2" d="M62.4,69.4c-0.9,0-1.6,0.7-1.6,1.6v4.8v3.8v4.8c0,0.9,0.7,1.6,1.6,1.6c0.9,0,1.6-0.7,1.6-1.6v-4.8v-3.8V71
		C64,70.1,63.3,69.4,62.4,69.4z"/>
	<path class="st2" d="M52.3,69.9c-0.7-0.3-1.4-0.5-2.2-0.5c-3,0-5.4,2.4-5.4,5.4v1v3.8v1c0,3,2.4,5.4,5.4,5.4c0.8,0,1.5-0.2,2.2-0.5
		c1.9-0.8,3.2-2.7,3.2-4.9v-5.7C55.5,72.6,54.2,70.7,52.3,69.9z M52.4,80.5c0,0.2,0,0.3-0.1,0.5c-0.1,0.2-0.2,0.5-0.3,0.7
		c-0.1,0.2-0.3,0.4-0.5,0.5c-0.4,0.3-0.9,0.5-1.4,0.5c-1.2,0-2.2-1-2.2-2.2v-1v-3.8v-1c0-1.2,1-2.2,2.2-2.2c0.5,0,1,0.2,1.4,0.5
		c0.2,0.2,0.4,0.3,0.5,0.5c0.1,0.2,0.2,0.4,0.3,0.7c0,0.2,0.1,0.3,0.1,0.5V80.5z"/>
	<path class="st2" d="M76.9,75.8v3.8v1c0,0.6-0.2,1.1-0.6,1.5c-0.1,0.1-0.2,0.2-0.3,0.3c-0.3,0.2-0.7,0.4-1.1,0.4
		c-0.1,0-0.2,0-0.2,0c-0.3,0-0.6-0.1-0.9-0.2c-0.3-0.1-0.5-0.3-0.7-0.5c-0.2-0.2-0.4-0.4-0.5-0.7c-0.1-0.3-0.2-0.6-0.2-0.9v-5.7
		c0-0.3,0.1-0.6,0.2-0.9c0.1-0.3,0.3-0.5,0.5-0.7c0.2-0.2,0.4-0.4,0.7-0.5c0.3-0.1,0.6-0.2,0.9-0.2c0.1,0,0.2,0,0.2,0
		c0.4,0,0.8,0.2,1.1,0.4c0.1,0.1,0.2,0.2,0.3,0.3c0.4,0.4,0.6,0.9,0.6,1.5V75.8z M80.1,76.6v-0.8v-1c0-2.9-2.3-5.3-5.2-5.4
		c-0.1,0-0.2,0-0.3,0c-1.3,0-2.6,0.5-3.5,1.3c-1.1,1-1.8,2.4-1.8,4.1v1v3.8v1c0,1.6,0.7,3.1,1.8,4.1c1,0.8,2.2,1.3,3.5,1.3
		c0.1,0,0.2,0,0.3,0c0.9-0.1,1.8-0.3,2.6-0.8L80.1,76.6z"/>
	<path class="st2" d="M37.9,69.4c0,0-0.1,0-0.1,0c-0.8,0.1-1.5,0.7-1.5,1.6v13.3c0,0.8,0.6,1.5,1.5,1.6c0,0,0.1,0,0.1,0
		c0.9,0,1.6-0.7,1.6-1.6v-4.8v-3.8V71C39.5,70.1,38.8,69.4,37.9,69.4z"/>
	<path class="st2" d="M25.6,69.4c0,0-0.1,0-0.1,0c-0.3,1.1-0.5,2.2-0.7,3.3c0.3-0.1,0.5-0.2,0.8-0.2c0.6,0,1.2,0.3,1.6,0.6
		c0.2,0.2,0.4,0.4,0.5,0.7s0.2,0.6,0.2,0.9v5.7c0,0.3-0.1,0.6-0.2,0.9c-0.1,0.3-0.3,0.5-0.5,0.7c-0.4,0.4-1,0.7-1.6,0.7
		c-0.1,0-0.3,0-0.4,0c0.3,1.1,0.6,2.1,0.9,3.2c2.7-0.3,4.9-2.6,4.9-5.4v-5.7C31,71.8,28.6,69.4,25.6,69.4z M20.2,74.8v5.7
		c0,0.2,0,0.3,0,0.5h3.2c0-0.1,0-0.3,0-0.5v-5.7c0-0.3,0.1-0.6,0.2-0.9c0-0.1,0.1-0.1,0.1-0.2h-3.3C20.3,74.1,20.2,74.4,20.2,74.8z"
		/>
	<g>
		<g>
			<path class="st3" d="M62.3,51.6c7.9,3.3,13.8,10.2,15.8,18.7"/>
			<path class="st3" d="M53.8,35.5v13.9l-1.9,0.2c-12.5,0-23.2,8.3-26.4,19.8c-0.3,1.1-0.5,2.2-0.7,3.3c0,0.3-0.1,0.7-0.1,1h-1h-3.4
				H10"/>
			<path class="st3" d="M10,81h10.3h3.2h1.4c0.1,0.6,0.2,1.2,0.3,1.7c0.3,1.1,0.6,2.2,0.9,3.2c3,8.1,9.7,14.4,18,16.8"/>
		</g>
		<path class="st3" d="M43.5,110.8C32,108,22.8,99.7,18.8,88.8"/>
		<path class="st3" d="M85.9,85.2c-3.2,12.6-13.2,22.5-25.9,25.6"/>
		<path class="st3" d="M64.1,43.6c11,4.1,19.4,13.6,22,25.2"/>
		<path class="st3" d="M18.5,65.1c4-11.5,13.7-20.3,25.7-22.9"/>
		<path class="st3" d="M63.6,36.6c5.3,1.5,10.1,4.1,14.3,7.4"/>
		<path class="st3" d="M15.2,100.3C11.1,93.8,8.7,86,8.7,77.7c0-1.3,0.1-2.6,0.2-3.9c1.2-12.9,8.1-24.2,18.2-31.2"/>
		<path class="st4" d="M94.7,52.6c4.3,7.4,6.8,15.9,6.8,25c0,6.6-1.3,12.9-3.6,18.7c-2.9,7.1-7.3,13.4-12.9,18.4l-4.1-5.4"/>
		<path class="st3" d="M93.6,85.2c-1.7,9.3-6.4,17.6-13.1,23.8"/>
		<path class="st3" d="M38.3,29.7c4.3-1.2,8.8-1.8,13.4-1.8c15.3,0,29.1,6.9,38.2,17.9l-5.4,4.7c5.9,7.1,9.5,16.2,9.7,26.1H93H78.9
			c0,15-12.2,27.2-27.2,27.2v16v0.6c7.8,0,15.1-2.2,21.4-5.9"/>
		<path class="st4" d="M30.5,32.6"/>
		<path class="st3" d="M23.4,36.7c-13,9-21.5,24-21.5,40.9c0,13.6,5.5,26,14.3,34.9l4.7-4.9c6,6.1,13.8,10.3,22.5,12"/>
		<path class="st4" d="M22.7,118c8.2,5.9,18.2,9.3,29,9.3c9.3,0,17.9-2.5,25.4-6.9l-3.7-5.7"/>
		<path class="st3" d="M30.5,32.6l3.9,5.9c5.2-2.3,11-3.6,17.1-3.6c0.8,0,1.5,0,2.3,0.1"/>
	</g>
</g>
</svg>
