<?xml version="1.0" encoding="utf-8"?>
<!-- Generator: Adobe Illustrator 24.1.0, SVG Export Plug-In . SVG Version: 6.00 Build 0)  -->
<svg version="1.1" xmlns="http://www.w3.org/2000/svg" xmlns:xlink="http://www.w3.org/1999/xlink" x="0px" y="0px"
	 viewBox="0 0 1138.1 694.5" style="enable-background:new 0 0 1138.1 694.5;" xml:space="preserve">
<style type="text/css">
	.st0{display:none;}
	.st1{display:inline;fill:none;stroke:#0A0A23;stroke-width:0.6065;stroke-miterlimit:10;}
	.st2{display:inline;fill:none;stroke:#0A0A23;stroke-width:1.3207;stroke-miterlimit:10;}
	
		.st3{display:inline;fill:none;stroke:#0A0A23;stroke-width:1.3207;stroke-linecap:round;stroke-linejoin:round;stroke-miterlimit:10;stroke-dasharray:1.8605,7.4419;}
	.st4{display:inline;fill:none;stroke:#8264FF;stroke-width:1.3207;stroke-miterlimit:10;}
	.st5{fill:url(#SVGID_1_);}
	.st6{fill:#0A0A23;}
	.st7{fill:#8264FF;}
	
		.st8{fill:none;stroke:#0A0A23;stroke-width:0.9905;stroke-linecap:round;stroke-linejoin:round;stroke-miterlimit:10;stroke-dasharray:1.3207,5.2828;}
	.st9{fill:none;stroke:#8264FF;stroke-width:1.3728;stroke-linecap:round;stroke-linejoin:round;stroke-miterlimit:10;}
	.st10{fill:none;stroke:#8264FF;stroke-width:1.7232;stroke-linecap:round;stroke-linejoin:round;stroke-miterlimit:10;}
	.st11{fill:none;stroke:#8264FF;stroke-width:1.732;stroke-linecap:round;stroke-linejoin:round;stroke-miterlimit:10;}
	.st12{fill:none;stroke:#C1B1FF;stroke-width:1.732;stroke-linecap:round;stroke-linejoin:round;stroke-miterlimit:10;}
	.st13{fill:none;stroke:#8264FF;stroke-width:1.732;stroke-miterlimit:10;}
	.st14{fill:none;stroke:#8264FF;stroke-width:1.732;stroke-miterlimit:10.0002;}
	.st15{fill:none;stroke:#8264FF;stroke-width:1.2;stroke-linecap:round;stroke-linejoin:round;stroke-miterlimit:10;}
	.st16{fill:none;stroke:#8264FF;stroke-width:1.8189;stroke-linecap:round;stroke-linejoin:round;stroke-miterlimit:10;}
	.st17{fill:none;stroke:#8264FF;stroke-width:1.8468;stroke-linecap:round;stroke-linejoin:round;stroke-miterlimit:10;}
	.st18{fill:none;stroke:#8264FF;stroke-width:1.1425;stroke-linecap:round;stroke-linejoin:round;stroke-miterlimit:10;}
	.st19{fill:none;stroke:#8264FF;stroke-width:0.973;stroke-linecap:round;stroke-linejoin:round;stroke-miterlimit:10;}
	
		.st20{fill:none;stroke:#8264FF;stroke-width:1.1425;stroke-linecap:round;stroke-linejoin:round;stroke-miterlimit:10;stroke-dasharray:0.9968,3.9872;}
	.st21{opacity:0.1;fill:#0A0A23;enable-background:new    ;}
</style>
<g id="Layer_2" class="st0">
	<line class="st1" x1="464.9" y1="544.9" x2="545.3" y2="411.5"/>
	<path class="st1" d="M546.7,411.5"/>
	<line class="st1" x1="679.8" y1="227.2" x2="720.4" y2="95.4"/>
	<line class="st1" x1="680.4" y1="225.7" x2="704.9" y2="286.7"/>
	<line class="st1" x1="687" y1="505.8" x2="698.4" y2="366.5"/>
	<polyline class="st1" points="955.1,359.7 1052.3,349.3 1016,434.4 	"/>
	<line class="st1" x1="967.1" y1="504.3" x2="897.8" y2="556"/>
	<line class="st1" x1="572.8" y1="246.8" x2="680.7" y2="226"/>
	<line class="st1" x1="841.4" y1="571.9" x2="896.7" y2="556.8"/>
	<line class="st1" x1="744.5" y1="292.5" x2="905.8" y2="209.8"/>
	<line class="st1" x1="845.1" y1="199.2" x2="882.4" y2="184.2"/>
	<line class="st1" x1="680.7" y1="226" x2="845.2" y2="199.8"/>
	<line class="st1" x1="905.3" y1="209.7" x2="867.8" y2="431.8"/>
	<line class="st1" x1="609.1" y1="155.4" x2="628.1" y2="194.4"/>
	<line class="st1" x1="641.6" y1="513.3" x2="686.3" y2="508.7"/>
	<line class="st1" x1="546.4" y1="413.2" x2="575.5" y2="468.8"/>
	<line class="st1" x1="984.8" y1="252.8" x2="1047.8" y2="344.8"/>
	<line class="st1" x1="936.1" y1="212.4" x2="988.6" y2="432.6"/>
	<line class="st1" x1="852.3" y1="270.8" x2="896.3" y2="263.5"/>
	<path class="st1" d="M1049.2,347.2"/>
	<path class="st1" d="M958.9,304.1"/>
	<line class="st1" x1="685.9" y1="508.7" x2="666.6" y2="553.7"/>
	<line class="st1" x1="957.1" y1="141.8" x2="977.6" y2="127.5"/>
	<line class="st1" x1="761.4" y1="332.9" x2="883.5" y2="353.9"/>
	<line class="st1" x1="898.2" y1="388.1" x2="838" y2="455.9"/>
	<line class="st1" x1="543.2" y1="289.9" x2="567.4" y2="334.9"/>
	<line class="st1" x1="401.2" y1="394.9" x2="314" y2="370.6"/>
	<line class="st1" x1="279" y1="404.5" x2="321.7" y2="478.2"/>
	<line class="st1" x1="372.7" y1="491.8" x2="414.7" y2="433"/>
	<line class="st1" x1="506.2" y1="436.7" x2="565" y2="478.2"/>
	<line class="st1" x1="485.1" y1="253.8" x2="305.9" y2="331.7"/>
	<polyline class="st1" points="554.7,506.3 388.5,511.8 683.6,355.2 	"/>
	<line class="st1" x1="677.3" y1="341" x2="523.1" y2="391.9"/>
	<line class="st1" x1="565.2" y1="273.2" x2="676.6" y2="317.7"/>
	<circle class="st2" cx="529.2" cy="248.4" r="43.7"/>
	<path class="st2" d="M636,483.9c3.9,6.6,6.3,14.3,6.3,22.5c0,24.2-19.6,43.7-43.7,43.7c-7,0-13.5-1.6-19.4-4.5"/>
	<path class="st2" d="M568.9,538.6c-8.7-8-14.2-19.5-14.2-32.3c0-24.2,19.6-43.7,43.7-43.7c11.9,0,22.7,4.8,30.6,12.4"/>
	<path class="st2" d="M887.2,194.7c-4.2-6.3-6.9-13.8-7.3-21.8c-0.1-0.8-0.1-1.7-0.1-2.6"/>
	<path class="st2" d="M947.8,206.7c-7,4.6-15.2,7.3-24.2,7.3c-8.7,0-16.7-2.5-23.5-6.9"/>
	<path class="st2" d="M967.4,170.2c0,9.5-3,18.2-8.1,25.4"/>
	<path class="st2" d="M886.5,147.2c7.7-12.4,21.5-20.7,37.2-20.7c15.2,0,28.7,7.8,36.5,19.5"/>
	
		<ellipse transform="matrix(0.1602 -0.9871 0.9871 0.1602 280.0566 985.2949)" class="st2" cx="719.1" cy="328.1" rx="43.7" ry="43.7"/>
	<circle class="st2" cx="999.7" cy="475.1" r="43.7"/>
	<circle class="st3" cx="529.2" cy="248.4" r="66.4"/>
	<circle class="st3" cx="999.7" cy="475.1" r="66.4"/>
	
		<ellipse transform="matrix(0.1602 -0.9871 0.9871 0.1602 196.8246 1209.7234)" class="st2" cx="809.3" cy="489.2" rx="43.7" ry="43.7"/>
	<circle class="st4" cx="691.8" cy="440.5" r="9.5"/>
	<path class="st2" d="M919.4,324c19.7,0,35.7,16,35.7,35.7s-16,35.7-35.7,35.7c-6.2,0-12.1-1.6-17.2-4.4
		c-11-6.1-18.5-17.8-18.5-31.3C883.6,340,899.6,324,919.4,324z"/>
	<circle class="st4" cx="1026.8" cy="183.1" r="9.5"/>
	<circle class="st2" cx="674.1" cy="138.7" r="9.5"/>
	<circle class="st2" cx="461.8" cy="394.9" r="60.6"/>
	<path class="st2" d="M269.2,313.4c25.3,0,45.8,20.5,45.8,45.8c0,25.3-20.5,45.8-45.8,45.8c-8,0-15.5-2-22.1-5.7
		c-14.2-7.8-23.7-22.8-23.7-40.1C223.5,333.9,244,313.4,269.2,313.4z"/>
	<circle class="st2" cx="340.4" cy="522.5" r="48.1"/>
</g>
<g id="Layer_3">
	<linearGradient id="SVGID_1_" gradientUnits="userSpaceOnUse" x1="8.3691" y1="328.5586" x2="1122.0358" y2="328.5586">
		<stop  offset="0" style="stop-color:#FF6382"/>
		<stop  offset="9.219468e-02" style="stop-color:#E163A0"/>
		<stop  offset="0.2367" style="stop-color:#B864C9"/>
		<stop  offset="0.3683" style="stop-color:#9A64E7"/>
		<stop  offset="0.4813" style="stop-color:#8864F9"/>
		<stop  offset="0.5623" style="stop-color:#8264FF"/>
	</linearGradient>
	<path class="st5" d="M328.2,607.4l-0.7-0.4l106-176.1l0.7,0.4L328.2,607.4z M435.8,431.1 M665.4,14.2l-0.8-0.2l-53.5,173.9l0.8,0.2
		L665.4,14.2z M644.9,266.3l-32.4-80.4l-0.7,0.3l32.4,80.4L644.9,266.3z M688.5,372l-0.7,0.4l67.2,110.7l0.7-0.4L688.5,372z
		 M1103.4,349.3l0.3-0.6l-129,13.7l0.1,0.8l127.6-13.6l-47.7,111.6l0.7,0.3L1103.4,349.3z M990.8,554l-0.5-0.6l-91.5,68.2l0.5,0.6
		L990.8,554z M612.7,186.7l-0.2-0.8l-142.3,27.5l0.2,0.8L612.7,186.7z M897.8,623.3l-0.2-0.8l-73,19.9l0.2,0.8L897.8,623.3z
		 M909.8,165.4l-0.4-0.7L696.6,273.8l0.4,0.7L909.8,165.4z M878.9,131.7l-0.3-0.7l-49.1,19.8l0.3,0.7L878.9,131.7z M829.7,152.2
		l-0.1-0.8L612.5,186l0.1,0.8L829.7,152.2z M909.4,164.9l-0.8-0.1l-49.5,293.1l0.8,0.1L909.4,164.9z M543.5,144.5l-25.1-51.4
		l-0.7,0.4l25.1,51.4L543.5,144.5z M620,559.9l-0.1-0.8l-58.9,6l0.1,0.8L620,559.9z M474.1,506.6l-38.3-73.4l-0.7,0.4l38.3,73.4
		L474.1,506.6z M1097.3,342.9l-83.1-121.3l-0.7,0.5l83.1,121.3L1097.3,342.9z M1019.3,458.9L950,168.4l-0.8,0.2l69.3,290.5
		L1019.3,458.9z M897.1,236.3l-0.1-0.8l-58,9.6l0.1,0.8L897.1,236.3z M1098.9,346.3 M979.8,289.5 M619.8,559.6l-0.7-0.3l-25.4,59.4
		l0.7,0.3L619.8,559.6z M1004.7,56.8l-0.5-0.7L977.1,75l0.5,0.7L1004.7,56.8z M880.3,354.8l-161.1-27.6l-0.1,0.8l161.1,27.6
		L880.3,354.8z M900,400.6l-0.6-0.5l-79.5,89.5l0.6,0.5L900,400.6z M243.9,408.9l-115-32l-0.2,0.8l115,32L243.9,408.9z M139.2,519
		L83,421.7l-0.7,0.4l56.3,97.3L139.2,519z M261.9,459.8l-0.7-0.5l-52.7,74l0.7,0.5L261.9,459.8z M460.1,518.9l-77.5-54.7l-0.5,0.7
		l77.5,54.7L460.1,518.9z M354.6,223.5l-0.3-0.7L117.8,325.5l0.3,0.7L354.6,223.5z M446.3,556.7l0-0.8L228.7,563l387.8-205.8
		l-0.4-0.7L226.8,563.1l-1.5,0.8L446.3,556.7z M608.3,338.5l-0.2-0.8l-203.6,67.2l0.3,0.8L608.3,338.5z M607.3,307l-146.9-58.7
		l-0.3,0.7L607,307.7L607.3,307z M412.7,274.6c-32.3,0-58.6-26.3-58.6-58.6s26.3-58.6,58.6-58.6s58.6,26.3,58.6,58.6
		S445,274.6,412.7,274.6z M412.7,159.2c-31.3,0-56.8,25.5-56.8,56.8s25.5,56.8,56.8,56.8c31.3,0,56.8-25.5,56.8-56.8
		S444,159.2,412.7,159.2z M562.8,556.3c0-10.6-2.9-21-8.4-30.1l-1.5,0.9c5.3,8.9,8.1,19,8.1,29.2c0,31.3-25.5,56.8-56.8,56.8
		c-8.8,0-17.3-2-25.2-5.8l-0.8,1.6c8.2,4,16.9,6,26,6C536.5,614.9,562.8,588.6,562.8,556.3z M465.7,598.3
		c-11.9-11-18.5-25.9-18.5-42c0-31.3,25.5-56.8,56.8-56.8c14.9,0,29,5.7,39.8,16.2l1.2-1.2c-11.1-10.7-25.6-16.7-41-16.7
		c-32.3,0-58.6,26.3-58.6,58.6c0,16.6,6.8,32,19,43.3L465.7,598.3z M885.9,144.6c-5.7-8.3-8.9-18.1-9.5-28.3
		c-0.1-1.1-0.1-2.2-0.1-3.4h-1.7c0,1.2,0,2.4,0.1,3.5c0.6,10.5,4,20.6,9.8,29.2L885.9,144.6z M965.6,161.7l-1-1.4
		c-9.3,6.2-20.1,9.4-31.4,9.4c-10.9,0-21.5-3.1-30.5-8.9l-0.9,1.5c9.3,6,20.2,9.2,31.5,9.2C944.8,171.4,956,168.1,965.6,161.7z
		 M991.8,112.8h-1.7c0,11.9-3.6,23.3-10.5,33l1.4,1C988.1,136.9,991.8,125.1,991.8,112.8z M933.2,56c19.1,0,36.8,9.5,47.4,25.4
		l1.5-1c-10.9-16.4-29.2-26.2-48.8-26.2c-20.4,0-39,10.4-49.8,27.7l1.5,0.9C895.3,66.1,913.4,56,933.2,56z M663.2,379.7
		c-32.3,0-58.6-26.3-58.6-58.6c0-32.3,26.3-58.6,58.6-58.6c32.3,0,58.6,26.3,58.6,58.6C721.8,353.4,695.5,379.7,663.2,379.7z
		 M663.2,264.3c-31.3,0-56.8,25.5-56.8,56.8s25.5,56.8,56.8,56.8s56.8-25.5,56.8-56.8S694.6,264.3,663.2,264.3z M1033.6,573.6
		c-32.3,0-58.6-26.3-58.6-58.6c0-32.3,26.3-58.6,58.6-58.6c32.3,0,58.6,26.3,58.6,58.6C1092.2,547.4,1065.9,573.6,1033.6,573.6z
		 M1033.6,458.2c-31.3,0-56.8,25.5-56.8,56.8s25.5,56.8,56.8,56.8c31.3,0,56.8-25.5,56.8-56.8S1064.9,458.2,1033.6,458.2z
		 M415.4,304.4c-0.5,0-0.9-0.4-0.9-0.8c0-0.5,0.4-0.9,0.8-0.9c0.8,0,1.6-0.1,2.4-0.1c0.5,0,0.9,0.3,0.9,0.8c0,0.5-0.3,0.9-0.8,0.9
		C417.1,304.4,416.3,304.4,415.4,304.4C415.4,304.4,415.4,304.4,415.4,304.4z M405.6,304.2C405.6,304.2,405.6,304.2,405.6,304.2
		c-0.9-0.1-1.7-0.1-2.5-0.2c-0.5-0.1-0.8-0.5-0.8-1c0.1-0.5,0.5-0.8,1-0.8c0.8,0.1,1.6,0.2,2.4,0.2c0.5,0,0.8,0.5,0.8,0.9
		C406.4,303.8,406.1,304.2,405.6,304.2z M427.6,303.2c-0.4,0-0.8-0.3-0.9-0.7c-0.1-0.5,0.2-0.9,0.7-1c0.8-0.1,1.6-0.3,2.4-0.4
		c0.5-0.1,0.9,0.2,1,0.7c0.1,0.5-0.2,0.9-0.7,1c-0.8,0.2-1.6,0.3-2.4,0.5C427.7,303.2,427.7,303.2,427.6,303.2z M393.5,302.4
		c-0.1,0-0.1,0-0.2,0c-0.8-0.2-1.6-0.4-2.4-0.6c-0.5-0.1-0.7-0.6-0.6-1.1c0.1-0.5,0.6-0.7,1.1-0.6c0.8,0.2,1.6,0.4,2.4,0.6
		c0.5,0.1,0.8,0.6,0.7,1C394.2,302.1,393.9,302.4,393.5,302.4z M439.5,300.3c-0.4,0-0.7-0.2-0.8-0.6c-0.1-0.5,0.1-0.9,0.6-1.1
		c0.8-0.2,1.5-0.5,2.3-0.8c0.5-0.2,1,0.1,1.1,0.5c0.2,0.5-0.1,1-0.5,1.1c-0.8,0.3-1.6,0.5-2.3,0.8
		C439.7,300.3,439.6,300.3,439.5,300.3z M381.7,298.8c-0.1,0-0.2,0-0.3-0.1c-0.8-0.3-1.5-0.6-2.3-0.9c-0.4-0.2-0.7-0.7-0.5-1.1
		c0.2-0.4,0.7-0.7,1.1-0.5c0.8,0.3,1.5,0.6,2.3,0.9c0.5,0.2,0.7,0.7,0.5,1.1C382.4,298.6,382.1,298.8,381.7,298.8z M450.9,295.7
		c-0.3,0-0.6-0.2-0.8-0.5c-0.2-0.4,0-1,0.4-1.2c0.7-0.4,1.4-0.7,2.2-1.1c0.4-0.2,1-0.1,1.2,0.4c0.2,0.4,0.1,1-0.4,1.2
		c-0.7,0.4-1.5,0.8-2.2,1.1C451.2,295.7,451,295.7,450.9,295.7z M370.6,293.7c-0.1,0-0.3,0-0.4-0.1c-0.7-0.4-1.4-0.8-2.2-1.2
		c-0.4-0.2-0.6-0.8-0.3-1.2c0.2-0.4,0.8-0.6,1.2-0.3c0.7,0.4,1.4,0.8,2.1,1.2c0.4,0.2,0.6,0.8,0.3,1.2
		C371.2,293.5,370.9,293.7,370.6,293.7z M461.5,289.6c-0.3,0-0.6-0.1-0.7-0.4c-0.3-0.4-0.2-0.9,0.2-1.2c0.7-0.5,1.3-0.9,2-1.4
		c0.4-0.3,0.9-0.2,1.2,0.2c0.3,0.4,0.2,0.9-0.2,1.2c-0.7,0.5-1.3,1-2,1.4C461.9,289.5,461.7,289.6,461.5,289.6z M360.3,287.1
		c-0.2,0-0.4-0.1-0.5-0.2c-0.7-0.5-1.3-1-2-1.5c-0.4-0.3-0.4-0.8-0.1-1.2c0.3-0.4,0.8-0.4,1.2-0.1c0.6,0.5,1.3,1,1.9,1.5
		c0.4,0.3,0.5,0.8,0.2,1.2C360.8,286.9,360.5,287.1,360.3,287.1z M471.2,282.1c-0.2,0-0.5-0.1-0.6-0.3c-0.3-0.4-0.3-0.9,0.1-1.2
		c0.6-0.5,1.2-1.1,1.8-1.6c0.3-0.3,0.9-0.3,1.2,0c0.3,0.3,0.3,0.9,0,1.2c-0.6,0.6-1.2,1.1-1.8,1.7
		C471.6,282,471.4,282.1,471.2,282.1z M351,279.1c-0.2,0-0.4-0.1-0.6-0.3c-0.6-0.6-1.2-1.2-1.7-1.8c-0.3-0.3-0.3-0.9,0-1.2
		c0.3-0.3,0.9-0.3,1.2,0c0.6,0.6,1.1,1.2,1.7,1.7c0.3,0.3,0.3,0.9,0,1.2C351.4,279,351.2,279.1,351,279.1z M479.7,273.2
		c-0.2,0-0.4-0.1-0.6-0.2c-0.4-0.3-0.4-0.9-0.1-1.2c0.5-0.6,1-1.2,1.5-1.9c0.3-0.4,0.8-0.4,1.2-0.1c0.4,0.3,0.4,0.8,0.1,1.2
		c-0.5,0.6-1,1.3-1.6,1.9C480.2,273.1,480,273.2,479.7,273.2z M342.9,269.8c-0.3,0-0.5-0.1-0.7-0.3c-0.5-0.7-1-1.3-1.5-2
		c-0.3-0.4-0.2-0.9,0.2-1.2c0.4-0.3,0.9-0.2,1.2,0.2c0.5,0.7,1,1.3,1.4,2c0.3,0.4,0.2,0.9-0.2,1.2
		C343.3,269.8,343.1,269.8,342.9,269.8z M486.9,263.3c-0.2,0-0.3,0-0.5-0.1c-0.4-0.3-0.5-0.8-0.3-1.2c0.4-0.7,0.9-1.4,1.3-2.1
		c0.2-0.4,0.8-0.6,1.2-0.3c0.4,0.2,0.6,0.8,0.3,1.2c-0.4,0.7-0.8,1.4-1.3,2.1C487.5,263.2,487.2,263.3,486.9,263.3z M336.2,259.6
		c-0.3,0-0.6-0.2-0.8-0.4c-0.4-0.7-0.8-1.4-1.2-2.2c-0.2-0.4-0.1-1,0.4-1.2c0.4-0.2,1-0.1,1.2,0.4c0.4,0.7,0.8,1.4,1.2,2.1
		c0.2,0.4,0.1,1-0.3,1.2C336.5,259.5,336.3,259.6,336.2,259.6z M492.7,252.5c-0.1,0-0.2,0-0.4-0.1c-0.4-0.2-0.6-0.7-0.4-1.2
		c0.3-0.7,0.7-1.5,1-2.2c0.2-0.4,0.7-0.7,1.1-0.5c0.4,0.2,0.7,0.7,0.5,1.1c-0.3,0.8-0.6,1.5-1,2.3
		C493.4,252.3,493,252.5,492.7,252.5z M331,248.5c-0.3,0-0.7-0.2-0.8-0.6c-0.3-0.8-0.6-1.5-0.9-2.3c-0.2-0.5,0.1-1,0.5-1.1
		c0.5-0.2,1,0.1,1.1,0.5c0.3,0.8,0.6,1.5,0.8,2.3c0.2,0.4,0,1-0.5,1.1C331.2,248.5,331.1,248.5,331,248.5z M496.9,241
		c-0.1,0-0.2,0-0.2,0c-0.5-0.1-0.7-0.6-0.6-1.1c0.2-0.8,0.4-1.6,0.6-2.3c0.1-0.5,0.6-0.7,1.1-0.6c0.5,0.1,0.7,0.6,0.6,1.1
		c-0.2,0.8-0.4,1.6-0.6,2.4C497.6,240.7,497.3,241,496.9,241z M327.4,236.8c-0.4,0-0.8-0.3-0.8-0.7c-0.2-0.8-0.4-1.6-0.5-2.4
		c-0.1-0.5,0.2-0.9,0.7-1c0.5-0.1,0.9,0.2,1,0.7c0.2,0.8,0.3,1.6,0.5,2.4c0.1,0.5-0.2,0.9-0.7,1
		C327.5,236.8,327.4,236.8,327.4,236.8z M499.4,229c0,0-0.1,0-0.1,0c-0.5-0.1-0.8-0.5-0.7-1c0.1-0.8,0.2-1.6,0.3-2.4
		c0.1-0.5,0.5-0.8,1-0.8c0.5,0.1,0.8,0.5,0.8,1c-0.1,0.8-0.2,1.6-0.3,2.5C500.2,228.7,499.9,229,499.4,229z M325.4,224.7
		c-0.4,0-0.8-0.3-0.9-0.8c-0.1-0.8-0.1-1.6-0.2-2.5c0-0.5,0.3-0.9,0.8-0.9c0.5,0,0.9,0.3,0.9,0.8c0,0.8,0.1,1.6,0.2,2.4
		C326.3,224.2,326,224.6,325.4,224.7C325.5,224.7,325.5,224.7,325.4,224.7z M500.3,216.7c-0.5,0-0.9-0.4-0.9-0.9c0-0.8,0-1.6,0-2.4
		c0-0.5,0.4-0.9,0.8-0.9c0.5,0,0.9,0.4,0.9,0.8c0,0.8,0,1.6,0,2.5C501.1,216.4,500.7,216.7,500.3,216.7
		C500.3,216.7,500.3,216.7,500.3,216.7z M325.2,212.4C325.2,212.4,325.2,212.4,325.2,212.4c-0.5,0-0.9-0.4-0.9-0.9
		c0-0.8,0.1-1.7,0.2-2.5c0-0.5,0.4-0.8,0.9-0.8c0.5,0,0.8,0.5,0.8,0.9c-0.1,0.8-0.1,1.6-0.2,2.4C326.1,212,325.7,212.4,325.2,212.4z
		 M499.4,204.5c-0.4,0-0.8-0.3-0.9-0.7c-0.1-0.8-0.2-1.6-0.4-2.4c-0.1-0.5,0.2-0.9,0.7-1c0.5-0.1,0.9,0.2,1,0.7
		c0.1,0.8,0.3,1.6,0.4,2.4c0.1,0.5-0.3,0.9-0.7,1C499.5,204.5,499.4,204.5,499.4,204.5z M326.7,200.2c-0.1,0-0.1,0-0.2,0
		c-0.5-0.1-0.8-0.5-0.7-1c0.2-0.8,0.3-1.6,0.5-2.4c0.1-0.5,0.6-0.8,1-0.7c0.5,0.1,0.8,0.6,0.7,1c-0.2,0.8-0.3,1.6-0.5,2.4
		C327.5,199.9,327.1,200.2,326.7,200.2z M496.8,192.5c-0.4,0-0.7-0.2-0.8-0.6c-0.2-0.8-0.5-1.6-0.7-2.3c-0.1-0.5,0.1-0.9,0.6-1.1
		c0.5-0.1,0.9,0.1,1.1,0.6c0.3,0.8,0.5,1.6,0.7,2.4c0.1,0.5-0.1,0.9-0.6,1.1C497,192.5,496.9,192.5,496.8,192.5z M329.8,188.4
		c-0.1,0-0.2,0-0.3,0c-0.5-0.2-0.7-0.7-0.5-1.1c0.3-0.8,0.6-1.6,0.8-2.3c0.2-0.5,0.7-0.7,1.1-0.5c0.5,0.2,0.7,0.7,0.5,1.1
		c-0.3,0.8-0.6,1.5-0.8,2.3C330.5,188.1,330.2,188.4,329.8,188.4z M492.6,181c-0.3,0-0.7-0.2-0.8-0.5c-0.3-0.7-0.7-1.5-1-2.2
		c-0.2-0.4,0-1,0.4-1.2c0.4-0.2,1,0,1.2,0.4c0.4,0.7,0.7,1.5,1,2.2c0.2,0.4,0,1-0.4,1.2C492.8,181,492.7,181,492.6,181z
		 M334.6,177.1c-0.1,0-0.3,0-0.4-0.1c-0.4-0.2-0.6-0.7-0.4-1.2c0.4-0.7,0.8-1.5,1.2-2.2c0.2-0.4,0.8-0.6,1.2-0.3
		c0.4,0.2,0.6,0.8,0.3,1.2c-0.4,0.7-0.8,1.4-1.1,2.2C335.3,176.9,335,177.1,334.6,177.1z M486.8,170.2c-0.3,0-0.6-0.1-0.7-0.4
		c-0.4-0.7-0.9-1.4-1.3-2c-0.3-0.4-0.2-0.9,0.2-1.2c0.4-0.3,0.9-0.2,1.2,0.2c0.5,0.7,0.9,1.4,1.3,2.1c0.3,0.4,0.1,0.9-0.3,1.2
		C487.1,170.2,487,170.2,486.8,170.2z M341,166.6c-0.2,0-0.3-0.1-0.5-0.2c-0.4-0.3-0.5-0.8-0.2-1.2c0.5-0.7,1-1.3,1.5-2
		c0.3-0.4,0.8-0.5,1.2-0.2c0.4,0.3,0.5,0.8,0.2,1.2c-0.5,0.6-1,1.3-1.4,2C341.5,166.4,341.3,166.6,341,166.6z M479.6,160.3
		c-0.2,0-0.5-0.1-0.7-0.3c-0.5-0.6-1.1-1.2-1.6-1.8c-0.3-0.4-0.3-0.9,0.1-1.2c0.4-0.3,0.9-0.3,1.2,0.1c0.6,0.6,1.1,1.2,1.6,1.9
		c0.3,0.4,0.3,0.9-0.1,1.2C480,160.3,479.8,160.3,479.6,160.3z M348.7,157.1c-0.2,0-0.4-0.1-0.6-0.2c-0.4-0.3-0.4-0.9,0-1.2
		c0.6-0.6,1.1-1.2,1.7-1.8c0.3-0.3,0.9-0.3,1.2,0c0.3,0.3,0.3,0.9,0,1.2c-0.6,0.6-1.1,1.2-1.7,1.8C349.2,157,349,157.1,348.7,157.1z
		 M471,151.6c-0.2,0-0.4-0.1-0.6-0.2c-0.6-0.5-1.2-1.1-1.8-1.6c-0.4-0.3-0.4-0.9-0.1-1.2c0.3-0.4,0.9-0.4,1.2-0.1
		c0.6,0.5,1.3,1.1,1.9,1.6c0.4,0.3,0.4,0.9,0.1,1.2C471.5,151.5,471.2,151.6,471,151.6z M357.7,148.7c-0.3,0-0.5-0.1-0.7-0.3
		c-0.3-0.4-0.2-0.9,0.1-1.2c0.6-0.5,1.3-1,1.9-1.5c0.4-0.3,0.9-0.2,1.2,0.2c0.3,0.4,0.2,0.9-0.2,1.2c-0.6,0.5-1.3,1-1.9,1.5
		C358.1,148.6,357.9,148.7,357.7,148.7z M461.3,144c-0.2,0-0.3,0-0.5-0.1c-0.7-0.5-1.4-0.9-2-1.3c-0.4-0.3-0.5-0.8-0.3-1.2
		c0.3-0.4,0.8-0.5,1.2-0.3c0.7,0.4,1.4,0.9,2.1,1.4c0.4,0.3,0.5,0.8,0.2,1.2C461.9,143.9,461.6,144,461.3,144z M367.8,141.7
		c-0.3,0-0.6-0.2-0.7-0.4c-0.2-0.4-0.1-0.9,0.3-1.2c0.7-0.4,1.4-0.8,2.1-1.2c0.4-0.2,1-0.1,1.2,0.3c0.2,0.4,0.1,1-0.3,1.2
		c-0.7,0.4-1.4,0.8-2.1,1.2C368.1,141.7,367.9,141.7,367.8,141.7z M450.7,138c-0.1,0-0.3,0-0.4-0.1c-0.7-0.4-1.5-0.7-2.2-1
		c-0.4-0.2-0.6-0.7-0.4-1.2c0.2-0.4,0.7-0.6,1.2-0.4c0.8,0.3,1.5,0.7,2.3,1c0.4,0.2,0.6,0.7,0.4,1.2C451.3,137.8,451,138,450.7,138z
		 M378.7,136.2c-0.3,0-0.7-0.2-0.8-0.5c-0.2-0.4,0-1,0.5-1.1c0.8-0.3,1.5-0.6,2.3-0.9c0.4-0.2,1,0,1.1,0.5c0.2,0.4,0,1-0.5,1.1
		c-0.8,0.3-1.5,0.6-2.2,0.9C378.9,136.1,378.8,136.2,378.7,136.2z M439.3,133.4c-0.1,0-0.2,0-0.3,0c-0.8-0.2-1.5-0.5-2.3-0.7
		c-0.5-0.1-0.7-0.6-0.6-1.1c0.1-0.5,0.6-0.7,1.1-0.6c0.8,0.2,1.6,0.5,2.4,0.7c0.5,0.1,0.7,0.6,0.6,1.1
		C440,133.2,439.6,133.4,439.3,133.4z M390.3,132.2c-0.4,0-0.7-0.3-0.8-0.6c-0.1-0.5,0.2-0.9,0.6-1.1c0.8-0.2,1.6-0.4,2.4-0.6
		c0.5-0.1,0.9,0.2,1,0.7c0.1,0.5-0.2,0.9-0.7,1c-0.8,0.2-1.6,0.4-2.4,0.6C390.4,132.2,390.4,132.2,390.3,132.2z M427.3,130.5
		c0,0-0.1,0-0.1,0c-0.8-0.1-1.6-0.3-2.4-0.4c-0.5-0.1-0.8-0.5-0.7-1c0.1-0.5,0.5-0.8,1-0.7c0.8,0.1,1.6,0.2,2.5,0.4
		c0.5,0.1,0.8,0.5,0.7,1C428.1,130.2,427.8,130.5,427.3,130.5z M402.3,129.9c-0.4,0-0.8-0.3-0.9-0.8c-0.1-0.5,0.3-0.9,0.8-1
		c0.8-0.1,1.6-0.2,2.5-0.3c0.5,0,0.9,0.3,0.9,0.8c0,0.5-0.3,0.9-0.8,0.9c-0.8,0.1-1.6,0.2-2.4,0.2
		C402.4,129.9,402.4,129.9,402.3,129.9z M415.1,129.3C415.1,129.3,415.1,129.3,415.1,129.3c-0.8,0-1.6,0-2.5,0
		c-0.5,0-0.9-0.4-0.9-0.9c0-0.5,0.4-0.9,0.9-0.9c0.8,0,1.7,0,2.5,0c0.5,0,0.9,0.4,0.8,0.9C416,129,415.6,129.3,415.1,129.3z
		 M1036.3,603.5c-0.5,0-0.9-0.4-0.9-0.8c0-0.5,0.4-0.9,0.8-0.9c0.8,0,1.6-0.1,2.4-0.1c0.5,0,0.9,0.3,0.9,0.8c0,0.5-0.3,0.9-0.8,0.9
		C1038,603.4,1037.2,603.4,1036.3,603.5C1036.3,603.5,1036.3,603.5,1036.3,603.5z M1026.5,603.2
		C1026.5,603.2,1026.5,603.2,1026.5,603.2c-0.9-0.1-1.7-0.1-2.5-0.2c-0.5-0.1-0.8-0.5-0.8-1c0.1-0.5,0.5-0.8,1-0.8
		c0.8,0.1,1.6,0.2,2.4,0.2c0.5,0,0.8,0.5,0.8,0.9C1027.3,602.9,1027,603.2,1026.5,603.2z M1048.5,602.2c-0.4,0-0.8-0.3-0.9-0.7
		c-0.1-0.5,0.2-0.9,0.7-1c0.8-0.1,1.6-0.3,2.4-0.4c0.5-0.1,0.9,0.2,1,0.7c0.1,0.5-0.2,0.9-0.7,1c-0.8,0.2-1.6,0.3-2.4,0.5
		C1048.6,602.2,1048.6,602.2,1048.5,602.2z M1014.4,601.4c-0.1,0-0.1,0-0.2,0c-0.8-0.2-1.6-0.4-2.4-0.6c-0.5-0.1-0.7-0.6-0.6-1.1
		c0.1-0.5,0.6-0.7,1.1-0.6c0.8,0.2,1.6,0.4,2.4,0.6c0.5,0.1,0.8,0.6,0.7,1C1015.1,601.1,1014.8,601.4,1014.4,601.4z M1060.4,599.3
		c-0.4,0-0.7-0.2-0.8-0.6c-0.1-0.5,0.1-0.9,0.6-1.1c0.8-0.2,1.5-0.5,2.3-0.8c0.4-0.2,1,0.1,1.1,0.5c0.2,0.5-0.1,1-0.5,1.1
		c-0.8,0.3-1.6,0.5-2.3,0.8C1060.6,599.3,1060.5,599.3,1060.4,599.3z M1002.6,597.9c-0.1,0-0.2,0-0.3-0.1c-0.8-0.3-1.5-0.6-2.3-0.9
		c-0.4-0.2-0.7-0.7-0.5-1.1c0.2-0.4,0.7-0.7,1.1-0.5c0.8,0.3,1.5,0.6,2.3,0.9c0.4,0.2,0.7,0.7,0.5,1.1
		C1003.3,597.7,1003,597.9,1002.6,597.9z M1071.8,594.7c-0.3,0-0.6-0.2-0.8-0.5c-0.2-0.4,0-1,0.4-1.2c0.7-0.4,1.4-0.7,2.2-1.1
		c0.4-0.2,1-0.1,1.2,0.4c0.2,0.4,0.1,1-0.4,1.2c-0.7,0.4-1.5,0.8-2.2,1.1C1072.1,594.7,1071.9,594.7,1071.8,594.7z M991.5,592.7
		c-0.1,0-0.3,0-0.4-0.1c-0.7-0.4-1.4-0.8-2.2-1.2c-0.4-0.2-0.6-0.8-0.3-1.2c0.2-0.4,0.8-0.6,1.2-0.3c0.7,0.4,1.4,0.8,2.1,1.2
		c0.4,0.2,0.6,0.8,0.3,1.2C992.1,592.6,991.8,592.7,991.5,592.7z M1082.4,588.6c-0.3,0-0.6-0.1-0.7-0.4c-0.3-0.4-0.2-0.9,0.2-1.2
		c0.7-0.5,1.3-0.9,2-1.4c0.4-0.3,0.9-0.2,1.2,0.2c0.3,0.4,0.2,0.9-0.2,1.2c-0.7,0.5-1.3,0.9-2,1.4
		C1082.8,588.6,1082.6,588.6,1082.4,588.6z M981.2,586.1c-0.2,0-0.4-0.1-0.5-0.2c-0.7-0.5-1.3-1-2-1.5c-0.4-0.3-0.4-0.8-0.1-1.2
		c0.3-0.4,0.8-0.4,1.2-0.1c0.6,0.5,1.3,1,1.9,1.5c0.4,0.3,0.5,0.8,0.2,1.2C981.7,586,981.4,586.1,981.2,586.1z M1092.1,581.1
		c-0.2,0-0.5-0.1-0.6-0.3c-0.3-0.4-0.3-0.9,0.1-1.2c0.6-0.5,1.2-1.1,1.8-1.6c0.4-0.3,0.9-0.3,1.2,0c0.3,0.3,0.3,0.9,0,1.2
		c-0.6,0.6-1.2,1.1-1.8,1.7C1092.5,581,1092.3,581.1,1092.1,581.1z M971.9,578.1c-0.2,0-0.4-0.1-0.6-0.3c-0.6-0.6-1.2-1.2-1.7-1.8
		c-0.3-0.3-0.3-0.9,0-1.2c0.4-0.3,0.9-0.3,1.2,0c0.6,0.6,1.1,1.2,1.7,1.7c0.3,0.3,0.3,0.9,0,1.2C972.3,578,972.1,578.1,971.9,578.1z
		 M1100.6,572.3c-0.2,0-0.4-0.1-0.6-0.2c-0.4-0.3-0.4-0.9-0.1-1.2c0.5-0.6,1-1.2,1.5-1.9c0.3-0.4,0.8-0.4,1.2-0.1
		c0.4,0.3,0.4,0.8,0.1,1.2c-0.5,0.6-1,1.3-1.6,1.9C1101.1,572.2,1100.9,572.3,1100.6,572.3z M963.8,568.9c-0.3,0-0.5-0.1-0.7-0.3
		c-0.5-0.7-1-1.3-1.5-2c-0.3-0.4-0.2-0.9,0.2-1.2c0.4-0.3,0.9-0.2,1.2,0.2c0.5,0.7,1,1.3,1.4,2c0.3,0.4,0.2,0.9-0.2,1.2
		C964.2,568.8,964,568.9,963.8,568.9z M1107.8,562.4c-0.2,0-0.3,0-0.5-0.1c-0.4-0.3-0.5-0.8-0.3-1.2c0.4-0.7,0.9-1.4,1.3-2.1
		c0.2-0.4,0.8-0.6,1.2-0.3c0.4,0.2,0.6,0.8,0.3,1.2c-0.4,0.7-0.9,1.4-1.3,2.1C1108.4,562.2,1108.1,562.4,1107.8,562.4z M957.1,558.6
		c-0.3,0-0.6-0.2-0.8-0.4c-0.4-0.7-0.8-1.4-1.2-2.2c-0.2-0.4-0.1-1,0.4-1.2c0.4-0.2,1-0.1,1.2,0.4c0.4,0.7,0.8,1.4,1.2,2.1
		c0.2,0.4,0.1,1-0.3,1.2C957.4,558.6,957.2,558.6,957.1,558.6z M1113.6,551.5c-0.1,0-0.2,0-0.4-0.1c-0.4-0.2-0.6-0.7-0.4-1.2
		c0.3-0.7,0.7-1.5,1-2.2c0.2-0.4,0.7-0.7,1.1-0.5c0.4,0.2,0.7,0.7,0.5,1.1c-0.3,0.8-0.6,1.5-1,2.3
		C1114.3,551.4,1114,551.5,1113.6,551.5z M951.9,547.5c-0.3,0-0.7-0.2-0.8-0.6c-0.3-0.8-0.6-1.5-0.9-2.3c-0.2-0.5,0.1-1,0.5-1.1
		c0.5-0.2,1,0.1,1.1,0.5c0.3,0.8,0.6,1.5,0.8,2.3c0.2,0.4,0,1-0.5,1.1C952.1,547.5,952,547.5,951.9,547.5z M1117.8,540
		c-0.1,0-0.2,0-0.2,0c-0.5-0.1-0.7-0.6-0.6-1.1c0.2-0.8,0.4-1.6,0.6-2.3c0.1-0.5,0.6-0.8,1.1-0.6c0.5,0.1,0.7,0.6,0.6,1.1
		c-0.2,0.8-0.4,1.6-0.6,2.4C1118.5,539.8,1118.2,540,1117.8,540z M948.3,535.8c-0.4,0-0.8-0.3-0.8-0.7c-0.2-0.8-0.4-1.6-0.5-2.4
		c-0.1-0.5,0.2-0.9,0.7-1c0.5-0.1,0.9,0.2,1,0.7c0.2,0.8,0.3,1.6,0.5,2.4c0.1,0.5-0.2,0.9-0.7,1
		C948.4,535.8,948.3,535.8,948.3,535.8z M1120.3,528c0,0-0.1,0-0.1,0c-0.5-0.1-0.8-0.5-0.7-1c0.1-0.8,0.2-1.6,0.3-2.4
		c0.1-0.5,0.5-0.8,1-0.8c0.5,0.1,0.8,0.5,0.8,1c-0.1,0.8-0.2,1.6-0.3,2.5C1121.1,527.7,1120.8,528,1120.3,528z M946.3,523.7
		c-0.4,0-0.8-0.3-0.9-0.8c-0.1-0.8-0.1-1.6-0.2-2.5c0-0.5,0.3-0.9,0.8-0.9c0.4,0,0.9,0.3,0.9,0.8c0,0.8,0.1,1.6,0.2,2.4
		C947.3,523.2,946.9,523.6,946.3,523.7C946.4,523.7,946.4,523.7,946.3,523.7z M1121.2,515.8c-0.5,0-0.9-0.4-0.9-0.9
		c0-0.8,0-1.6,0-2.4c0-0.5,0.4-0.9,0.8-0.9c0.5,0,0.9,0.4,0.9,0.8c0,0.8,0,1.6,0,2.5C1122,515.4,1121.6,515.8,1121.2,515.8
		L1121.2,515.8z M946.1,511.4C946.1,511.4,946.1,511.4,946.1,511.4c-0.5,0-0.9-0.4-0.9-0.9c0-0.8,0.1-1.7,0.2-2.5
		c0-0.5,0.5-0.8,0.9-0.8c0.5,0,0.8,0.5,0.8,0.9c-0.1,0.8-0.1,1.6-0.2,2.4C947,511.1,946.6,511.4,946.1,511.4z M1120.3,503.6
		c-0.4,0-0.8-0.3-0.9-0.8c-0.1-0.8-0.2-1.6-0.4-2.4c-0.1-0.5,0.2-0.9,0.7-1c0.5-0.1,0.9,0.2,1,0.7c0.1,0.8,0.3,1.6,0.4,2.4
		c0.1,0.5-0.3,0.9-0.7,1C1120.4,503.5,1120.3,503.6,1120.3,503.6z M947.6,499.3c-0.1,0-0.1,0-0.2,0c-0.5-0.1-0.8-0.5-0.7-1
		c0.2-0.8,0.3-1.6,0.5-2.4c0.1-0.5,0.6-0.8,1-0.7c0.5,0.1,0.8,0.6,0.7,1c-0.2,0.8-0.3,1.6-0.5,2.4C948.4,499,948,499.3,947.6,499.3z
		 M1117.7,491.6c-0.4,0-0.7-0.2-0.8-0.6c-0.2-0.8-0.5-1.6-0.7-2.3c-0.1-0.5,0.1-0.9,0.6-1.1c0.5-0.1,0.9,0.1,1.1,0.6
		c0.3,0.8,0.5,1.6,0.7,2.4c0.1,0.5-0.1,0.9-0.6,1.1C1117.9,491.5,1117.8,491.6,1117.7,491.6z M950.8,487.4c-0.1,0-0.2,0-0.3,0
		c-0.5-0.2-0.7-0.7-0.5-1.1c0.3-0.8,0.6-1.6,0.8-2.3c0.2-0.4,0.7-0.7,1.1-0.5c0.5,0.2,0.7,0.7,0.5,1.1c-0.3,0.8-0.6,1.5-0.8,2.3
		C951.5,487.2,951.1,487.4,950.8,487.4z M1113.5,480.1c-0.3,0-0.6-0.2-0.8-0.5c-0.3-0.7-0.7-1.5-1-2.2c-0.2-0.4,0-1,0.4-1.2
		c0.4-0.2,1,0,1.2,0.4c0.4,0.7,0.7,1.5,1,2.2c0.2,0.4,0,1-0.4,1.2C1113.7,480,1113.6,480.1,1113.5,480.1z M955.6,476.1
		c-0.1,0-0.3,0-0.4-0.1c-0.4-0.2-0.6-0.7-0.4-1.2c0.4-0.7,0.8-1.5,1.2-2.2c0.2-0.4,0.8-0.6,1.2-0.3c0.4,0.2,0.6,0.8,0.3,1.2
		c-0.4,0.7-0.8,1.4-1.1,2.2C956.2,475.9,955.9,476.1,955.6,476.1z M1107.7,469.3c-0.3,0-0.6-0.1-0.7-0.4c-0.4-0.7-0.9-1.4-1.3-2
		c-0.3-0.4-0.2-0.9,0.2-1.2c0.4-0.3,0.9-0.2,1.2,0.2c0.5,0.7,0.9,1.4,1.4,2.1c0.3,0.4,0.1,0.9-0.3,1.2
		C1108,469.2,1107.9,469.3,1107.7,469.3z M961.9,465.6c-0.2,0-0.3-0.1-0.5-0.2c-0.4-0.3-0.5-0.8-0.2-1.2c0.5-0.7,1-1.3,1.5-2
		c0.3-0.4,0.8-0.5,1.2-0.2c0.4,0.3,0.5,0.8,0.2,1.2c-0.5,0.6-1,1.3-1.4,2C962.4,465.5,962.2,465.6,961.9,465.6z M1100.5,459.4
		c-0.2,0-0.5-0.1-0.7-0.3c-0.5-0.6-1.1-1.2-1.6-1.8c-0.3-0.4-0.3-0.9,0.1-1.2s0.9-0.3,1.2,0.1c0.6,0.6,1.1,1.2,1.6,1.9
		c0.3,0.4,0.3,0.9-0.1,1.2C1100.9,459.3,1100.7,459.4,1100.5,459.4z M969.6,456.1c-0.2,0-0.4-0.1-0.6-0.2c-0.4-0.3-0.4-0.9,0-1.2
		c0.6-0.6,1.1-1.2,1.7-1.8c0.3-0.3,0.9-0.3,1.2,0c0.3,0.3,0.3,0.9,0,1.2c-0.6,0.6-1.1,1.2-1.7,1.8
		C970.1,456,969.9,456.1,969.6,456.1z M1091.9,450.6c-0.2,0-0.4-0.1-0.6-0.2c-0.6-0.5-1.2-1.1-1.8-1.6c-0.4-0.3-0.4-0.9-0.1-1.2
		c0.3-0.4,0.9-0.4,1.2-0.1c0.6,0.5,1.3,1.1,1.9,1.6c0.4,0.3,0.4,0.9,0.1,1.2C1092.4,450.5,1092.1,450.6,1091.9,450.6z M978.6,447.7
		c-0.3,0-0.5-0.1-0.7-0.3c-0.3-0.4-0.2-0.9,0.1-1.2c0.6-0.5,1.3-1,1.9-1.5c0.4-0.3,0.9-0.2,1.2,0.2c0.3,0.4,0.2,0.9-0.2,1.2
		c-0.6,0.5-1.3,1-1.9,1.5C979,447.7,978.8,447.7,978.6,447.7z M1082.2,443.1c-0.2,0-0.3,0-0.5-0.1c-0.7-0.4-1.4-0.9-2-1.3
		c-0.4-0.3-0.5-0.8-0.3-1.2c0.3-0.4,0.8-0.5,1.2-0.3c0.7,0.4,1.4,0.9,2.1,1.4c0.4,0.3,0.5,0.8,0.2,1.2
		C1082.8,442.9,1082.5,443.1,1082.2,443.1z M988.7,440.7c-0.3,0-0.6-0.2-0.7-0.4c-0.2-0.4-0.1-0.9,0.3-1.2c0.7-0.4,1.4-0.8,2.1-1.2
		c0.4-0.2,1-0.1,1.2,0.3c0.2,0.4,0.1,1-0.3,1.2c-0.7,0.4-1.4,0.8-2.1,1.2C989,440.7,988.8,440.7,988.7,440.7z M1071.6,437
		c-0.1,0-0.3,0-0.4-0.1c-0.7-0.4-1.5-0.7-2.2-1c-0.4-0.2-0.6-0.7-0.4-1.2c0.2-0.4,0.7-0.6,1.2-0.4c0.8,0.3,1.5,0.7,2.3,1
		c0.4,0.2,0.6,0.7,0.4,1.2C1072.2,436.8,1071.9,437,1071.6,437z M999.6,435.2c-0.3,0-0.7-0.2-0.8-0.5c-0.2-0.4,0-1,0.5-1.1
		c0.8-0.3,1.5-0.6,2.3-0.9c0.4-0.2,1,0.1,1.1,0.5c0.2,0.4,0,1-0.5,1.1c-0.8,0.3-1.5,0.6-2.2,0.9
		C999.8,435.2,999.7,435.2,999.6,435.2z M1060.2,432.4c-0.1,0-0.2,0-0.3,0c-0.8-0.2-1.5-0.5-2.3-0.7c-0.5-0.1-0.7-0.6-0.6-1.1
		c0.1-0.5,0.6-0.7,1.1-0.6c0.8,0.2,1.6,0.5,2.4,0.7c0.5,0.1,0.7,0.6,0.6,1.1C1060.9,432.2,1060.5,432.4,1060.2,432.4z M1011.2,431.2
		c-0.4,0-0.7-0.3-0.8-0.6c-0.1-0.5,0.2-0.9,0.6-1.1c0.8-0.2,1.6-0.4,2.4-0.6c0.5-0.1,0.9,0.2,1,0.6c0.1,0.5-0.2,0.9-0.6,1
		c-0.8,0.2-1.6,0.4-2.4,0.6C1011.3,431.2,1011.3,431.2,1011.2,431.2z M1048.2,429.6c0,0-0.1,0-0.1,0c-0.8-0.1-1.6-0.3-2.4-0.4
		c-0.5-0.1-0.8-0.5-0.7-1c0.1-0.5,0.5-0.8,1-0.7c0.8,0.1,1.6,0.2,2.4,0.4c0.5,0.1,0.8,0.5,0.7,1
		C1049,429.3,1048.7,429.6,1048.2,429.6z M1023.2,428.9c-0.4,0-0.8-0.3-0.9-0.8c-0.1-0.5,0.3-0.9,0.8-1c0.8-0.1,1.6-0.2,2.5-0.3
		c0.5,0,0.9,0.3,0.9,0.8c0,0.5-0.3,0.9-0.8,0.9c-0.8,0.1-1.6,0.2-2.4,0.3C1023.3,428.9,1023.3,428.9,1023.2,428.9z M1036,428.4
		C1036,428.4,1036,428.4,1036,428.4c-0.8,0-1.6,0-2.5,0c-0.5,0-0.9-0.4-0.9-0.9c0-0.5,0.4-0.9,0.9-0.9c0.8,0,1.7,0,2.5,0
		c0.5,0,0.9,0.4,0.8,0.9C1036.9,428,1036.5,428.4,1036,428.4z M782.4,592.3c-32.3,0-58.6-26.3-58.6-58.6s26.3-58.6,58.6-58.6
		c32.3,0,58.6,26.3,58.6,58.6S814.7,592.3,782.4,592.3z M782.4,476.9c-31.3,0-56.8,25.5-56.8,56.8s25.5,56.8,56.8,56.8
		c31.3,0,56.8-25.5,56.8-56.8S813.7,476.9,782.4,476.9z M627.3,482.9c-7.4,0-13.4-6-13.4-13.4s6-13.4,13.4-13.4
		c7.4,0,13.4,6,13.4,13.4S634.7,482.9,627.3,482.9z M627.3,457.8c-6.4,0-11.7,5.2-11.7,11.7s5.2,11.7,11.7,11.7s11.7-5.2,11.7-11.7
		S633.7,457.8,627.3,457.8z M927.6,410.9c-8.1,0-16.1-2-23.1-5.9c-15.4-8.5-24.9-24.6-24.9-42.1c0-26.5,21.5-48,48-48
		c26.5,0,48,21.5,48,48S954,410.9,927.6,410.9z M927.6,316.6c-25.5,0-46.3,20.8-46.3,46.3c0,16.9,9.2,32.4,24,40.6
		c6.8,3.7,14.5,5.7,22.3,5.7c25.5,0,46.3-20.8,46.3-46.3C973.8,337.3,953.1,316.6,927.6,316.6z M1069.3,143.2
		c-7.4,0-13.4-6-13.4-13.4c0-7.4,6-13.4,13.4-13.4s13.4,6,13.4,13.4C1082.7,137.2,1076.7,143.2,1069.3,143.2z M1069.3,118.1
		c-6.4,0-11.7,5.2-11.7,11.7s5.2,11.7,11.7,11.7s11.7-5.2,11.7-11.7S1075.7,118.1,1069.3,118.1z M603.8,84.7
		c-7.4,0-13.4-6-13.4-13.4s6-13.4,13.4-13.4c7.4,0,13.4,6,13.4,13.4S611.2,84.7,603.8,84.7z M603.8,59.6c-6.4,0-11.7,5.2-11.7,11.7
		s5.2,11.7,11.7,11.7s11.7-5.2,11.7-11.7S610.3,59.6,603.8,59.6z M323.8,490.1c-44.6,0-80.9-36.3-80.9-80.9
		c0-44.6,36.3-80.9,80.9-80.9s80.9,36.3,80.9,80.9C404.7,453.9,368.4,490.1,323.8,490.1z M323.8,330.1c-43.6,0-79.1,35.5-79.1,79.1
		s35.5,79.1,79.1,79.1c43.6,0,79.1-35.5,79.1-79.1S367.4,330.1,323.8,330.1z M69.7,423.4c-10.3,0-20.5-2.6-29.5-7.6
		c-19.6-10.8-31.8-31.4-31.8-53.7c0-33.8,27.5-61.3,61.3-61.3c33.8,0,61.3,27.5,61.3,61.3C131,395.9,103.5,423.4,69.7,423.4z
		 M69.7,302.6c-32.8,0-59.6,26.7-59.6,59.6c0,21.7,11.8,41.7,30.9,52.2c8.7,4.8,18.6,7.3,28.7,7.3c32.8,0,59.6-26.7,59.6-59.6
		C129.2,329.3,102.5,302.6,69.7,302.6z M163.5,642.1c-35.5,0-64.4-28.9-64.4-64.4c0-35.5,28.9-64.4,64.4-64.4s64.4,28.9,64.4,64.4
		C227.9,613.2,199,642.1,163.5,642.1z M163.5,515.1c-34.5,0-62.6,28.1-62.6,62.6s28.1,62.6,62.6,62.6s62.6-28.1,62.6-62.6
		S198.1,515.1,163.5,515.1z"/>
</g>
<g id="Layer_1">
	<g>
		<path class="st6" d="M628,557.7c0,4.6-3.8,8.4-8.4,8.4c-4.7,0-8.4-3.8-8.4-8.4c0-4.7,3.8-8.4,8.4-8.4
			C624.2,549.2,628,553,628,557.7z"/>
		<g>
			<path class="st6" d="M327.9,612.7c-3.5,0-6.3-2.8-6.3-6.3c0-3.5,2.8-6.3,6.3-6.3c3.5,0,6.3,2.8,6.3,6.3
				C334.2,609.9,331.4,612.7,327.9,612.7z"/>
			<path class="st6" d="M430.2,434c-2-1.9-2-5.1,0-7c2-1.9,5.3-1.9,7.3,0c2,1.9,2,5.1,0,7C435.5,436,432.3,435.9,430.2,434z"/>
		</g>
		<g>
			<path class="st6" d="M661.6,10.3c1.9-2,5.1-2,7,0s1.9,5.3,0,7.3s-5.1,2-7,0S659.6,12.3,661.6,10.3z"/>
			<path class="st6" d="M608.6,182.4c1.9-2,5.1-2,7,0c1.9,2,1.9,5.3,0,7.3c-1.9,2-5.1,2-7,0C606.7,187.7,606.7,184.4,608.6,182.4z"
				/>
		</g>
		<path class="st7" d="M1101.3,337.2c4.9-0.7,9.5,2.8,10.2,7.6c0.7,4.9-2.8,9.5-7.6,10.2c-4.9,0.7-9.5-2.8-10.2-7.6
			C1093,342.4,1096.4,337.9,1101.3,337.2z"/>
		<path class="st7" d="M590.4,250.7c2,1.9,2.1,5.1,0.1,7c-2,1.9-5.3,2-7.3,0.1c-2-1.9-2.1-5.1-0.1-7
			C585,248.7,588.3,248.7,590.4,250.7z"/>
		<path class="st6" d="M894.9,624.9c-1.7-2.2-1.2-5.3,1-6.9c2.2-1.6,5.5-1.1,7.2,1c1.7,2.2,1.2,5.3-1,6.9
			C899.9,627.5,896.7,627.1,894.9,624.9z"/>
		<path class="st6" d="M819.8,645.8c-1.7-2.2-1.2-5.3,1-6.9c2.2-1.6,5.5-1.1,7.2,1c1.7,2.2,1.2,5.3-1,6.9
			C824.8,648.4,821.5,648,819.8,645.8z"/>
		<path class="st6" d="M833.5,147.4c2,1.9,2.1,5.1,0.1,7c-2,1.9-5.3,2-7.3,0.1c-2-1.9-2.1-5.1-0.1-7
			C828.1,145.5,831.4,145.5,833.5,147.4z"/>
		<path class="st7" d="M774.7,182.6c1.4,1.3,1.4,3.4,0.1,4.7c-1.3,1.3-3.6,1.3-4.9,0.1c-1.4-1.3-1.4-3.4-0.1-4.7
			C771.1,181.3,773.4,181.3,774.7,182.6z"/>
		<path class="st6" d="M519.8,89.9c1.4,1.3,1.4,3.4,0.1,4.7c-1.3,1.3-3.6,1.3-4.9,0.1c-1.4-1.3-1.4-3.4-0.1-4.7
			C516.3,88.7,518.4,88.7,519.8,89.9z"/>
		<path class="st6" d="M544.8,143.1c0.9,0.8,0.9,2.2,0,3.2c-0.9,0.9-2.3,0.9-3.3,0c-0.9-0.8-0.9-2.2,0-3.2
			C542.5,142.3,543.9,142.3,544.8,143.1z"/>
		<circle class="st8" cx="412.7" cy="216" r="62.1"/>
		<circle class="st8" cx="1033.6" cy="515.1" r="62.1"/>
		
			<ellipse transform="matrix(0.7071 -0.7071 0.7071 0.7071 -32.7865 563.0281)" class="st8" cx="663.2" cy="321.1" rx="62.1" ry="62.1"/>
		<path class="st6" d="M841.9,242.7c1.4,1.3,1.4,3.4,0.1,4.7s-3.6,1.3-4.9,0.1c-1.4-1.3-1.4-3.4-0.1-4.7
			C838.3,241.5,840.6,241.5,841.9,242.7z"/>
		<path class="st6" d="M899.9,233.4c1.4,1.3,1.4,3.4,0.1,4.7c-1.3,1.3-3.6,1.3-4.9,0.1c-1.4-1.3-1.4-3.4-0.1-4.7
			C896.4,232.1,898.6,232,899.9,233.4z"/>
		<path class="st6" d="M1101.9,611.9c1.4,1.3,1.4,3.4,0.1,4.7c-1.3,1.3-3.6,1.3-4.9,0.1c-1.3-1.2-1.4-3.4-0.1-4.7
			C1098.2,610.6,1100.5,610.6,1101.9,611.9z"/>
		<path class="st6" d="M1006.8,53.4c1.4,1.3,1.4,3.4,0.1,4.7c-1.3,1.3-3.6,1.3-4.9,0.1c-1.4-1.3-1.4-3.4-0.1-4.7
			C1003.2,52.1,1005.4,52.1,1006.8,53.4z"/>
		<path class="st6" d="M980.9,286.8c1.4,1.3,1.4,3.4,0.1,4.7c-1.3,1.3-3.6,1.3-4.9,0.1c-1.4-1.3-1.4-3.4-0.1-4.7
			C977.2,285.5,979.4,285.5,980.9,286.8z"/>
		<path class="st6" d="M668,426.7c1.4,1.3,1.4,3.4,0.1,4.7c-1.3,1.3-3.6,1.3-4.9,0.1c-1.4-1.3-1.4-3.4-0.1-4.7
			C664.3,425.4,666.5,425.4,668,426.7z"/>
		<path class="st6" d="M1010,225.1c-1.7-2.2-1.2-5.3,1-6.9c2.2-1.6,5.5-1.1,7.2,1c1.7,2.2,1.2,5.3-1,6.9
			C1015,227.7,1011.8,227.2,1010,225.1z"/>
		<path class="st6" d="M668.7,650.4c1.4,1.3,1.4,3.4,0.1,4.7c-1.3,1.3-3.6,1.3-4.9,0.1c-1.4-1.3-1.4-3.4-0.1-4.7
			C665.1,649.2,667.3,649.2,668.7,650.4z"/>
		<path class="st6" d="M596.8,616.3c1.4,1.3,1.4,3.4,0.1,4.7c-1.3,1.3-3.6,1.3-4.9,0.1c-1.4-1.3-1.4-3.4-0.1-4.7
			C593.2,615.1,595.5,615,596.8,616.3z"/>
		<line class="st7" x1="718.7" y1="417.4" x2="665.9" y2="429.1"/>
		<path class="st6" d="M712.3,420.3c-1.7-2.2-1.2-5.3,1-6.9c2.2-1.6,5.5-1.1,7.2,1c1.7,2.2,1.2,5.3-1,6.9
			C717.2,423.1,713.9,422.5,712.3,420.3z"/>
		<path class="st6" d="M1161.9,291.1c-0.6-0.6-0.6-1.5,0-2.1c0.6-0.6,1.6-0.5,2.2,0c0.6,0.6,0.6,1.5,0,2.1
			C1163.5,291.7,1162.5,291.7,1161.9,291.1z"/>
		<g>
			<g>
				<path class="st7" d="M685.9,573.3c-1.3-1.3-1.3-3.5,0.1-4.7s3.6-1.2,4.9,0.1c1.3,1.3,1.3,3.5-0.1,4.7S687.2,574.6,685.9,573.3z"
					/>
				<path class="st6" d="M751.3,462.7c-1.9-1.9-1-5.6,3-5.6c3.1,0.7,3.8,4.1,1.9,5.7C754.9,464.1,752.7,464,751.3,462.7z"/>
			</g>
		</g>
		<path class="st6" d="M718.5,85.9c-1.3-1.3-1.3-3.5,0.1-4.7s3.6-1.2,4.9,0.1c1.3,1.3,1.3,3.5-0.1,4.7
			C722,87.4,719.9,87.2,718.5,85.9z"/>
		<path class="st6" d="M655.4,119.2c-0.6-0.6-0.6-1.5,0-2.1c0.6-0.6,1.6-0.5,2.2,0c0.6,0.6,0.6,1.5,0,2.1
			C657.1,119.8,656,119.8,655.4,119.2z"/>
		<g>
			<circle class="st9" cx="412.3" cy="187.8" r="13.8"/>
			<g>
				<circle class="st9" cx="412.5" cy="221.5" r="8.9"/>
				<path class="st9" d="M391.8,219.5c0.5-0.2,1.1-0.3,1.7-0.3c3.6,0,6.4,2.9,6.4,6.4c0,3.5-2.9,6.4-6.4,6.4s-6.4-2.9-6.4-6.4
					c0-1.3,0.4-2.6,1.1-3.7"/>
				<line class="st9" x1="388" y1="250.6" x2="388" y2="242.9"/>
				<path class="st9" d="M403.5,243.1v10c0,0.7-0.5,1.2-1.2,1.2h-4.6c-0.7,0-1.2-0.5-1.2-1.2v-3.5"/>
			</g>
			<g>
				<path class="st9" d="M433.5,219.5c-0.5-0.2-1.1-0.3-1.7-0.3c-3.6,0-6.4,2.9-6.4,6.4c0,3.6,2.9,6.4,6.4,6.4
					c3.5,0,6.4-2.9,6.4-6.4c0-1.3-0.4-2.6-1.1-3.7"/>
				<path class="st9" d="M426.9,235.7l7.4-0.1c0,0,1.1,0,1.5,0c3.7,0,6.6,3,6.6,6.6v0.3v6.8c0,0.8-0.6,1.5-1.5,1.5h-10.9
					c-0.8,0-1.5-0.6-1.5-1.5v-8c0-1.5-0.4-4.2-2-5.7c-1.3-1.3-3-1.9-4.6-1.9c-1.7,0-7.6,0-7.6,0h-3.9c0,0-5.8,0-7.6,0
					c-1.7,0-3.3,0.7-4.6,1.9c-1.6,1.6-2,4.2-2,5.7v8c0,0.8-0.6,1.5-1.5,1.5h-10.9c-0.8,0-1.5-0.6-1.5-1.5v-6.8v-0.3
					c0-3.7,3-6.6,6.6-6.6c0.4,0,1.5,0,1.5,0l7.4,0.1"/>
				<line class="st9" x1="437.3" y1="250.6" x2="437.3" y2="242.9"/>
				<path class="st9" d="M421.8,243.1v10c0,0.7,0.5,1.2,1.2,1.2h4.6c0.7,0,1.2-0.5,1.2-1.2v-3.5"/>
			</g>
			<g>
				<path class="st7" d="M414.6,187.1c-0.6-0.3-1.3-0.6-1.9-0.9c-0.3-0.2-0.8-0.3-1-0.6c-0.6-0.5-0.5-1.3,0.3-1.7
					c0.2-0.1,0.4-0.1,0.6-0.2c0.9-0.1,1.7,0.1,2.4,0.5c0.3,0.2,0.5,0.1,0.6-0.3c0.2-0.4,0.3-0.9,0.3-1.3c0.1-0.3,0-0.4-0.3-0.6
					c-0.5-0.3-1-0.3-1.6-0.4c-0.7-0.1-0.7-0.1-0.7-0.8c0-1,0-1-1-1c-0.2,0-0.3,0-0.4,0c-0.4,0-0.5,0.1-0.5,0.5c0,0.2,0,0.4,0,0.6
					c0,0.6,0,0.6-0.6,0.8c-1.5,0.5-2.4,1.5-2.4,3.1c-0.1,1.4,0.6,2.4,1.7,3.1c0.7,0.4,1.5,0.7,2.3,1c0.3,0.1,0.6,0.3,0.8,0.4
					c0.7,0.6,0.6,1.6-0.3,1.9c-0.4,0.2-1,0.3-1.4,0.2c-0.8-0.1-1.5-0.3-2.2-0.6c-0.4-0.2-0.5-0.2-0.7,0.3c-0.1,0.3-0.3,0.8-0.3,1.1
					c-0.2,0.5-0.1,0.6,0.4,0.9c0.6,0.3,1.3,0.4,1.9,0.5c0.5,0.1,0.5,0.1,0.5,0.7c0,0.3,0,0.5,0,0.8c0,0.3,0.2,0.5,0.4,0.5
					c0.3,0,0.7,0,1.1,0c0.3,0,0.4-0.2,0.4-0.4c0-0.3,0-0.7,0-1c0-0.3,0.2-0.5,0.4-0.6c0.8-0.2,1.4-0.6,1.9-1.2
					C417.1,190.7,416.6,188.2,414.6,187.1z"/>
			</g>
			<circle class="st9" cx="412.3" cy="187.8" r="18"/>
			<line class="st9" x1="390.9" y1="208.9" x2="390.9" y2="197.1"/>
			<line class="st9" x1="397.1" y1="214.9" x2="397.1" y2="207.1"/>
			<line class="st9" x1="426.2" y1="214.9" x2="426.2" y2="207.9"/>
			<line class="st9" x1="432.5" y1="214.9" x2="432.5" y2="212.4"/>
			<line class="st9" x1="432.4" y1="209.2" x2="432.4" y2="197.1"/>
			<line class="st9" x1="390.9" y1="214.9" x2="390.9" y2="212.4"/>
		</g>
		<polyline class="st9" points="537.6,532.1 554.7,515.1 578,514.7 		"/>
		<polyline class="st9" points="441,609.2 465.3,609.2 482.9,591.5 		"/>
		<line class="st9" x1="453" y1="613.4" x2="461.5" y2="613.4"/>
		<line class="st9" x1="441.3" y1="613.4" x2="445" y2="613.4"/>
		<line class="st9" x1="565.7" y1="511" x2="557.3" y2="511"/>
		<line class="st9" x1="577.3" y1="511" x2="573.8" y2="511"/>
		<line class="st10" x1="474.2" y1="527.8" x2="484.8" y2="540.9"/>
		<g>
			<g>
				<g>
					<ellipse class="st11" cx="1034.2" cy="510.6" rx="21.4" ry="5.2"/>
					<path class="st11" d="M1012.8,492.4c0-2.9,9.6-5.2,21.4-5.2c11.8,0,21.4,2.3,21.4,5.2"/>
					<line class="st11" x1="1055.6" y1="492.4" x2="1055.6" y2="510.6"/>
					<line class="st11" x1="1012.8" y1="492.6" x2="1012.8" y2="510.8"/>
					<polyline class="st11" points="989,489.8 1034.2,472.2 1078,489.8 					"/>
					<line class="st11" x1="1078" y1="489.8" x2="1055.6" y2="499.5"/>
					<line class="st11" x1="1011.8" y1="499" x2="989" y2="489.8"/>
					<line class="st11" x1="1066.2" y1="485.1" x2="1066.2" y2="502.5"/>
					<path class="st11" d="M1063.3,512.8v-7.2c0-1.6,1.3-3.1,3.1-3.1l0,0c1.6,0,3.1,1.3,3.1,3.1v7.2H1063.3z"/>
				</g>
				<path class="st11" d="M1028.4,516.7"/>
				<path class="st12" d="M1035.5,520.5"/>
			</g>
			<g>
				<path class="st13" d="M1007.1,541.7c-3.3,0-5.8-3.6-5.8-8c0-4.4,2.7-8,5.8-8"/>
				<ellipse class="st13" cx="1063.5" cy="533.7" rx="5.8" ry="8"/>
				<path class="st13" d="M1028.7,541.7c-3.3,0-5.8-3.6-5.8-8c0-4.4,2.7-8,5.8-8"/>
				<path class="st13" d="M1043.4,541.7c-3.3,0-5.8-3.6-5.8-8c0-4.4,2.7-8,5.8-8"/>
				<line class="st13" x1="1007.1" y1="525.8" x2="1063.5" y2="525.8"/>
				<line class="st13" x1="1006.8" y1="541.7" x2="1063.9" y2="541.7"/>
				<polyline class="st13" points="1022.6,540.8 1020.1,555.9 1026.4,551.7 1031,557.8 1033.7,542.2 				"/>
				<polyline class="st13" points="1044.9,541.8 1048.8,562.8 1043,557.2 1039.4,563.9 1035.3,542.2 				"/>
			</g>
		</g>
		
			<ellipse transform="matrix(0.7071 -0.7071 0.7071 0.7071 -148.2405 709.5378)" class="st8" cx="782.4" cy="533.7" rx="62.1" ry="62.1"/>
		<g>
			
				<ellipse transform="matrix(0.2627 -0.9649 0.9649 0.2627 63.1526 1120.6388)" class="st14" cx="764.8" cy="519" rx="26.4" ry="8.1"/>
			<path class="st13" d="M784.7,507.3c0.1,4.9-0.8,11.3-2.7,18.1c-1.5,5.7-3.6,10.8-5.7,14.8"/>
			<line class="st13" x1="775.2" y1="501.7" x2="775.2" y2="501.7"/>
			<path class="st11" d="M792.8,512.6c-6.2-3.7-13.7-8.6-18.5-16.3"/>
			<path class="st11" d="M760,544.2c0.1-0.1,0.3-0.1,0.4-0.2h0.1c5.3-2.4,10.8-3.4,15.9-3.7c2.5-0.1,5.1-0.1,7.4,0
				c8.3,0.2,14.9,1.2,17.9,2.1c3.2,1,9.9,3.4,14.9,5.2"/>
			<path class="st11" d="M824.6,526C824.5,526,824.5,526,824.6,526l-14.4-5.1l-1-0.3c-2.1-0.8-6-2.4-10.7-4.8"/>
			<path class="st11" d="M824.5,526L824.5,526c5.6,2,8.5,8.1,6.5,13.7l-0.5,1.3c-1.9,5.6-8.2,8.7-13.8,6.7"/>
			<path class="st11" d="M832.5,529.1"/>
			<path class="st11" d="M769.6,527.8c-4-1.1-6.2-5.3-5.1-9.3c1.1-4,5.3-6.2,9.3-5.1"/>
			<path class="st11" d="M795.3,541.3c0,0.8,0.4,2.5,1.2,3.4c1.3,1.2,2.3,0.9,4.5,1.6c2.9,0.9,5.1,3.2,6.7,4.4c0.6,0.5,2.2,1,3,0.8
				c2-0.5,4.2-4.4,4.2-4.4"/>
			<path class="st11" d="M798.1,545.5l-13.9,25c-0.7,1.2-0.2,2.8,0.9,3.4l6.1,3.5c1.2,0.7,2.8,0.3,3.5-0.9l13.9-25"/>
			<line class="st11" x1="743.9" y1="497.5" x2="752.5" y2="505.8"/>
			<line class="st11" x1="737.4" y1="512.5" x2="750" y2="515.7"/>
			<line class="st11" x1="737" y1="530" x2="749.2" y2="526"/>
			<g>
				<circle class="st13" cx="798.7" cy="557.1" r="2.8"/>
			</g>
			<g>
				<line class="st11" x1="817.1" y1="529.1" x2="824.2" y2="531.6"/>
				<line class="st11" x1="815.8" y1="533" x2="822.8" y2="535.5"/>
				<line class="st11" x1="814.6" y1="537" x2="821.5" y2="539.4"/>
				<line class="st11" x1="813.3" y1="540.8" x2="820.2" y2="543.3"/>
			</g>
		</g>
		<g>
			<g>
				<g>
					<line class="st10" x1="501.1" y1="586.6" x2="501.1" y2="603.7"/>
					<path class="st10" d="M513.1,583.7c-3.6,1.9-7.7,3.1-12,3.1c-14.2,0-25.7-11.5-25.7-25.7c0-8.3,4-15.7,10.1-20.4
						c4.3-3.3,9.7-5.3,15.6-5.3l0,0v-17l0,0c-23.6,0-42.6,19.1-42.6,42.6s19.1,42.6,42.6,42.6c12.1,0,23-5,30.8-13.2"/>
					<path class="st10" d="M536.9,584.3c4.4-6.7,6.9-14.7,6.9-23.2l0,0h-11.3"/>
					<line class="st10" x1="475.4" y1="560.9" x2="458.5" y2="560.9"/>
					<path class="st10" d="M509.2,507c23.6,0,42.6,19.1,42.6,42.6l0,0h-17l0,0c0-14.2-11.5-25.7-25.7-25.7l0,0L509.2,507"/>
					<g>
						<path class="st7" d="M512,543.8v19.3c-1.3,1-2.4,2.3-3.2,3.9v-23.1c0-0.9,0.7-1.6,1.6-1.6C511.3,542.2,512,542.9,512,543.8z"
							/>
						<path class="st7" d="M486.1,568.6L486.1,568.6c-0.9,0-1.6-0.7-1.6-1.6v-3.1c0-0.9,0.7-1.6,1.6-1.6l0,0c0.9,0,1.6,0.7,1.6,1.6
							v3.1C487.6,567.9,486.9,568.6,486.1,568.6z"/>
						<path class="st7" d="M494.1,568.6L494.1,568.6c-0.9,0-1.6-0.7-1.6-1.6v-9c0-0.9,0.7-1.6,1.6-1.6l0,0c0.9,0,1.6,0.7,1.6,1.6v9
							C495.8,567.9,495.1,568.6,494.1,568.6z"/>
						<path class="st7" d="M502.3,568.6L502.3,568.6c-0.9,0-1.6-0.7-1.6-1.6V551c0-0.9,0.7-1.6,1.6-1.6l0,0c0.9,0,1.6,0.7,1.6,1.6
							v15.9C503.9,567.9,503.1,568.6,502.3,568.6z"/>
						<path class="st7" d="M520.1,538.3v21.9c-0.1,0-0.1,0-0.2,0c-1,0-2,0.1-3,0.3v-22.3c0-0.9,0.7-1.6,1.6-1.6
							C519.4,536.7,520.1,537.4,520.1,538.3z"/>
					</g>
				</g>
				<g>
					<path class="st11" d="M520.1,560.2c6.8,0.1,12.3,5.7,12.3,12.5c0,6.9-5.6,12.5-12.5,12.5s-12.5-5.6-12.5-12.5
						c0-2.1,0.5-4.2,1.4-5.9"/>
					<path class="st11" d="M516.9,560.6c-1.8,0.4-3.5,1.3-4.9,2.4"/>
					<path class="st11" d="M526.4,584l10,10c1.1,1.1,3.1,1.1,4.2,0l0.4-0.4c1.1-1.1,1.1-3.1,0-4.2l-10-10"/>
					<circle class="st15" cx="519.8" cy="572.8" r="9.3"/>
				</g>
			</g>
			<path class="st11" d="M519.8,560.3c-6.9,0-12.5,5.6-12.5,12.5"/>
		</g>
		<g>
			<g>
				<g>
					<path class="st16" d="M927.1,141.2c-5.3-1-10.2-3.5-14-6.8c-3-2.7-5.3-5.9-6.8-9.5c-1.3-3.2-2.1-6.6-2.1-10.3
						c0-11.2,7.5-20.4,16.3-24.5c12.3-5.8,23.9-0.3,25,0.3c8.8,4.4,15.8,13.8,15.7,24.3c-0.2,13.3-12.1,25.7-28.4,27.1"/>
					<path class="st16" d="M905.6,106.1c6.5-1,8.8,0.2,9.7,1.5c1.2,1.9-0.6,4,0.9,6.6c1.3,2.1,3.2,1.9,4.5,4.5
						c0.4,0.8,1.1,2.2,0.7,3.8c-0.6,2.4-3.4,2.3-4.7,5.3c-0.8,1.8-0.5,3.6-0.4,4c0.6,2.5,3.2,3.1,3.1,4.2c-0.1,0.5-0.6,0.9-2.2,1.3"
						/>
					<path class="st17" d="M934,100.8"/>
					<path class="st16" d="M956.4,99.9c1.5,2.5-1.5,5.5-1.7,5.9c-0.7,1.3-1.6,1.3-2.2,2.2c-1.1,1.7,0.4,3.8,1.4,7.3
						c0.6,2,2.3,8.3-0.3,10.8c-1.7,1.6-4.6,1-5,1c-1.7-0.4-1.8-2.9-4.1-5.1c-1.1-1.1-4-1.7-5.7-4.9c-1.9-3.5-1.1-3.7-2.4-5.1
						c-1.2-1.4-6.5-2.3-8.4-4.4c-2.1-2.3-1.9-6.8-0.6-9.6c0.2-0.5,0.5-1,0.8-1.4c1.3-1.9,3-3,3.9-3.6c1.5-1,3.7-2.5,6.3-4.9"/>
				</g>
			</g>
			<g>
				<circle class="st18" cx="883.9" cy="91.5" r="5.3"/>
				<path class="st18" d="M878.6,104.3v5.9c0,0.4-0.3,0.7-0.7,0.7h-2.8c-0.4,0-0.7-0.3-0.7-0.7v-2"/>
				<path class="st19" d="M875.6,99.9"/>
				<path class="st18" d="M893.5,107.9v-4.7c0-0.9-0.3-2.4-1.2-3.4c-0.7-0.7-1.7-1.1-2.8-1.1c-1,0-4.5,0-4.5,0h-2.3c0,0-3.5,0-4.5,0
					c-1,0-1.9,0.4-2.8,1.1c-0.9,0.9-1.2,2.4-1.2,3.4v4.7"/>
				<path class="st18" d="M889.4,104.3v5.9c0,0.4,0.3,0.7,0.7,0.7h2.8c0.4,0,0.7-0.3,0.7-0.7v-2"/>
			</g>
			<g>
				<circle class="st18" cx="932.9" cy="63.3" r="5.3"/>
				<path class="st18" d="M927.6,75.9v5.9c0,0.4-0.3,0.7-0.7,0.7h-2.8c-0.4,0-0.7-0.3-0.7-0.7v-2"/>
				<path class="st19" d="M924.5,71.6"/>
				<path class="st18" d="M942.4,79.7V75c0-0.9-0.3-2.4-1.2-3.4c-0.7-0.7-1.7-1.1-2.8-1.1s-4.5,0-4.5,0h-2.3c0,0-3.5,0-4.5,0
					c-1,0-1.9,0.4-2.8,1.1c-0.9,0.9-1.2,2.4-1.2,3.4v4.7"/>
				<path class="st18" d="M938.3,76v5.9c0,0.4,0.3,0.7,0.7,0.7h2.8c0.4,0,0.7-0.3,0.7-0.7v-2"/>
			</g>
			<g>
				<circle class="st18" cx="982.2" cy="91.5" r="5.3"/>
				<path class="st18" d="M976.9,104.3v5.9c0,0.4-0.3,0.7-0.7,0.7h-2.8c-0.4,0-0.7-0.3-0.7-0.7v-2"/>
				<path class="st19" d="M973.8,99.9"/>
				<path class="st18" d="M991.8,107.9v-4.7c0-0.9-0.3-2.4-1.2-3.4c-0.7-0.7-1.7-1.1-2.8-1.1c-1,0-4.5,0-4.5,0H981c0,0-3.5,0-4.5,0
					c-1,0-1.9,0.4-2.8,1.1c-0.9,0.9-1.2,2.4-1.2,3.4v4.7"/>
				<path class="st18" d="M987.7,104.3v5.9c0,0.4,0.3,0.7,0.7,0.7h2.8c0.4,0,0.7-0.3,0.7-0.7v-2"/>
			</g>
			<g>
				<circle class="st18" cx="967.9" cy="139.7" r="5.3"/>
				<path class="st18" d="M962.6,152.3v5.9c0,0.4-0.3,0.7-0.7,0.7h-2.8c-0.4,0-0.7-0.3-0.7-0.7v-2"/>
				<path class="st19" d="M959.6,147.9"/>
				<path class="st18" d="M977.5,156v-4.7c0-0.9-0.3-2.4-1.2-3.4c-0.7-0.7-1.7-1.1-2.8-1.1c-1,0-4.5,0-4.5,0h-2.3c0,0-3.5,0-4.5,0
					s-1.9,0.4-2.8,1.1c-0.9,0.9-1.2,2.4-1.2,3.4v4.7"/>
				<path class="st18" d="M973.4,152.3v5.9c0,0.4,0.3,0.7,0.7,0.7h2.8c0.4,0,0.7-0.3,0.7-0.7v-2"/>
			</g>
			<g>
				<circle class="st18" cx="896.7" cy="139.7" r="5.3"/>
				<path class="st18" d="M891.4,152.3v5.9c0,0.4-0.3,0.7-0.7,0.7h-2.8c-0.4,0-0.7-0.3-0.7-0.7v-2"/>
				<path class="st19" d="M888.3,147.9"/>
				<path class="st18" d="M906.2,156v-4.7c0-0.9-0.3-2.4-1.2-3.4c-0.7-0.7-1.7-1.1-2.8-1.1s-4.5,0-4.5,0h-2.3c0,0-3.5,0-4.5,0
					s-1.9,0.4-2.8,1.1c-0.9,0.9-1.2,2.4-1.2,3.4v4.7"/>
				<path class="st18" d="M902.2,152.3v5.9c0,0.4,0.3,0.7,0.7,0.7h2.8c0.4,0,0.7-0.3,0.7-0.7v-2"/>
			</g>
			<path class="st20" d="M956.9,154.7c-7,4.3-15.4,6.7-24.3,6.7c-9,0-17.4-2.5-24.6-6.9"/>
			<path class="st20" d="M979.5,114.6c0,7.6-1.8,14.9-5.1,21.3"/>
			<path class="st20" d="M938.3,68c17.2,2,31.5,13.5,37.8,29"/>
			<path class="st20" d="M889.5,96.1c6.2-14.7,19.8-25.5,36-27.9"/>
			<path class="st20" d="M891.6,137.2c-3.7-6.7-5.8-14.4-5.8-22.6"/>
		</g>
		<path class="st7" d="M690.1,122.7c2,1.9,2.1,5.1,0.1,7c-2,1.9-5.3,2-7.3,0.1c-2-1.9-2.1-5.1-0.1-7
			C684.8,120.9,688.1,120.8,690.1,122.7z"/>
		<path class="st7" d="M1116.2,291.5c6.9,0.8,7,9.3,0.2,10.3l0,0C1109.3,301,1109.2,292.5,1116.2,291.5z"/>
		<path class="st6" d="M865.1,39.1c1.4,1.3,1.4,3.4,0.1,4.7c-1.3,1.3-3.6,1.3-4.9,0.1c-1.4-1.3-1.4-3.4-0.1-4.7
			C861.5,37.9,863.7,37.8,865.1,39.1z"/>
		<path class="st21" d="M987.1,327l-98.5-40.8l20.1-120.5l12.9,3.8c5.2,1.5,10.6,1.8,16,1.1l11.7-1.6L987.1,327z"/>
		<polygon class="st21" points="442.4,449.2 497.6,374.4 608.2,338.1 616.4,356.9 		"/>
		<circle class="st8" cx="323.8" cy="409.3" r="86.1"/>
	</g>
	<path id="twitter_2_" class="st9" d="M920.6,378c14.1,0,21.8-11.6,21.8-21.7c0-0.3,0-0.7,0-1c1.5-1.1,2.8-2.4,3.8-4
		c-1.4,0.6-2.9,1-4.4,1.2c1.6-1,2.8-2.5,3.4-4.2c-1.5,0.9-3.1,1.5-4.9,1.9c-2.9-3.1-7.8-3.2-10.8-0.3c-2,1.9-2.8,4.6-2.2,7.3
		c-6.2-0.3-11.9-3.2-15.8-8c-2,3.5-1,8,2.4,10.2c-1.2,0-2.4-0.4-3.5-1c0,0,0,0.1,0,0.1c0,3.6,2.6,6.8,6.1,7.5
		c-1.1,0.3-2.3,0.4-3.5,0.1c1,3.1,3.9,5.2,7.2,5.3c-2.7,2.1-6.1,3.3-9.5,3.3c-0.6,0-1.2,0-1.8-0.1C912.4,376.8,916.5,378,920.6,378"
		/>
	<g>
		<path class="st7" d="M664.8,364v-40.6l35.2,20.3C692.6,355.5,679.6,363.5,664.8,364 M627,343.6l35.2-20.3V364
			C647.3,363.5,634.3,355.5,627,343.6 M659.6,278.3l-34.3,62.5c-3.1-5.9-4.8-12.6-4.8-19.7C620.5,298.7,637.7,280.3,659.6,278.3
			 M700,298.5l-28.8,16.6c3.3-4.8,5.1-10.4,5.1-16.3c0-7.8-3-15-8.4-20.4C681.4,279.7,693.1,287.5,700,298.5 M701.3,300.7
			c3.3,6.1,5.1,13,5.1,20.3s-1.9,14.3-5.1,20.3L666,321.1L701.3,300.7z M662.2,320.3L629,339.5l33.2-60.5V320.3z M664.8,318.6V279
			c5.7,5,8.9,12.1,8.9,19.8C673.7,306.4,670.4,313.6,664.8,318.6 M663.5,275.6c-25.1,0-45.5,20.4-45.5,45.5s20.4,45.5,45.5,45.5
			s45.5-20.4,45.5-45.5S688.6,275.6,663.5,275.6"/>
	</g>
	<path class="st9" d="M363.7,389.6h-3.4v-13.6h-3.4v-6.8H347v-10.2h-0.8v10.2h-9.8v6.8H333v13.6h-3.4v23.8h-3.4v-10.2h-3.4v-6.8
		h-5.1v-8.5h-3.4v8.5h-5.1v6.8h-3.4v10.2H299v47.7h-3.4v3.4h71.5v-3.4h-3.4V389.6z M351.8,461.1h-10.2v-13.6h10.2V461.1z
		 M312.6,399.8h6.8v3.4h-6.8V399.8z M309.2,406.6h13.6v6.8h-5.1V410h-3.4v3.4h-5.1V406.6z"/>
	<path class="st7" d="M336.4,396.4h3.4v3.4h-3.4V396.4z"/>
	<path class="st7" d="M345,396.4h3.4v3.4H345V396.4z"/>
	<path class="st7" d="M353.5,396.4h3.4v3.4h-3.4V396.4z"/>
	<path class="st7" d="M336.4,406.6h3.4v3.4h-3.4V406.6z"/>
	<path class="st7" d="M345,406.6h3.4v3.4H345V406.6z"/>
	<path class="st7" d="M353.5,406.6h3.4v3.4h-3.4V406.6z"/>
	<path class="st7" d="M336.4,416.8h3.4v3.4h-3.4V416.8z"/>
	<path class="st7" d="M345,416.8h3.4v3.4H345V416.8z"/>
	<path class="st7" d="M353.5,416.8h3.4v3.4h-3.4V416.8z"/>
	<path class="st7" d="M336.4,427h3.4v3.4h-3.4V427z"/>
	<path class="st7" d="M345,427h3.4v3.4H345V427z"/>
	<path class="st7" d="M353.5,427h3.4v3.4h-3.4V427z"/>
	<path class="st7" d="M336.4,437.2h3.4v3.4h-3.4V437.2z"/>
	<path class="st7" d="M345,437.2h3.4v3.4H345V437.2z"/>
	<path class="st7" d="M353.5,437.2h3.4v3.4h-3.4V437.2z"/>
	<path class="st7" d="M305.8,418.5h3.4v3.4h-3.4V418.5z"/>
	<path class="st7" d="M314.3,418.5h3.4v3.4h-3.4V418.5z"/>
	<path class="st7" d="M322.8,418.5h3.4v3.4h-3.4V418.5z"/>
	<path class="st7" d="M305.8,428.7h3.4v3.4h-3.4V428.7z"/>
	<path class="st7" d="M314.3,428.7h3.4v3.4h-3.4V428.7z"/>
	<path class="st7" d="M322.8,428.7h3.4v3.4h-3.4V428.7z"/>
	<path class="st7" d="M305.8,438.9h3.4v3.4h-3.4V438.9z"/>
	<path class="st7" d="M314.3,438.9h3.4v3.4h-3.4V438.9z"/>
	<path class="st7" d="M322.8,438.9h3.4v3.4h-3.4V438.9z"/>
	<path class="st7" d="M305.8,449.1h3.4v3.4h-3.4V449.1z"/>
	<path class="st7" d="M314.3,449.1h3.4v3.4h-3.4V449.1z"/>
	<path class="st7" d="M322.8,449.1h3.4v3.4h-3.4V449.1z"/>
	<path class="st7" d="M370.5,461.1h3.4v3.4h-3.4V461.1z"/>
	<path class="st7" d="M288.8,461.1h3.4v3.4h-3.4V461.1z"/>
	<line class="st9" x1="333" y1="389.6" x2="360.3" y2="389.6"/>
	<line class="st9" x1="336.4" y1="375.9" x2="356.9" y2="375.9"/>
	<line class="st9" x1="299" y1="461.1" x2="365.4" y2="461.1"/>
	<circle class="st9" cx="279.6" cy="383" r="13.8"/>
	<g>
		<path class="st7" d="M281.9,382.3c-0.6-0.3-1.3-0.6-1.9-0.9c-0.3-0.2-0.8-0.3-1-0.6c-0.6-0.5-0.5-1.3,0.3-1.7
			c0.2-0.1,0.4-0.1,0.6-0.2c0.9-0.1,1.7,0.1,2.4,0.5c0.3,0.2,0.5,0.1,0.6-0.3c0.2-0.4,0.3-0.9,0.3-1.3c0.1-0.3,0-0.4-0.3-0.6
			c-0.5-0.3-1-0.3-1.6-0.4c-0.7-0.1-0.7-0.1-0.7-0.8c0-1,0-1-1-1c-0.2,0-0.3,0-0.4,0c-0.4,0-0.5,0.1-0.5,0.5c0,0.2,0,0.4,0,0.6
			c0,0.6,0,0.6-0.6,0.8c-1.5,0.5-2.4,1.5-2.4,3.1c-0.1,1.4,0.6,2.4,1.7,3.1c0.7,0.4,1.5,0.7,2.3,1c0.3,0.1,0.6,0.3,0.8,0.4
			c0.7,0.6,0.6,1.6-0.3,1.9c-0.4,0.2-1,0.3-1.4,0.2c-0.8-0.1-1.5-0.3-2.2-0.6c-0.4-0.2-0.5-0.2-0.7,0.3c-0.1,0.3-0.3,0.8-0.3,1.1
			c-0.2,0.5-0.1,0.6,0.4,0.9c0.6,0.3,1.3,0.4,1.9,0.5c0.5,0.1,0.5,0.1,0.5,0.7c0,0.3,0,0.5,0,0.8c0,0.3,0.2,0.5,0.4,0.5
			c0.3,0,0.7,0,1.1,0c0.3,0,0.4-0.2,0.4-0.4c0-0.3,0-0.7,0-1s0.2-0.5,0.4-0.6c0.8-0.2,1.4-0.6,1.9-1.2
			C284.4,385.9,283.9,383.5,281.9,382.3z"/>
	</g>
	<circle class="st9" cx="279.6" cy="383" r="18"/>
	<line class="st9" x1="293.5" y1="411.5" x2="293.5" y2="403.1"/>
	<line class="st9" x1="264.6" y1="407.9" x2="264.6" y2="400.9"/>
	<line class="st9" x1="264.6" y1="420.3" x2="264.6" y2="413.3"/>
	<line class="st9" x1="260.2" y1="408.7" x2="260.2" y2="393.7"/>
	<line class="st9" x1="299.7" y1="404.4" x2="299.7" y2="392.3"/>
	<g>
		<path class="st7" d="M382.2,341.3c-1.7,0-3.1,1.3-3.1,3.1c0,1.7,1.3,3.1,3.1,3.1c1.7,0,3.1-1.3,3.1-3.1
			C385.3,342.6,383.8,341.3,382.2,341.3z"/>
		<path class="st7" d="M301,250.2c-1.7,0-3.1,1.3-3.1,3.1c0,1.7,1.3,3.1,3.1,3.1s3.1-1.3,3.1-3.1C304.1,251.6,302.7,250.2,301,250.2
			z"/>
		<path class="st6" d="M308.6,305.4c-1.7,0-3.1,1.3-3.1,3.1c0,1.7,1.3,3.1,3.1,3.1c1.7,0,3.1-1.3,3.1-3.1
			C311.6,306.8,310.2,305.4,308.6,305.4z"/>
		<path class="st6" d="M293,270.4c-0.7,0-1.2,0.5-1.2,1.2c0,0.7,0.5,1.2,1.2,1.2c0.7,0,1.2-0.5,1.2-1.2
			C294.2,270.9,293.6,270.4,293,270.4z"/>
		<path class="st6" d="M321.3,267.5c-0.7,0-1.2,0.5-1.2,1.2c0,0.7,0.5,1.2,1.2,1.2s1.2-0.5,1.2-1.2C322.5,268,322,267.5,321.3,267.5
			z"/>
		<path class="st6" d="M280.6,223.2c-0.7,0-1.2,0.5-1.2,1.2s0.5,1.2,1.2,1.2c0.7,0,1.2-0.5,1.2-1.2
			C281.9,223.8,281.3,223.2,280.6,223.2z"/>
		<path class="st6" d="M415.6,359c-0.7,0-1.2,0.5-1.2,1.2s0.5,1.2,1.2,1.2s1.2-0.5,1.2-1.2C416.9,359.5,416.3,359,415.6,359z"/>
		<path class="st6" d="M348.2,362.8"/>
		<path class="st6" d="M410.3,349.7c-0.3,0-0.5,0.2-0.5,0.5c0,0.3,0.2,0.5,0.5,0.5s0.5-0.2,0.5-0.5S410.6,349.7,410.3,349.7z"/>
		<path class="st6" d="M309.1,274.7c-0.3,0-0.5,0.2-0.5,0.5s0.2,0.5,0.5,0.5s0.5-0.2,0.5-0.5C309.6,274.9,309.4,274.7,309.1,274.7z"
			/>
		<path class="st6" d="M289.3,247.4c-0.3,0-0.5,0.2-0.5,0.5c0,0.3,0.2,0.5,0.5,0.5c0.3,0,0.5-0.2,0.5-0.5
			C289.9,247.7,289.6,247.4,289.3,247.4z"/>
		<path class="st6" d="M434.9,352.4c-0.3,0-0.5,0.2-0.5,0.5s0.2,0.5,0.5,0.5c0.3,0,0.5-0.2,0.5-0.5S435.2,352.4,434.9,352.4z"/>
		<path class="st6" d="M392.1,359.1c-0.3,0-0.5,0.2-0.5,0.5c0,0.3,0.2,0.5,0.5,0.5c0.3,0,0.5-0.2,0.5-0.5
			C392.6,359.3,392.4,359.1,392.1,359.1z"/>
	</g>
	<g>
		<g>
			<g id="outline_2_">
				<path class="st9" d="M70.4,321c-0.4-0.3-1-0.3-1.4,0l-34.5,23H31v7.7h2.6v5.2h2.6v28.4h-2.6v5.2H31v7.7h77.4v-7.7h-2.6v-5.2
					h-2.6v-28.4h2.6v-5.2h2.6V344h-3.5L70.4,321z M51.7,356.9v28.4h-7.7v-28.4h2.6v-5.2h2.6v5.2H51.7z M80,356.9v28.4h-2.6v-20.6H62
					v20.6h-2.6v-28.4H62v-5.2h15.5v5.2H80z M95.5,356.9v28.4h-7.7v-28.4h2.6v-5.2h2.6v5.2H95.5z"/>
				<path class="st7" d="M69.7,331.4h-3v9.8h3c1.6,0,2.9-1.3,3-2.9c0-0.7-0.3-1.4-0.8-2c1.1-1.2,1-3.1-0.2-4.2
					C71.2,331.6,70.5,331.4,69.7,331.4z M69.7,339.2h-1v-2h1c0.5,0,1,0.4,1,1C70.7,338.8,70.3,339.2,69.7,339.2z M69.7,335.3h-1v-2
					h1c0.5,0,1,0.4,1,1C70.7,334.9,70.3,335.3,69.7,335.3z"/>
			</g>
			<line class="st9" x1="30.9" y1="347.3" x2="108.3" y2="347.3"/>
			<line class="st9" x1="69.6" y1="365.7" x2="69.6" y2="385.3"/>
			<line class="st9" x1="33.5" y1="390.5" x2="104.9" y2="390.5"/>
			<line class="st9" x1="36.1" y1="385.3" x2="103.2" y2="385.3"/>
			<line class="st9" x1="36.1" y1="356.9" x2="43.8" y2="356.9"/>
			<line class="st9" x1="51.5" y1="356.9" x2="59.3" y2="356.9"/>
			<line class="st9" x1="79.9" y1="356.9" x2="87.7" y2="356.9"/>
			<line class="st9" x1="95.4" y1="356.9" x2="103.2" y2="356.9"/>
			<line class="st9" x1="33.5" y1="351.7" x2="105.7" y2="351.7"/>
			<g>
				<line class="st9" x1="62.4" y1="334.8" x2="54" y2="340.7"/>
				<line class="st9" x1="77" y1="334.8" x2="85.4" y2="340.7"/>
			</g>
			<line class="st9" x1="47.8" y1="361.4" x2="47.8" y2="365.7"/>
			<line class="st9" x1="47.8" y1="371.2" x2="47.8" y2="375.5"/>
			<line class="st9" x1="91.7" y1="361.4" x2="91.7" y2="365.7"/>
			<line class="st9" x1="69.7" y1="356.2" x2="69.7" y2="360.5"/>
			<line class="st9" x1="91.7" y1="371.2" x2="91.7" y2="375.5"/>
		</g>
	</g>
	<g>
		<path class="st7" d="M197.8,565.1l-1.3,2l-2.2-2.2c-0.4-0.4-0.9-0.5-1.4-0.4l-5.7,1.4c-0.2,0-0.3,0.1-0.4,0.2l-4.1,2.7l-6.9,1.4
			c-0.2,0-0.4,0.1-0.5,0.2l-4,2.7l-19.7,1.4c-0.1,0-0.2,0-0.3,0.1l-14.4,4.3c-0.1,0-0.3,0.1-0.4,0.2l-8.6,5.7
			c-0.3,0.2-0.6,0.6-0.6,1l-1.4,8.3l-5.6,8.4c-0.2,0.3-0.3,0.6-0.2,1l1.4,11.4v4.2c0,0.8,0.6,1.4,1.4,1.4h7.2c0.5,0,0.9-0.2,1.2-0.6
			c0.3-0.4,0.3-0.9,0.2-1.3l-1.4-4.1v-6.2l3.7-2.4c0.1-0.1,0.3-0.2,0.4-0.3l3.7-5l1.9,0.5l-1,6.3c-0.1,0.4,0,0.8,0.3,1.1l5.6,7
			l1.4,4.1c0.2,0.6,0.7,1,1.4,1h7.2c0.5,0,0.9-0.2,1.2-0.6c0.3-0.4,0.3-0.9,0.2-1.3l-1.4-4.3c0-0.1-0.1-0.2-0.2-0.3l-5.2-7.8
			l2.6-3.5l4.2-0.8l6.2,1.2l5.3,10.6v2.5c0,0.2,0,0.4,0.1,0.6l1.4,2.9c0.2,0.5,0.7,0.8,1.3,0.8h5.7c0.5,0,0.9-0.2,1.2-0.6
			c0.3-0.4,0.3-0.9,0.2-1.3l-1.4-4.2l-1.3-7.9l2.3-3.5l9.7-4.1c0.3-0.1,0.6-0.4,0.7-0.7l5-11.4l2.9,1.9c0.5,0.3,1.1,0.3,1.6,0
			l4.3-2.9c0.6-0.4,0.8-1.1,0.5-1.7l-2.8-6.9v-0.6l3.2-0.6c0.4-0.1,0.7-0.3,0.9-0.6l2.9-4.3l-2.4-1.6l-2.5,3.8l-2,0.4v-3.4
			c0-0.4-0.2-0.7-0.4-1l0,0l1.6-2.5L197.8,565.1z M151.8,615.3l0.7,2.2h-4.2l-1.1-3.3c-0.1-0.2-0.1-0.3-0.2-0.4l-5.3-6.7l0.9-5.4
			l5.3,1.3l-1.6,2.2c-0.4,0.5-0.4,1.2,0,1.7L151.8,615.3z M198.7,584l-2.5,1.7l-3.5-2.3c-0.4-0.2-0.8-0.3-1.2-0.2
			c-0.4,0.1-0.7,0.4-0.9,0.8l-5.5,12.4l-9.5,4.1c-0.3,0.1-0.5,0.3-0.6,0.5l-2.9,4.3c-0.2,0.3-0.3,0.7-0.2,1l1.4,8.6
			c0,0.1,0,0.1,0.1,0.2l0.8,2.4h-2.9l-0.9-1.8v-2.5c0-0.2,0-0.4-0.1-0.6l-5.7-11.5c-0.2-0.4-0.6-0.7-1-0.8l-7.2-1.4
			c-0.2,0-0.4,0-0.6,0l-6.9,1.4l-11.2-2.8c-0.6-0.1-1.1,0.1-1.5,0.5l-4.2,5.5l-4.1,2.7c-0.4,0.3-0.6,0.7-0.6,1.2v7.2
			c0,0.2,0,0.3,0.1,0.5l0.8,2.4h-3.7v-2.9c0-0.1,0-0.1,0-0.2l-1.4-11l5.4-8.2c0.1-0.2,0.2-0.4,0.2-0.6l1.3-8l7.9-5.3l14-4.2
			l19.9-1.4c0.2,0,0.5-0.1,0.7-0.2l4.1-2.7l6.9-1.4c0.2,0,0.4-0.1,0.5-0.2l4.1-2.7l4.7-1.2l1.6,1.6l-5.7,1.1l0.6,2.8l6.9-1.4v5.7
			c0,0.2,0,0.4,0.1,0.5L198.7,584z"/>
		<path class="st7" d="M196,536.9l4.6,1.5l-20.9,10.4c-0.3,0.1-0.5,0.4-0.6,0.6l-6.4,12.9l-17.3-12c-0.3-0.2-0.8-0.3-1.1-0.2
			c-0.4,0.1-0.7,0.4-0.9,0.7l-8.4,15.4l-24,12l1.3,2.6l24.4-12.2c0.3-0.1,0.5-0.3,0.6-0.6l7.8-14.4l17.3,12c0.3,0.2,0.8,0.3,1.2,0.2
			c0.4-0.1,0.7-0.4,0.9-0.7l7-13.9l20.4-10.2l-1.5,4.6l3.7-1.8l2.2-6.5l-6.5-2.2L196,536.9z"/>
		<circle class="st8" cx="163.5" cy="577.7" r="68.3"/>
	</g>
	<path class="st6" d="M744.6,358.5c-1.9,0-3.4-1.4-3.3-3.3s1.6-3.4,3.5-3.5c1.9,0,3.4,1.4,3.3,3.3
		C748.1,356.9,746.4,358.4,744.6,358.5z"/>
	<g>
		<g>
			<g>
				<path class="st6" d="M759.4,259.8c1.2,1.2,3.1,1.3,4.3,0.1c1.2-1.2,1.3-3.1,0.1-4.3c-1.2-1.2-3.1-1.3-4.3-0.1
					C758.2,256.7,758.2,258.6,759.4,259.8z"/>
				<path class="st6" d="M784.7,337.7c1.2,1.2,3.1,1.3,4.3,0.1c1.2-1.2,1.3-3.1,0.1-4.3s-3.1-1.3-4.3-0.1
					C783.5,334.6,783.5,336.5,784.7,337.7z"/>
				<path class="st6" d="M684.9,187.1c1.2,1.2,3.1,1.3,4.3,0.1c1.2-1.2,1.3-3.1,0.1-4.3s-3.1-1.3-4.3-0.1
					C683.8,183.9,683.7,185.8,684.9,187.1z"/>
				<path class="st6" d="M770.2,373.4c0.5,0.5,1.2,0.5,1.7,0c0.5-0.5,0.5-1.2,0-1.7c-0.5-0.5-1.2-0.5-1.7,0
					C769.7,372.1,769.7,372.8,770.2,373.4z"/>
				<path class="st6" d="M748.8,223.5c0.5,0.5,1.2,0.5,1.7,0c0.5-0.5,0.5-1.2,0-1.7c-0.5-0.5-1.2-0.5-1.7,0
					C748.4,222.2,748.3,223.1,748.8,223.5z"/>
				<path class="st6" d="M697.4,207.3c0.5,0.5,1.2,0.5,1.7,0c0.5-0.5,0.5-1.2,0-1.7s-1.2-0.5-1.7,0C697,206,697,206.8,697.4,207.3z"
					/>
				<path class="st6" d="M745.8,233.8c0.2,0.2,0.5,0.2,0.7,0c0.2-0.2,0.2-0.5,0-0.7s-0.5-0.2-0.7,0
					C745.7,233.2,745.6,233.6,745.8,233.8z"/>
				<path class="st6" d="M709.1,190.8c0.2,0.2,0.5,0.2,0.7,0s0.2-0.5,0-0.7s-0.5-0.2-0.7,0C708.8,190.3,708.8,190.6,709.1,190.8z"/>
				<path class="st6" d="M762.2,358.6c0.2,0.2,0.5,0.2,0.7,0c0.2-0.2,0.2-0.5,0-0.7c-0.2-0.2-0.5-0.2-0.7,0
					C761.9,358.1,762,358.4,762.2,358.6z"/>
				<path class="st6" d="M730.8,214.2c0.2,0.2,0.5,0.2,0.7,0c0.2-0.2,0.2-0.5,0-0.7c-0.2-0.2-0.5-0.2-0.7,0
					C730.6,213.6,730.5,214,730.8,214.2z"/>
				<path class="st6" d="M765.3,240.4c0.2,0.2,0.5,0.2,0.7,0c0.2-0.2,0.2-0.5,0-0.7c-0.2-0.2-0.5-0.2-0.7,0
					C765,239.8,765.1,240.2,765.3,240.4z"/>
				<path class="st7" d="M750.1,381.5c1.2,1.2,3.1,1.3,4.3,0.1c1.2-1.2,1.3-3.1,0.1-4.3c-1.2-1.2-3.1-1.3-4.3-0.1
					C749,378.3,748.9,380.3,750.1,381.5z"/>
			</g>
		</g>
		<g>
			<g>
				<path class="st6" d="M772,386.4c-1.2,1.2-1.3,3.1-0.1,4.3c1.2,1.2,3.1,1.3,4.3,0.1c1.2-1.2,1.3-3.1,0.1-4.3
					C775.2,385.3,773.2,385.3,772,386.4z"/>
				<path class="st6" d="M751.8,399c-0.5,0.5-0.5,1.2,0,1.7c0.5,0.5,1.2,0.5,1.7,0c0.5-0.5,0.5-1.2,0-1.7S752.3,398.6,751.8,399z"/>
			</g>
		</g>
	</g>
	<path class="st6" d="M877.5,426.2c0.1-1.9,1.7-3.3,3.5-3.1c1.9,0.2,3.3,1.9,3.2,3.7c-0.1,1.9-1.7,3.3-3.5,3.1
		C878.8,429.7,877.4,428,877.5,426.2z"/>
	<g>
		<g>
			<g>
				<path class="st6" d="M974.8,447.9c-1.3,1.1-1.5,3-0.4,4.3s3,1.5,4.3,0.4c1.3-1.1,1.5-3,0.4-4.3S976.2,446.8,974.8,447.9z"/>
				<path class="st6" d="M895.4,467.6c-1.3,1.1-1.5,3-0.4,4.3c1.1,1.3,3,1.5,4.3,0.4c1.3-1.1,1.5-3,0.4-4.3
					C898.5,466.7,896.7,466.5,895.4,467.6z"/>
				<path class="st6" d="M1052.7,378.7c-1.3,1.1-1.5,3-0.4,4.3c1.1,1.3,3,1.5,4.3,0.4c1.3-1.1,1.5-3,0.4-4.3
					C1055.9,377.8,1054,377.6,1052.7,378.7z"/>
				<path class="st6" d="M860.8,450.6c-0.5,0.5-0.6,1.2-0.2,1.7c0.5,0.5,1.2,0.6,1.7,0.2c0.5-0.5,0.6-1.2,0.2-1.7
					C862.1,450.2,861.4,450.2,860.8,450.6z"/>
				<path class="st6" d="M1011.8,439.8c-0.5,0.5-0.6,1.2-0.2,1.7c0.5,0.5,1.2,0.6,1.7,0.2s0.6-1.2,0.2-1.7
					C1013.2,439.5,1012.3,439.4,1011.8,439.8z"/>
				<path class="st6" d="M1031.6,389.8c-0.5,0.5-0.6,1.2-0.2,1.7c0.5,0.5,1.2,0.6,1.7,0.2s0.6-1.2,0.2-1.7
					C1033,389.5,1032.1,389.4,1031.6,389.8z"/>
				<path class="st6" d="M1001.7,436.2c-0.2,0.2-0.3,0.5-0.1,0.7s0.5,0.3,0.7,0.1c0.2-0.2,0.3-0.5,0.1-0.7
					C1002.3,436.1,1002,436,1001.7,436.2z"/>
				<path class="st6" d="M1047.2,402.5c-0.2,0.2-0.3,0.5-0.1,0.7c0.2,0.2,0.5,0.3,0.7,0.1s0.3-0.5,0.1-0.7
					C1047.7,402.4,1047.4,402.3,1047.2,402.5z"/>
				<path class="st6" d="M876.1,443.7c-0.2,0.2-0.3,0.5-0.1,0.7s0.5,0.3,0.7,0.1c0.2-0.2,0.3-0.5,0.1-0.7
					C876.7,443.5,876.3,443.5,876.1,443.7z"/>
				<path class="st6" d="M1022.3,422.5c-0.2,0.2-0.3,0.5-0.1,0.7s0.5,0.3,0.7,0.1s0.3-0.5,0.1-0.7
					C1022.9,422.4,1022.6,422.3,1022.3,422.5z"/>
				<path class="st6" d="M993.8,455.2c-0.2,0.2-0.3,0.5-0.1,0.7c0.2,0.2,0.5,0.3,0.7,0.1c0.2-0.2,0.3-0.5,0.1-0.7
					C994.4,454.9,994,455,993.8,455.2z"/>
				<path class="st7" d="M854.1,430.1c-1.3,1.1-1.5,3-0.4,4.3s3,1.5,4.3,0.4c1.3-1.1,1.5-3,0.4-4.3
					C857.4,429.2,855.4,428.9,854.1,430.1z"/>
			</g>
		</g>
		<g>
			<g>
				<path class="st6" d="M847.6,451.6c-1.1-1.3-3-1.5-4.3-0.4c-1.3,1.1-1.5,3-0.4,4.3s3,1.5,4.3,0.4
					C848.5,454.8,848.7,452.8,847.6,451.6z"/>
				<path class="st6" d="M836.5,430.4c-0.5-0.5-1.2-0.6-1.7-0.2c-0.5,0.5-0.6,1.2-0.2,1.7c0.5,0.5,1.2,0.6,1.7,0.2
					S836.9,431,836.5,430.4z"/>
			</g>
		</g>
	</g>
	<path class="st7" d="M866.5,457.5c-3.5,3.5-9.2,3.5-12.7,0c-3.5-3.5-3.5-9.2,0-12.7c3.5-3.5,9.2-3.5,12.7,0
		C869.9,448.3,869.9,454,866.5,457.5z"/>
</g>
</svg>
