<?xml version="1.0" encoding="utf-8"?>
<!-- Generator: Adobe Illustrator 24.1.0, SVG Export Plug-In . SVG Version: 6.00 Build 0)  -->
<svg version="1.1" id="Слой_1" xmlns="http://www.w3.org/2000/svg" xmlns:xlink="http://www.w3.org/1999/xlink" x="0px" y="0px"
	 viewBox="0 0 130 130" style="enable-background:new 0 0 130 130;" xml:space="preserve">
<style type="text/css">
	
		.st0{fill:none;stroke:#70E5B0;stroke-width:2;stroke-linecap:round;stroke-linejoin:round;stroke-miterlimit:10;stroke-dasharray:1,6;}
	
		.st1{fill:none;stroke:#38D996;stroke-width:2;stroke-linecap:round;stroke-linejoin:round;stroke-miterlimit:10;stroke-dasharray:1,6;}
	.st2{fill:#38D996;}
	.st3{fill:none;stroke:#38D996;stroke-width:2;stroke-miterlimit:10;}
	.st4{fill:none;stroke:#38D996;stroke-width:3;stroke-linecap:round;stroke-linejoin:round;stroke-miterlimit:10;}
</style>
<g>
	<g>
		<line class="st0" x1="127.6" y1="60" x2="127.6" y2="33.5"/>
		<line class="st1" x1="121.5" y1="50.5" x2="121" y2="2.9"/>
	</g>
	<g>
		<g>
			<path class="st2" d="M66.5,64c-1.6-1-3.6-1.6-5.4-2.5c-1.1-0.4-2.1-1-2.9-1.6c-1.8-1.4-1.4-3.6,0.7-4.5c0.5-0.3,1.2-0.3,1.8-0.4
				c2.3-0.1,4.5,0.3,6.7,1.4c1.1,0.5,1.4,0.4,1.8-0.7s0.7-2.3,1.1-3.6c0.3-0.8,0-1.4-0.8-1.6c-1.4-0.5-2.7-1.1-4.3-1.2
				c-1.9-0.3-1.9-0.3-1.9-2.2c0-2.7,0-2.7-2.7-2.7c-0.4,0-0.8,0-1.2,0c-1.2,0-1.5,0.3-1.5,1.5c0,0.5,0,1.1,0,1.8
				c0,1.6,0,1.6-1.6,2.2c-4,1.4-6.5,4.1-6.6,8.4c-0.3,3.8,1.8,6.3,4.8,8.2c1.9,1.1,4.1,1.8,6,2.7c0.8,0.4,1.5,0.7,2.2,1.4
				c1.9,1.6,1.6,4.3-0.7,5.4c-1.2,0.5-2.6,0.7-4,0.5c-2.1-0.3-4.1-0.8-5.9-1.8c-1.1-0.5-1.4-0.4-1.8,0.8c-0.3,1.1-0.5,2.1-1,3.2
				c-0.4,1.4-0.3,1.8,1.1,2.3c1.6,0.8,3.6,1.2,5.4,1.5c1.5,0.3,1.5,0.3,1.5,1.8c0,0.7,0,1.4,0,2.1c0,0.8,0.4,1.4,1.4,1.4
				c1,0,2.1,0,3,0c0.8,0,1.2-0.4,1.2-1.2c0-1,0-1.9,0-2.7c0-1,0.4-1.4,1.2-1.6c2.1-0.5,3.8-1.6,5.2-3.4C73.4,73.9,72,67,66.5,64z"/>
		</g>
		<circle class="st3" cx="60.5" cy="66.1" r="33.2"/>
		<path id="settings_6_" class="st4" d="M119,70.7v-9.3c0-2.7-2.2-4.9-4.9-4.9h-7c-2.2,0-4.1-1.4-4.7-3.4c-0.8-2.3-1.8-4.7-2.9-6.9
			c-1-1.9-0.7-4.3,0.8-5.8l8.4-8.2c1.9-1.9,1.9-5.1,0-7l-6.7-6.6c-1.9-1.9-5.1-1.9-7,0l-8.4,8.2c-1.5,1.5-3.8,1.9-5.8,0.8
			c-2.2-1.1-4.5-2.1-7-2.9c-2.1-0.7-3.4-2.5-3.4-4.7v-6.9c0-2.7-2.2-4.9-4.9-4.9h-9.5c-2.7,0-4.9,2.2-4.9,4.9v6.9
			c0,2.2-1.4,4-3.4,4.7c-2.5,0.7-4.8,1.6-7,2.9c-1.9,1-4.3,0.7-5.8-0.8l-8.4-8.2c-1.9-1.9-5.1-1.9-7,0l-6.7,6.6
			c-1.9,1.9-1.9,5.1,0,7l8.4,8.2c1.5,1.5,1.9,3.8,0.8,5.8c-1.1,2.2-2.2,4.5-2.9,6.9c-0.7,2.1-2.6,3.4-4.7,3.4h-7
			c-2.7,0-4.9,2.2-4.9,4.9v9.3c0,2.7,2.2,4.9,4.9,4.9h7c2.2,0,4.1,1.4,4.7,3.4c0.8,2.3,1.8,4.7,2.9,6.9c1,1.9,0.7,4.3-0.8,5.8
			l-8.4,8.2c-1.9,1.9-1.9,5.1,0,7l6.7,6.6c1.9,1.9,5.1,1.9,7,0l8.4-8.2c1.5-1.5,3.8-1.9,5.8-0.8c2.2,1.1,4.5,2.1,7,2.9
			c2.1,0.7,3.4,2.5,3.4,4.7v6.9c0,2.7,2.2,4.9,4.9,4.9h9.5c2.7,0,4.9-2.2,4.9-4.9v-6.9c0-2.2,1.4-4,3.4-4.7c2.5-0.7,4.8-1.6,7-2.9
			c1.9-1,4.3-0.7,5.8,0.8l8.4,8.2c1.9,1.9,5.1,1.9,7,0l6.7-6.6c1.9-1.9,1.9-5.1,0-7l-8.4-8.2c-1.5-1.5-1.9-3.8-0.8-5.8
			c1.1-2.2,2.2-4.5,2.9-6.9c0.7-2.1,2.6-3.4,4.7-3.4h7C116.6,75.7,119,73.5,119,70.7z"/>
	</g>
</g>
</svg>
