<?xml version="1.0" encoding="utf-8"?>
<!-- Generator: Adobe Illustrator 24.1.0, SVG Export Plug-In . SVG Version: 6.00 Build 0)  -->
<svg version="1.1" id="Слой_1" xmlns="http://www.w3.org/2000/svg" xmlns:xlink="http://www.w3.org/1999/xlink" x="0px" y="0px"
	 viewBox="0 0 148.6 130" style="enable-background:new 0 0 148.6 130;" xml:space="preserve">
<style type="text/css">
	.st0{fill:none;stroke:#8264FF;stroke-width:2.5;stroke-miterlimit:10;}
	.st1{fill:none;stroke:#C1B1FF;stroke-width:2.4592;stroke-linecap:round;stroke-linejoin:round;stroke-miterlimit:10;}
	.st2{fill:none;stroke:#8264FF;stroke-width:3;stroke-miterlimit:10;}
	.st3{fill:none;stroke:#8264FF;stroke-width:2;stroke-linecap:round;stroke-linejoin:round;stroke-miterlimit:10;}
</style>
<g>
	<g>
		<path id="Mask_2_" class="st0" d="M60.8,55.1l0-4.2c0-7.6,6.2-14,13.8-13.8c7.4,0.1,13.3,6.1,13.3,13.5v4.6c0,0.4,0.4,0.8,0.8,0.8
			h1.9c3,0,5.4,2.4,5.4,5.4v16.2c0,3-2.4,5.4-5.4,5.4H58c-3,0-5.4-2.4-5.4-5.4V61.3c0-3,2.4-5.4,5.4-5.4h1.9
			C60.4,56,60.8,55.6,60.8,55.1z M73.7,42.5c-4.3,0.3-7.6,4-7.6,8.4v4.3c0,0.4,0.4,0.8,0.8,0.8h14.6c0.4,0,0.8-0.4,0.8-0.8v-4.6
			C82.4,45.9,78.5,42.2,73.7,42.5z"/>
	</g>
	<g>
		<path id="Path-50_7_" class="st1" d="M37.8,39.9v-9.2c0-1.4,1-2.6,2.4-2.9L73,16.6c1.1-0.2,1.9-0.2,3,0l32.4,11.2
			c1.4,0.3,2.4,1.5,2.4,2.9v8.9"/>
		<path id="Path-50_6_" class="st1" d="M110.7,54.8v15.7c0,13.3-6.9,25.7-18.2,32.8l-15.8,9.9c-1.5,0.9-3.4,0.9-4.8,0L56,103.3
			c-11.3-7.1-18.2-19.5-18.2-32.8V54.9"/>
	</g>
	<path id="Path-50_5_" class="st2" d="M31,17.7L72.6,3.4c1.4-0.3,2.4-0.3,3.8,0l41.1,14.3c1.8,0.3,3.1,1.9,3.1,3.7v50.5
		c0,16.9-8.8,32.7-23.2,41.7l-20.1,12.5c-1.9,1.2-4.3,1.2-6.1,0l-20.1-12.5C36.7,104.6,28,88.8,28,71.9V21.4
		C28,19.6,29.3,18,31,17.7z"/>
	<path id="check-path_2_" class="st3" d="M64.2,70.7l6.5,5.5l15-14.9"/>
</g>
</svg>
