<?xml version="1.0" encoding="utf-8"?>
<!-- Generator: Adobe Illustrator 24.1.0, SVG Export Plug-In . SVG Version: 6.00 Build 0)  -->
<svg version="1.1" id="Слой_1" xmlns="http://www.w3.org/2000/svg" xmlns:xlink="http://www.w3.org/1999/xlink" x="0px" y="0px"
	 viewBox="0 0 148.6 130" style="enable-background:new 0 0 148.6 130;" xml:space="preserve">
<style type="text/css">
	.st0{fill:none;stroke:#C1B1FF;stroke-width:2;stroke-linecap:round;stroke-linejoin:round;stroke-miterlimit:10;}
	.st1{fill:none;stroke:#8264FF;stroke-width:3;stroke-linecap:round;stroke-linejoin:round;stroke-miterlimit:10;}
	.st2{fill:none;stroke:#C1B1FF;stroke-width:3;stroke-linecap:round;stroke-linejoin:round;stroke-miterlimit:10;}
</style>
<g>
	<g>
		<line class="st0" x1="19.7" y1="27.8" x2="14" y2="27.8"/>
		<line class="st0" x1="19.7" y1="62.7" x2="14" y2="62.7"/>
		<line class="st0" x1="118.6" y1="121" x2="118.6" y2="126.7"/>
		<line class="st0" x1="72.5" y1="121" x2="72.5" y2="126.7"/>
		<polyline class="st0" points="133.9,121 19.7,121 19.7,10.3 		"/>
		<polyline class="st0" points="14,10.3 19.7,10.3 12.7,3.8 12.7,127.9 137.8,127.9 133.9,121 		"/>
		<line class="st0" x1="19.7" y1="36.5" x2="14" y2="36.5"/>
		<line class="st0" x1="19.7" y1="54" x2="14" y2="54"/>
		<line class="st0" x1="19.7" y1="71.4" x2="14" y2="71.4"/>
		<line class="st0" x1="19.7" y1="88.9" x2="14" y2="88.9"/>
		<line class="st0" x1="19.7" y1="97.6" x2="14" y2="97.6"/>
		<line class="st0" x1="19.7" y1="115.1" x2="14" y2="115.1"/>
		<line class="st0" x1="25.8" y1="121" x2="25.8" y2="126.7"/>
		<line class="st0" x1="33.8" y1="121" x2="33.8" y2="126.7"/>
		<line class="st0" x1="49.4" y1="121" x2="49.4" y2="126.7"/>
		<line class="st0" x1="64.8" y1="121" x2="64.8" y2="126.7"/>
		<line class="st0" x1="80.2" y1="121" x2="80.2" y2="126.7"/>
		<line class="st0" x1="95.5" y1="121" x2="95.5" y2="126.7"/>
		<line class="st0" x1="103.2" y1="121" x2="103.2" y2="126.7"/>
	</g>
	<g>
		<g>
			<rect x="46.3" y="34" class="st1" width="59.5" height="60.1"/>
			<polygon class="st1" points="105.8,94 126.7,73.1 126.7,13.9 105.8,34 			"/>
			<polyline class="st1" points="115,13.9 126.7,13.9 105.8,34 46.3,34 66.4,13.9 100.4,13.9 			"/>
			<line class="st2" x1="108.1" y1="13.9" x2="108.1" y2="13.9"/>
			<line class="st1" x1="55.6" y1="84.3" x2="46.3" y2="94"/>
			<polyline class="st1" points="66.4,61.9 66.4,73 60.6,79 			"/>
			<line class="st1" x1="66.4" y1="40.2" x2="66.4" y2="53"/>
			<line class="st1" x1="66.4" y1="13.9" x2="66.4" y2="26.6"/>
			<line class="st1" x1="93.3" y1="73" x2="126.7" y2="73"/>
			<line class="st1" x1="66.4" y1="73" x2="78.7" y2="73"/>
		</g>
		<path class="st1" d="M66.4,55.9"/>
		<path class="st1" d="M66.4,62.7"/>
	</g>
	<g>
		<line class="st0" x1="37.4" y1="103.3" x2="41.2" y2="99.5"/>
		<line class="st0" x1="28.8" y1="111.9" x2="32.1" y2="108.6"/>
		<line class="st0" x1="19.7" y1="121" x2="23.6" y2="117"/>
	</g>
	<g>
		<line class="st0" x1="96.8" y1="103.3" x2="100.6" y2="99.5"/>
		<line class="st0" x1="88.2" y1="111.9" x2="91.5" y2="108.6"/>
		<line class="st0" x1="79.1" y1="121" x2="82.8" y2="117.3"/>
	</g>
</g>
</svg>
