<?xml version="1.0" encoding="utf-8"?>
<!-- Generator: Adobe Illustrator 24.1.1, SVG Export Plug-In . SVG Version: 6.00 Build 0)  -->
<svg version="1.1" id="Слой_1" xmlns="http://www.w3.org/2000/svg" xmlns:xlink="http://www.w3.org/1999/xlink" x="0px" y="0px"
	 viewBox="0 0 130 130" style="enable-background:new 0 0 130 130;" xml:space="preserve">
<style type="text/css">
	.st0{fill:none;stroke:#8264FF;stroke-width:1.6386;stroke-linecap:round;stroke-linejoin:round;stroke-miterlimit:10;}
	.st1{fill:none;stroke:#C1B1FF;stroke-width:2.458;stroke-linecap:round;stroke-linejoin:round;stroke-miterlimit:10;}
	.st2{fill:none;stroke:#8264FF;stroke-width:2.458;stroke-linecap:round;stroke-linejoin:round;stroke-miterlimit:10;}
	.st3{fill:none;stroke:#C1B1FF;stroke-width:1.6386;stroke-linecap:round;stroke-linejoin:round;stroke-miterlimit:10;}
	.st4{fill:#C1B1FF;}
	.st5{fill:none;stroke:#8264FF;stroke-width:1.6386;stroke-miterlimit:10;}
	.st6{fill:#8264FF;}
	.st7{fill:none;stroke:#8264FF;stroke-width:2.458;stroke-miterlimit:10;}
</style>
<g>
	<line class="st0" x1="103.9" y1="42.3" x2="117.3" y2="42.3"/>
	<line class="st0" x1="103.9" y1="50.4" x2="117.3" y2="50.4"/>
	<line class="st0" x1="103.9" y1="58.4" x2="117.3" y2="58.4"/>
	<path class="st1" d="M65.9,106.5c1.3-0.9,1.2-0.9,28.1-25.7l6.1,6.1l19.6-14.1"/>
	<polyline class="st2" points="55.2,117.2 125,117.2 125,30.5 110.7,16.3 75.3,16.3 	"/>
	<polyline class="st2" points="109.9,16.3 109.9,31.2 125,31.2 	"/>
	<rect x="90.6" y="39.3" class="st0" width="6.8" height="6.8"/>
	<rect x="90.6" y="51.9" class="st3" width="6.8" height="6.8"/>
	<rect x="90.6" y="64.4" class="st0" width="6.8" height="6.8"/>
	<g>
		<line class="st1" x1="117.3" y1="108.6" x2="117.3" y2="84.7"/>
		<line class="st2" x1="109.9" y1="108.6" x2="109.9" y2="90.7"/>
		<line class="st2" x1="102.4" y1="108.6" x2="102.4" y2="95.3"/>
		<line class="st1" x1="94.9" y1="108.6" x2="94.9" y2="92.1"/>
		<line class="st2" x1="87.5" y1="108.6" x2="87.5" y2="96.7"/>
	</g>
	<circle class="st4" cx="43.5" cy="55.2" r="4.4"/>
	<g>
		<line class="st3" x1="43.3" y1="21.9" x2="43.3" y2="15.2"/>
		<line class="st3" x1="50.9" y1="22.8" x2="52.3" y2="16.3"/>
		<line class="st3" x1="59.4" y1="26.2" x2="62.5" y2="20.4"/>
		<line class="st3" x1="66.7" y1="32" x2="71.2" y2="27.2"/>
		<line class="st3" x1="72.3" y1="39.6" x2="77.8" y2="36.3"/>
		<line class="st3" x1="75.6" y1="48.5" x2="81.8" y2="46.9"/>
		<line class="st3" x1="76.5" y1="58.1" x2="82.9" y2="58.3"/>
		<line class="st3" x1="75" y1="67.5" x2="81" y2="69.5"/>
		<line class="st3" x1="71" y1="76.2" x2="76.3" y2="79.8"/>
		<line class="st3" x1="64.9" y1="83.4" x2="69.1" y2="88.4"/>
		<line class="st3" x1="22.8" y1="84.2" x2="18.9" y2="89.4"/>
		<line class="st3" x1="16.5" y1="77.3" x2="11.3" y2="81.2"/>
		<line class="st3" x1="12.2" y1="68.8" x2="6.3" y2="71.1"/>
		<line class="st3" x1="10.3" y1="59.4" x2="4" y2="59.9"/>
		<line class="st3" x1="10.8" y1="49.8" x2="4.6" y2="48.5"/>
		<line class="st3" x1="13.9" y1="40.8" x2="8.2" y2="37.8"/>
		<line class="st3" x1="19.1" y1="32.9" x2="14.5" y2="28.4"/>
		<line class="st3" x1="26.2" y1="26.9" x2="22.9" y2="21.2"/>
		<line class="st3" x1="34.6" y1="23.1" x2="32.9" y2="16.7"/>
	</g>
	<path class="st5" d="M53.1,94.2H33.9c-0.9,0-1.7-0.8-1.7-1.7v-6.1c0-0.9,0.8-1.7,1.7-1.7h19.3c0.9,0,1.7,0.8,1.7,1.7v6.1
		C54.9,93.5,54.1,94.2,53.1,94.2z"/>
	<path class="st2" d="M66.3,62.8c0.1-0.5,0.2-0.9,0.3-1.4c0.3-1.5,0.4-3.1,0.4-4.6c0-5.4-1.6-10.4-4.4-14.5c-0.5-0.7-1-1.4-1.5-2
		c-0.6-0.7-1.2-1.3-1.8-1.9c-0.3-0.3-0.7-0.6-1-0.9c-0.7-0.6-1.4-1.2-2.2-1.7c-0.5-0.3-1-0.6-1.5-0.9c-0.7-0.4-1.5-0.8-2.2-1.1
		c-0.5-0.2-1.1-0.4-1.6-0.6c-0.8-0.3-1.6-0.5-2.4-0.7c-0.6-0.1-1.1-0.2-1.7-0.3c-1-0.1-2.1-0.2-3.2-0.2c-13,0-23.6,11.1-23.6,24.8
		c0,9.6,5.2,18,12.8,22.1l-0.2-0.1c0,0,2.9,1.3,3,3.5v1.9"/>
	
		<ellipse transform="matrix(0.9975 -7.131790e-02 7.131790e-02 0.9975 -4.6633 4.734)" class="st6" cx="64" cy="67.7" rx="1" ry="1"/>
	
		<ellipse transform="matrix(0.9975 -7.131790e-02 7.131790e-02 0.9975 -4.9763 4.5542)" class="st6" cx="61.3" cy="72" rx="1" ry="1"/>
	
		<ellipse transform="matrix(0.9975 -7.131790e-02 7.131790e-02 0.9975 -5.2343 4.3354)" class="st6" cx="58.1" cy="75.5" rx="1" ry="1"/>
	
		<ellipse transform="matrix(0.9975 -7.131790e-02 7.131790e-02 0.9975 -5.4382 4.0904)" class="st6" cx="54.6" cy="78.2" rx="1" ry="1"/>
	<path class="st7" d="M50.1,94.2c0,3.9-2.9,7.1-6.6,7.1c-3.6,0-6.6-3.2-6.6-7.1"/>
	<line class="st0" x1="43.5" y1="84.7" x2="43.5" y2="66.7"/>
	<path class="st0" d="M34,65.8c-2.9-2.6-4.7-6.4-4.7-10.6c0-7.9,6.4-14.2,14.2-14.2s14.2,6.4,14.2,14.2c0,3.9-1.6,7.5-4.2,10
		c-0.2,0.2-0.5,0.4-0.7,0.7"/>
</g>
</svg>
