<?xml version="1.0" encoding="utf-8"?>
<!-- Generator: Adobe Illustrator 24.1.0, SVG Export Plug-In . SVG Version: 6.00 Build 0)  -->
<svg version="1.1" id="Слой_1" xmlns="http://www.w3.org/2000/svg" xmlns:xlink="http://www.w3.org/1999/xlink" x="0px" y="0px"
	 viewBox="0 0 148.6 130" style="enable-background:new 0 0 148.6 130;" xml:space="preserve">
<style type="text/css">
	.st0{fill:none;stroke:#8264FF;stroke-width:3;stroke-linecap:round;stroke-linejoin:round;stroke-miterlimit:10;}
	.st1{fill:none;stroke:#8264FF;stroke-width:3;stroke-miterlimit:10;}
	.st2{fill:none;stroke:#C1B1FF;stroke-width:1.6587;stroke-miterlimit:10;}
	.st3{fill:none;stroke:#8264FF;stroke-width:1.5877;stroke-linecap:round;stroke-linejoin:round;stroke-miterlimit:10;}
	.st4{fill:#8264FF;}
	.st5{fill:none;stroke:#8264FF;stroke-width:2;stroke-miterlimit:10;}
	.st6{fill:#C1B1FF;}
	.st7{fill:none;stroke:#8264FF;stroke-width:2.0483;stroke-linecap:round;stroke-linejoin:round;stroke-miterlimit:10;}
	.st8{fill:#8264FF;stroke:#8264FF;stroke-width:2;stroke-linecap:round;stroke-linejoin:round;stroke-miterlimit:10;}
</style>
<g>
	<line class="st0" x1="45.5" y1="127.5" x2="121.2" y2="127.5"/>
	<g>
		<line class="st1" x1="74.7" y1="101.2" x2="74.7" y2="119.6"/>
		<line class="st1" x1="92" y1="101.2" x2="92" y2="119.6"/>
	</g>
	<path class="st0" d="M100.4,127.5H66.3c-2.2,0-4-1.8-4-4v0c0-2.2,1.8-4,4-4h34.1c2.2,0,4,1.8,4,4v0
		C104.4,125.7,102.6,127.5,100.4,127.5z"/>
	<ellipse class="st2" cx="83.4" cy="94.1" rx="2.8" ry="2.8"/>
	<line class="st3" x1="100.3" y1="94.1" x2="120.7" y2="94.1"/>
	<line class="st3" x1="46.1" y1="94.1" x2="66.4" y2="94.1"/>
	<path class="st0" d="M31.6,38.7c0-3.4,2.7-5.5,6.1-5.5h14.9h15.5"/>
	<path class="st0" d="M135.2,75.2v19.9c0,3.4-2.7,6.1-6.1,6.1H37.7c-3.4,0-6.1-2.7-6.1-6.1V72.6"/>
	<line class="st0" x1="135.2" y1="40" x2="135.2" y2="51.6"/>
	<line class="st0" x1="88.5" y1="33.2" x2="98" y2="33.2"/>
	<path class="st1" d="M44.4,70.7H10.2c-3.4,0-6.2-2.8-6.2-6.2V46.9c0-3.4,2.8-6.2,6.2-6.2h34.2c3.4,0,6.2,2.8,6.2,6.2v17.7
		c0,1.7,0.2,12.7-0.9,13.8C48.6,79.5,46.1,70.7,44.4,70.7z"/>
	<g>
		<path id="twitter_2_" class="st4" d="M117,34.2c8.6,0,13.3-7.1,13.3-13.2c0-0.2,0-0.4,0-0.6c0.9-0.7,1.7-1.5,2.3-2.4
			c-0.9,0.4-1.8,0.6-2.7,0.7c1-0.6,1.7-1.5,2.1-2.6c-0.9,0.5-1.9,0.9-3,1.1c-1.8-1.9-4.7-2-6.6-0.2c-1.2,1.1-1.7,2.8-1.3,4.4
			c-3.8-0.2-7.2-2-9.6-4.9c-1.2,2.1-0.6,4.8,1.4,6.2c-0.7,0-1.5-0.2-2.1-0.6c0,0,0,0,0,0.1c0,2.2,1.6,4.1,3.7,4.6
			c-0.7,0.2-1.4,0.2-2.1,0.1c0.6,1.9,2.4,3.2,4.4,3.2c-1.7,1.3-3.7,2-5.8,2c-0.4,0-0.7,0-1.1-0.1C112,33.5,114.5,34.2,117,34.2"/>
		<path class="st1" d="M104.1,39.6h34.2c3.4,0,6.2-2.8,6.2-6.2V15.8c0-3.4-2.8-6.2-6.2-6.2h-34.2c-3.4,0-6.2,2.8-6.2,6.2v17.7
			c0,1.7-0.2,12.7,0.9,13.8C100,48.4,102.4,39.6,104.1,39.6z"/>
	</g>
	<g>
		<path class="st5" d="M79,23.6H55c-2.4,0-4.3-1.9-4.3-4.3V6.8c0-2.4,1.9-4.3,4.3-4.3H79c2.4,0,4.3,1.9,4.3,4.3v12.5
			c0,1.2,0.2,9-0.6,9.7C82,29.8,80.2,23.6,79,23.6z"/>
		<g>
			<ellipse class="st6" cx="57.6" cy="13.2" rx="2.2" ry="2.2"/>
			<ellipse class="st6" cx="67.1" cy="13.2" rx="2.2" ry="2.2"/>
			<ellipse class="st6" cx="76.5" cy="13.2" rx="2.2" ry="2.2"/>
		</g>
	</g>
	<g>
		<path id="love_2_" class="st6" d="M123.9,59.8c-0.1,0.1-0.2,0.2-0.3,0.2c-0.1,0-0.2-0.1-0.3-0.2c-2.9-3.7-8.1-1.9-7.9,2.7
			c0.1,3.7,2.6,5.5,5.5,8c0.8,0.7,1.8,1,2.7,1c1,0,1.9-0.3,2.7-1c2.9-2.6,5.3-4.4,5.5-7.9C132.1,58,126.8,56.1,123.9,59.8z
			 M125.2,69.3c-0.5,0.4-1,0.6-1.6,0.6c-0.6,0-1.2-0.2-1.7-0.6c-3-2.6-4.8-4-4.9-6.8c-0.1-3,3-4.1,5-1.6c0.4,0.5,1,0.8,1.6,0.8
			c0.6,0,1.2-0.3,1.6-0.8c1.9-2.4,5.1-1.4,5,1.7C130.1,65.4,128.1,66.8,125.2,69.3z"/>
		<path class="st7" d="M111.6,52.6h24.1c2.4,0,4.3,2,4.3,4.5v13.1c0,2.5-1.9,4.5-4.3,4.5l-8.2,0l-3.8,5.4l-3.8-5.4l-8.2,0
			c-2.4,0-4.3-2-4.3-4.5V57.1"/>
	</g>
	<path id="profile_2_" class="st4" d="M75.5,56.1c2-1.6,3.2-4.3,2.8-7.2c-0.5-3.4-3.3-6.1-6.7-6.5c-4.7-0.5-8.7,3.1-8.7,7.7
		c0,2.4,1.1,4.6,2.9,6c-4.3,1.6-7.5,5.4-8,10.6c-0.1,0.8,0.5,1.4,1.3,1.4c0.7,0,1.2-0.5,1.3-1.1c0.5-5.7,4.9-9.2,10.3-9.2
		c5.3,0,9.8,3.4,10.3,9.2c0.1,0.7,0.6,1.1,1.3,1.1c0.8,0,1.4-0.7,1.3-1.4C83,61.5,79.8,57.7,75.5,56.1z M70.7,55.2
		c-2.8,0-5.2-2.3-5.2-5.2s2.3-5.2,5.2-5.2s5.2,2.3,5.2,5.2S73.5,55.2,70.7,55.2z"/>
	<line class="st8" x1="59.6" y1="74.6" x2="87.5" y2="74.6"/>
	<line class="st8" x1="78.3" y1="79.6" x2="87.5" y2="79.6"/>
	<line class="st8" x1="59.6" y1="79.6" x2="70.7" y2="79.6"/>
	<g>
		<path class="st4" d="M22.3,49.5c0.1,0,0.3,0,0.4,0.1l10.1,5.2c0.7,0.3,0.7,1.3,0,1.6l-10.1,5.2c-0.1,0.1-0.3,0.1-0.4,0.1
			c-0.5,0-0.9-0.4-0.9-0.9V50.4C21.4,49.9,21.8,49.5,22.3,49.5 M22.3,47.7c-1.5,0-2.8,1.2-2.8,2.8v10.5c0,1.5,1.2,2.8,2.8,2.8
			c0.4,0,0.9-0.1,1.3-0.3l10.1-5.2c0.9-0.5,1.5-1.4,1.5-2.5c0-1-0.6-2-1.5-2.5L23.6,48C23.2,47.8,22.8,47.7,22.3,47.7L22.3,47.7z"/>
	</g>
</g>
</svg>
