<?xml version="1.0" encoding="utf-8"?>
<!-- Generator: Adobe Illustrator 24.1.0, SVG Export Plug-In . SVG Version: 6.00 Build 0)  -->
<svg version="1.1" id="Layer_1" xmlns="http://www.w3.org/2000/svg" xmlns:xlink="http://www.w3.org/1999/xlink" x="0px" y="0px"
	 viewBox="0 0 105.1 129.7" style="enable-background:new 0 0 105.1 129.7;" xml:space="preserve">
<style type="text/css">
	.st0{fill:none;stroke:#8264FF;stroke-width:3;stroke-linecap:round;stroke-miterlimit:10;}
	.st1{fill:none;stroke:#C1B1FF;stroke-width:3;stroke-linecap:round;stroke-miterlimit:10;}
	.st2{fill:none;stroke:#C1B1FF;stroke-width:3;stroke-linecap:round;stroke-linejoin:round;stroke-miterlimit:10;}
	.st3{fill:none;stroke:#8264FF;stroke-width:3;stroke-linecap:round;stroke-linejoin:round;stroke-miterlimit:10;}
	.st4{fill:#C1B1FF;}
	.st5{fill:#8264FF;}
</style>
<g>
	<polyline class="st0" points="4.1,64.4 4.1,16.1 56.9,16.1 	"/>
	<polyline class="st0" points="101.9,113.6 4.1,113.6 4.1,101.6 	"/>
	<path class="st0" d="M20.6,108.6L20.6,108.6c-2,0-3.6-1.6-3.6-3.6v-6.9c0-2,1.6-3.6,3.6-3.6h0c2,0,3.6,1.6,3.6,3.6v6.9
		C24.2,107,22.6,108.6,20.6,108.6z"/>
	<path class="st1" d="M38.7,108.6L38.7,108.6c-2,0-3.6-1.6-3.6-3.6V85c0-2,1.6-3.6,3.6-3.6h0c2,0,3.6,1.6,3.6,3.6v20.1
		C42.3,107,40.7,108.6,38.7,108.6z"/>
	<path class="st0" d="M56.9,108.6L56.9,108.6c-2,0-3.6-1.6-3.6-3.6V69.6c0-2,1.6-3.6,3.6-3.6h0c2,0,3.6,1.6,3.6,3.6v35.5
		C60.4,107,58.8,108.6,56.9,108.6z"/>
	<path class="st1" d="M75,108.6L75,108.6c-2,0-3.6-1.6-3.6-3.6V53.2c0-2,1.6-3.6,3.6-3.6h0c2,0,3.6,1.6,3.6,3.6v51.8
		C78.6,107,77,108.6,75,108.6z"/>
	<path class="st0" d="M93.1,108.6L93.1,108.6c-2,0-3.6-1.6-3.6-3.6V41c0-2,1.6-3.6,3.6-3.6l0,0c2,0,3.6,1.6,3.6,3.6v64.1
		C96.7,107,95.1,108.6,93.1,108.6z"/>
	<line class="st2" x1="19.4" y1="68.1" x2="12.5" y2="73.2"/>
	<line class="st2" x1="43.1" y1="50.3" x2="25.2" y2="63.7"/>
	<line class="st2" x1="29.2" y1="70.6" x2="13.2" y2="82.6"/>
	<line class="st2" x1="44.3" y1="59.3" x2="36.3" y2="65.2"/>
	<polyline class="st3" points="84.2,17.7 97.1,16.1 57,47.1 43.1,33.2 4.3,64.4 	"/>
	<line class="st3" x1="97.1" y1="16.1" x2="91.8" y2="28.3"/>
	<g>
		<circle class="st4" cx="11.5" cy="25.4" r="2.1"/>
		<circle class="st4" cx="22.6" cy="25.4" r="2.1"/>
		<circle class="st4" cx="33.8" cy="25.4" r="2.1"/>
	</g>
	<circle class="st5" cx="4.3" cy="94.6" r="2.1"/>
</g>
</svg>
