<?xml version="1.0" encoding="utf-8"?>
<!-- Generator: Adobe Illustrator 24.1.0, SVG Export Plug-In . SVG Version: 6.00 Build 0)  -->
<svg version="1.1" id="Layer_1" xmlns="http://www.w3.org/2000/svg" xmlns:xlink="http://www.w3.org/1999/xlink" x="0px" y="0px"
	 viewBox="0 0 105.1 129.7" style="enable-background:new 0 0 105.1 129.7;" xml:space="preserve">
<style type="text/css">
	.st0{fill:none;stroke:#8264FF;stroke-width:3;stroke-linecap:round;stroke-linejoin:round;stroke-miterlimit:10;}
	.st1{fill:none;stroke:#C1B1FF;stroke-width:3;stroke-linecap:round;stroke-linejoin:round;stroke-miterlimit:10;}
	.st2{fill:#8264FF;}
	.st3{fill:none;stroke:#8264FF;stroke-width:2;stroke-linecap:round;stroke-linejoin:round;stroke-miterlimit:10;}
	
		.st4{fill:none;stroke:#C1B1FF;stroke-width:2;stroke-linecap:round;stroke-linejoin:round;stroke-miterlimit:10;stroke-dasharray:1,6;}
	
		.st5{fill:none;stroke:#8264FF;stroke-width:2;stroke-linecap:round;stroke-linejoin:round;stroke-miterlimit:10;stroke-dasharray:1,6;}
</style>
<g>
	<line class="st0" x1="16.5" y1="109.3" x2="88.8" y2="109.3"/>
	<g>
		<line class="st0" x1="44.4" y1="84.1" x2="44.4" y2="101.7"/>
		<line class="st0" x1="60.9" y1="84.1" x2="60.9" y2="101.7"/>
	</g>
	<path class="st0" d="M68.9,109.3H36.4c-2.1,0-3.8-1.7-3.8-3.8v0c0-2.1,1.7-3.8,3.8-3.8h32.6c2.1,0,3.8,1.7,3.8,3.8v0
		C72.7,107.5,71,109.3,68.9,109.3z"/>
	<path class="st0" d="M96.8,19c3.2,0,5.3,2.6,5.3,5.9v0.7v11.1v22.6v19c0,3.2-2.6,5.9-5.9,5.9H9.1c-3.2,0-5.9-2.6-5.9-5.9V56.7V24.3
		C3.2,21,5.8,19,9.1,19h14.2h14.8h19.5h38.7H96.8z"/>
	<line class="st1" x1="94.7" y1="63" x2="94.7" y2="68.9"/>
	<polyline class="st1" points="11.4,34.4 11.4,26.2 94.7,26.2 94.7,56.6 	"/>
	<line class="st1" x1="11.4" y1="65.3" x2="11.4" y2="39.9"/>
	<g>
		<path class="st2" d="M43.6,40.1c0.3,0,0.7,0.1,1,0.3l17.6,9.2c1.6,0.8,1.6,3.1,0,4l-17.6,9.2c-0.3,0.2-0.7,0.3-1,0.3
			c-1.2,0-2.2-0.9-2.2-2.2V42.3C41.3,41,42.4,40.1,43.6,40.1 M43.6,37.1c-2.9,0-5.2,2.4-5.2,5.2v18.4c0,2.9,2.4,5.2,5.2,5.2
			c0.8,0,1.7-0.2,2.4-0.6l17.6-9.2c1.7-0.9,2.8-2.7,2.8-4.7c0-2-1.1-3.7-2.8-4.7L46,37.7C45.2,37.3,44.4,37.1,43.6,37.1L43.6,37.1z"
			/>
	</g>
	<line class="st3" x1="21.5" y1="75.4" x2="94.7" y2="75.4"/>
	<line class="st3" x1="11.4" y1="75.4" x2="17.4" y2="75.4"/>
	<rect x="17.9" y="71.8" class="st3" width="3.1" height="7.2"/>
	<g>
		<line class="st4" x1="74" y1="69.7" x2="74" y2="54.7"/>
		<line class="st5" x1="79.5" y1="65.6" x2="79.2" y2="38.6"/>
		<line class="st4" x1="85" y1="59" x2="85" y2="33.4"/>
	</g>
</g>
</svg>
