<?xml version="1.0" encoding="utf-8"?>
<!-- Generator: Adobe Illustrator 24.1.0, SVG Export Plug-In . SVG Version: 6.00 Build 0)  -->
<svg version="1.1" id="Слой_1" xmlns="http://www.w3.org/2000/svg" xmlns:xlink="http://www.w3.org/1999/xlink" x="0px" y="0px"
	 viewBox="0 0 2111.7 2093.5" style="enable-background:new 0 0 2111.7 2093.5;" xml:space="preserve">
<style type="text/css">
	
		.st0{fill:none;stroke:#0A0A23;stroke-width:6;stroke-linecap:round;stroke-linejoin:round;stroke-miterlimit:10;stroke-dasharray:1,33;}
	.st1{fill:none;stroke:#0A0A23;stroke-miterlimit:10;}
	.st2{fill:#0A0A23;}
	.st3{fill:none;stroke:#0A0A23;stroke-width:3;stroke-miterlimit:10;}
	.st4{fill:none;stroke:#8264FF;stroke-width:2;stroke-miterlimit:10;}
	.st5{fill:none;stroke:#0A0A23;stroke-width:0.9002;stroke-miterlimit:10;}
	
		.st6{fill:none;stroke:#0A0A23;stroke-width:2;stroke-linecap:round;stroke-linejoin:round;stroke-miterlimit:10;stroke-dasharray:1,8;}
	
		.st7{fill:none;stroke:#0A0A23;stroke-width:2;stroke-linecap:round;stroke-linejoin:round;stroke-miterlimit:10;stroke-dasharray:1,20;}
	
		.st8{fill:none;stroke:#0A0A23;stroke-width:2.3077;stroke-linecap:round;stroke-linejoin:round;stroke-miterlimit:10;stroke-dasharray:1,20;}
	
		.st9{fill:none;stroke:#0A0A23;stroke-width:2.6154;stroke-linecap:round;stroke-linejoin:round;stroke-miterlimit:10;stroke-dasharray:1,20;}
	
		.st10{fill:none;stroke:#0A0A23;stroke-width:2.9231;stroke-linecap:round;stroke-linejoin:round;stroke-miterlimit:10;stroke-dasharray:1,20;}
	
		.st11{fill:none;stroke:#0A0A23;stroke-width:3.2308;stroke-linecap:round;stroke-linejoin:round;stroke-miterlimit:10;stroke-dasharray:1,20;}
	
		.st12{fill:none;stroke:#0A0A23;stroke-width:3.5385;stroke-linecap:round;stroke-linejoin:round;stroke-miterlimit:10;stroke-dasharray:1,20;}
	
		.st13{fill:none;stroke:#0A0A23;stroke-width:3.8462;stroke-linecap:round;stroke-linejoin:round;stroke-miterlimit:10;stroke-dasharray:1,20;}
	
		.st14{fill:none;stroke:#0A0A23;stroke-width:4.1538;stroke-linecap:round;stroke-linejoin:round;stroke-miterlimit:10;stroke-dasharray:1,20;}
	
		.st15{fill:none;stroke:#0A0A23;stroke-width:4.4615;stroke-linecap:round;stroke-linejoin:round;stroke-miterlimit:10;stroke-dasharray:1,20;}
	
		.st16{fill:none;stroke:#0A0A23;stroke-width:4.7692;stroke-linecap:round;stroke-linejoin:round;stroke-miterlimit:10;stroke-dasharray:1,20;}
	
		.st17{fill:none;stroke:#0A0A23;stroke-width:5.0769;stroke-linecap:round;stroke-linejoin:round;stroke-miterlimit:10;stroke-dasharray:1,20;}
	
		.st18{fill:none;stroke:#0A0A23;stroke-width:5.3846;stroke-linecap:round;stroke-linejoin:round;stroke-miterlimit:10;stroke-dasharray:1,20;}
	
		.st19{fill:none;stroke:#0A0A23;stroke-width:5.6923;stroke-linecap:round;stroke-linejoin:round;stroke-miterlimit:10;stroke-dasharray:1,20;}
	
		.st20{fill:none;stroke:#0A0A23;stroke-width:6;stroke-linecap:round;stroke-linejoin:round;stroke-miterlimit:10;stroke-dasharray:1,20;}
	
		.st21{fill:none;stroke:#0A0A23;stroke-width:5.673;stroke-linecap:round;stroke-linejoin:round;stroke-miterlimit:10;stroke-dasharray:1,20;}
	
		.st22{fill:none;stroke:#0A0A23;stroke-width:5.3905;stroke-linecap:round;stroke-linejoin:round;stroke-miterlimit:10;stroke-dasharray:1,20;}
	
		.st23{fill:none;stroke:#0A0A23;stroke-width:5.108;stroke-linecap:round;stroke-linejoin:round;stroke-miterlimit:10;stroke-dasharray:1,20;}
	
		.st24{fill:none;stroke:#0A0A23;stroke-width:4.8254;stroke-linecap:round;stroke-linejoin:round;stroke-miterlimit:10;stroke-dasharray:1,20;}
	
		.st25{fill:none;stroke:#0A0A23;stroke-width:4.5429;stroke-linecap:round;stroke-linejoin:round;stroke-miterlimit:10;stroke-dasharray:1,20;}
	
		.st26{fill:none;stroke:#0A0A23;stroke-width:4.2603;stroke-linecap:round;stroke-linejoin:round;stroke-miterlimit:10;stroke-dasharray:1,20;}
	
		.st27{fill:none;stroke:#0A0A23;stroke-width:3.9778;stroke-linecap:round;stroke-linejoin:round;stroke-miterlimit:10;stroke-dasharray:1,20;}
	
		.st28{fill:none;stroke:#0A0A23;stroke-width:3.6953;stroke-linecap:round;stroke-linejoin:round;stroke-miterlimit:10;stroke-dasharray:1,20;}
	
		.st29{fill:none;stroke:#0A0A23;stroke-width:3.4127;stroke-linecap:round;stroke-linejoin:round;stroke-miterlimit:10;stroke-dasharray:1,20;}
	
		.st30{fill:none;stroke:#0A0A23;stroke-width:3.1302;stroke-linecap:round;stroke-linejoin:round;stroke-miterlimit:10;stroke-dasharray:1,20;}
	
		.st31{fill:none;stroke:#0A0A23;stroke-width:2.8476;stroke-linecap:round;stroke-linejoin:round;stroke-miterlimit:10;stroke-dasharray:1,20;}
	
		.st32{fill:none;stroke:#0A0A23;stroke-width:2.5651;stroke-linecap:round;stroke-linejoin:round;stroke-miterlimit:10;stroke-dasharray:1,20;}
	
		.st33{fill:none;stroke:#0A0A23;stroke-width:2.2825;stroke-linecap:round;stroke-linejoin:round;stroke-miterlimit:10;stroke-dasharray:1,20;}
	
		.st34{fill:none;stroke:#8264FF;stroke-width:5.1684;stroke-linecap:round;stroke-linejoin:round;stroke-miterlimit:10;stroke-dasharray:0.911,18.2209;}
	
		.st35{fill:none;stroke:#8264FF;stroke-width:4.9043;stroke-linecap:round;stroke-linejoin:round;stroke-miterlimit:10;stroke-dasharray:0.8645,17.2899;}
	
		.st36{fill:none;stroke:#8264FF;stroke-width:4.6402;stroke-linecap:round;stroke-linejoin:round;stroke-miterlimit:10;stroke-dasharray:0.8179,16.3588;}
	
		.st37{fill:none;stroke:#8264FF;stroke-width:4.3761;stroke-linecap:round;stroke-linejoin:round;stroke-miterlimit:10;stroke-dasharray:0.7714,15.4278;}
	
		.st38{fill:none;stroke:#8264FF;stroke-width:4.112;stroke-linecap:round;stroke-linejoin:round;stroke-miterlimit:10;stroke-dasharray:0.7248,14.4967;}
	
		.st39{fill:none;stroke:#8264FF;stroke-width:3.8479;stroke-linecap:round;stroke-linejoin:round;stroke-miterlimit:9.9997;stroke-dasharray:0.6783,13.5654;}
	
		.st40{fill:none;stroke:#8264FF;stroke-width:3.5839;stroke-linecap:round;stroke-linejoin:round;stroke-miterlimit:9.9997;stroke-dasharray:0.6317,12.6344;}
	
		.st41{fill:none;stroke:#8264FF;stroke-width:3.3198;stroke-linecap:round;stroke-linejoin:round;stroke-miterlimit:10;stroke-dasharray:0.5852,11.7036;}
	
		.st42{fill:none;stroke:#8264FF;stroke-width:3.0557;stroke-linecap:round;stroke-linejoin:round;stroke-miterlimit:10;stroke-dasharray:0.5386,10.7726;}
	
		.st43{fill:none;stroke:#8264FF;stroke-width:2.7916;stroke-linecap:round;stroke-linejoin:round;stroke-miterlimit:9.9997;stroke-dasharray:0.4921,9.8413;}
	
		.st44{fill:none;stroke:#8264FF;stroke-width:2.5275;stroke-linecap:round;stroke-linejoin:round;stroke-miterlimit:9.9997;stroke-dasharray:0.4455,8.9102;}
	
		.st45{fill:none;stroke:#8264FF;stroke-width:2.2634;stroke-linecap:round;stroke-linejoin:round;stroke-miterlimit:10;stroke-dasharray:0.399,7.9795;}
	
		.st46{fill:none;stroke:#8264FF;stroke-width:1.9993;stroke-linecap:round;stroke-linejoin:round;stroke-miterlimit:9.9997;stroke-dasharray:0.3524,7.0482;}
	
		.st47{fill:none;stroke:#8264FF;stroke-width:1.7352;stroke-linecap:round;stroke-linejoin:round;stroke-miterlimit:9.9997;stroke-dasharray:0.3059,6.1171;}
	
		.st48{fill:none;stroke:#8264FF;stroke-width:1.4711;stroke-linecap:round;stroke-linejoin:round;stroke-miterlimit:9.9997;stroke-dasharray:0.2593,5.1862;}
	
		.st49{fill:none;stroke:#8264FF;stroke-width:1.207;stroke-linecap:round;stroke-linejoin:round;stroke-miterlimit:10;stroke-dasharray:0.2128,4.2554;}
	
		.st50{fill:none;stroke:#8264FF;stroke-width:0.943;stroke-linecap:round;stroke-linejoin:round;stroke-miterlimit:10;stroke-dasharray:0.1662,3.3243;}
	
		.st51{fill:none;stroke:#8264FF;stroke-width:0.6789;stroke-linecap:round;stroke-linejoin:round;stroke-miterlimit:10;stroke-dasharray:0.1197,2.3933;}
	
		.st52{fill:none;stroke:#8264FF;stroke-width:0.4148;stroke-linecap:round;stroke-linejoin:round;stroke-miterlimit:10;stroke-dasharray:7.311305e-02,1.4623;}
	
		.st53{fill:none;stroke:#8264FF;stroke-width:0.1507;stroke-linecap:round;stroke-linejoin:round;stroke-miterlimit:10;stroke-dasharray:2.656130e-02,0.5312;}
	.st54{fill:none;stroke:#0A0A23;stroke-width:1.5;stroke-miterlimit:10;}
	
		.st55{fill:none;stroke:#0A0A23;stroke-width:2;stroke-linecap:round;stroke-linejoin:round;stroke-miterlimit:10;stroke-dasharray:1,10;}
	.st56{opacity:0.1;fill:#0A0A23;enable-background:new    ;}
	.st57{fill:none;stroke:#0A0A23;stroke-width:2;stroke-miterlimit:10;}
	.st58{fill:#8264FF;}
</style>
<circle class="st0" cx="1047.1" cy="1049.9" r="600.5"/>
<line class="st1" x1="1513.9" y1="1305.2" x2="1472.5" y2="1386.4"/>
<path class="st1" d="M764.6,940.2"/>
<path class="st2" d="M1061.6,1049.9c0-8-6.5-14.5-14.5-14.5s-14.5,6.5-14.5,14.5s6.5,14.5,14.5,14.5S1061.6,1057.9,1061.6,1049.9z"
	/>
<path class="st2" d="M1364.7,746.1c0-8-6.5-14.5-14.5-14.5s-14.5,6.5-14.5,14.5s6.5,14.5,14.5,14.5S1364.7,754.2,1364.7,746.1z"/>
<path class="st2" d="M619,940.2c0-8-6.5-14.5-14.5-14.5s-14.5,6.5-14.5,14.5s6.5,14.5,14.5,14.5S619,948.2,619,940.2z"/>
<path class="st2" d="M1205.2,1446.2c0-8-6.5-14.5-14.5-14.5s-14.5,6.5-14.5,14.5s6.5,14.5,14.5,14.5S1205.2,1454.2,1205.2,1446.2z"
	/>
<line class="st3" x1="1047.1" y1="1051.8" x2="1190.7" y2="1446.2"/>
<path class="st2" d="M1245.5,1057.9c-3.2-3.3-8.2-3.2-11.4,0.1c-3.1,3.3-3.1,8.6,0.1,11.9s8.2,3.2,11.4-0.1
	C1248.7,1066.4,1248.7,1061.2,1245.5,1057.9z"/>
<g>
	<path class="st4" d="M1193.8,902.9c-37.6-37.5-89.4-60.7-146.7-60.7c-97.5,0-179.2,67.2-201.6,157.7"/>
	<path class="st4" d="M1183.2,913.6c-34.9-34.8-83-56.3-136.1-56.3c-90.4,0-166.3,62.2-187,146.3"/>
	<path class="st4" d="M1172.5,924.2c-32.1-32.1-76.5-51.9-125.5-51.9c-83.4,0-153.3,57.3-172.5,134.8"/>
	<path class="st4" d="M1161.9,934.9c-29.4-29.4-70.1-47.5-114.9-47.5c-76.4,0-140.4,52.4-157.9,123.4"/>
	<path class="st4" d="M1151.2,945.6c-26.7-26.7-63.6-43.2-104.3-43.2c-69.3,0-127.4,47.5-143.3,111.9"/>
	<path class="st4" d="M1140.6,956.2c-24-24-57.1-38.8-93.7-38.8c-62.3,0-114.5,42.6-128.8,100.5"/>
	<path class="st4" d="M1129.9,966.9c-21.3-21.3-50.7-34.4-83.2-34.4c-55.3,0-101.5,37.7-114.2,89"/>
	<path class="st4" d="M1119.3,977.6c-18.6-18.6-44.2-30-72.6-30c-48.2,0-88.6,32.8-99.6,77.6"/>
	<path class="st4" d="M1108.7,988.2c-15.9-15.9-37.8-25.7-62-25.7c-41.2,0-75.6,27.9-85.1,66.2"/>
	<path class="st4" d="M1098,998.9c-13.2-13.2-31.3-21.3-51.4-21.3c-34.2,0-62.7,23-70.5,54.7"/>
</g>
<line class="st5" x1="937.9" y1="926.1" x2="937.9" y2="926.1"/>
<path class="st3" d="M1096,1187.2c-11.4,2.7-23.3,4.1-35.5,4.1c-85.1,0-154.2-69.1-154.2-154.3c0-7.1,0.5-14.1,1.4-20.9"/>
<g>
	<path class="st6" d="M1183.3,913.4c35,34.9,56.6,83.2,56.6,136.5c0,83.5-53.1,154.6-127.4,181.4"/>
	<path class="st6" d="M1175.5,921.4c33,33,53.5,78.5,53.5,128.9c0,78.9-49.9,146-120.1,171.2"/>
	<path class="st6" d="M1167.7,929.3c31.1,31,50.3,73.9,50.3,121.3c0,74.3-46.7,137.3-112.7,161.1"/>
	<path class="st6" d="M1159.9,937.2c29.2,29.1,47.2,69.3,47.2,113.7c0,69.6-43.4,128.6-105.4,150.9"/>
	<path class="st6" d="M1152.1,945.2c27.2,27.2,44,64.7,44,106.2c0,65-40.2,119.9-98,140.7"/>
	<path class="st6" d="M1144.3,953.1c25.3,25.2,40.9,60.1,40.9,98.6c0,60.4-36.9,111.2-90.6,130.5"/>
	<path class="st6" d="M1136.6,961c23.3,23.3,37.8,55.5,37.8,91c0,55.7-33.7,102.5-83.3,120.4"/>
	<path class="st6" d="M1128.8,969c21.4,21.3,34.6,50.9,34.6,83.5c0,51.1-30.5,93.8-75.9,110.2"/>
	<path class="st6" d="M1121,976.9c19.5,19.4,31.5,46.2,31.5,75.9c0,46.5-27.2,85.1-68.6,100"/>
	<path class="st6" d="M1113.2,984.8c17.5,17.5,28.3,41.6,28.3,68.3c0,41.8-24,76.5-61.2,89.8"/>
</g>
<g>
	<line class="st7" x1="1112.5" y1="1231.2" x2="1530.8" y2="1652.9"/>
	<line class="st8" x1="1112.5" y1="1231.2" x2="1498.6" y2="1681.7"/>
	<line class="st9" x1="1112.5" y1="1231.2" x2="1466.4" y2="1710.2"/>
	<line class="st10" x1="1112.5" y1="1231.2" x2="1434.2" y2="1738.9"/>
	<line class="st11" x1="1112.5" y1="1231.2" x2="1402" y2="1767.7"/>
	<line class="st12" x1="1112.5" y1="1231.2" x2="1369.9" y2="1796.2"/>
	<line class="st13" x1="1112.5" y1="1231.2" x2="1337.7" y2="1824.9"/>
	<line class="st14" x1="1112.5" y1="1231.2" x2="1305.5" y2="1853.6"/>
	<line class="st15" x1="1112.5" y1="1231.2" x2="1273.3" y2="1882.2"/>
	<line class="st16" x1="1112.5" y1="1231.2" x2="1241.2" y2="1910.9"/>
	<line class="st17" x1="1112.5" y1="1231.2" x2="1209" y2="1939.6"/>
	<line class="st18" x1="1112.5" y1="1231.2" x2="1176.8" y2="1968.2"/>
	<line class="st19" x1="1112.5" y1="1231.2" x2="1144.6" y2="1996.9"/>
	<line class="st20" x1="1112.5" y1="1231.2" x2="1112.5" y2="2025.6"/>
</g>
<g>
	<line class="st21" x1="845.5" y1="999.9" x2="32.4" y2="1032.9"/>
	<line class="st22" x1="845.5" y1="999.9" x2="64.9" y2="1000.3"/>
	<line class="st23" x1="845.5" y1="999.9" x2="97.4" y2="967.7"/>
	<line class="st24" x1="845.5" y1="999.9" x2="129.9" y2="935.1"/>
	<line class="st25" x1="845.5" y1="999.9" x2="162.4" y2="902.5"/>
	<line class="st26" x1="845.5" y1="999.9" x2="194.8" y2="869.9"/>
	<line class="st27" x1="845.5" y1="999.9" x2="227.3" y2="837.3"/>
	<line class="st28" x1="845.5" y1="999.9" x2="259.8" y2="804.7"/>
	<line class="st29" x1="845.5" y1="999.9" x2="292.3" y2="772.1"/>
	<line class="st30" x1="845.5" y1="999.9" x2="324.8" y2="739.5"/>
	<line class="st31" x1="845.5" y1="999.9" x2="357.3" y2="706.9"/>
	<line class="st32" x1="845.5" y1="999.9" x2="389.7" y2="674.3"/>
	<line class="st33" x1="845.5" y1="999.9" x2="422.2" y2="641.7"/>
	<line class="st7" x1="845.5" y1="999.9" x2="454.7" y2="609.1"/>
</g>
<g>
	<line class="st21" x1="1190.7" y1="905.3" x2="1522" y2="37.9"/>
	<line class="st22" x1="1190.7" y1="905.3" x2="1534.8" y2="86"/>
	<line class="st23" x1="1190.7" y1="905.3" x2="1547.5" y2="134.1"/>
	<line class="st24" x1="1190.7" y1="905.3" x2="1560.2" y2="182.3"/>
	<line class="st25" x1="1190.7" y1="905.3" x2="1573" y2="230.4"/>
	<line class="st26" x1="1190.7" y1="905.3" x2="1585.7" y2="278.5"/>
	<line class="st27" x1="1190.7" y1="905.3" x2="1598.5" y2="326.6"/>
	<line class="st28" x1="1190.7" y1="905.3" x2="1611.2" y2="374.7"/>
	<line class="st29" x1="1190.7" y1="905.3" x2="1624" y2="422.8"/>
	<line class="st30" x1="1190.7" y1="905.3" x2="1636.7" y2="471"/>
	<line class="st31" x1="1190.7" y1="905.3" x2="1649.4" y2="519.1"/>
	<line class="st32" x1="1190.7" y1="905.3" x2="1662.2" y2="567.2"/>
	<line class="st33" x1="1190.7" y1="905.3" x2="1674.9" y2="615.3"/>
	<line class="st7" x1="1190.7" y1="905.3" x2="1687.7" y2="663.4"/>
</g>
<g>
	<circle class="st1" cx="1047.1" cy="1049.9" r="414.8"/>
	<circle class="st1" cx="1047.1" cy="1049.9" r="403.4"/>
	<circle class="st1" cx="1047.1" cy="1049.9" r="392"/>
	<circle class="st1" cx="1047.1" cy="1049.8" r="380.7"/>
	<circle class="st1" cx="1047.1" cy="1049.9" r="369.3"/>
	<circle class="st1" cx="1047.1" cy="1049.9" r="357.9"/>
	<circle class="st1" cx="1047.1" cy="1049.9" r="346.5"/>
	<circle class="st1" cx="1047.1" cy="1049.8" r="335.2"/>
	<circle class="st1" cx="1047.1" cy="1049.9" r="323.8"/>
	<circle class="st1" cx="1047.1" cy="1049.9" r="312.4"/>
</g>
<path class="st2" d="M1519.6,1299.2c-3.2-3.3-8.2-3.2-11.4,0.1c-3.1,3.3-3.1,8.6,0.1,11.9s8.2,3.2,11.4-0.1
	C1522.8,1307.8,1522.8,1302.4,1519.6,1299.2z"/>
<path class="st2" d="M1599.7,1500.9c-3.2-3.3-8.2-3.2-11.4,0.1c-3.1,3.3-3.1,8.6,0.1,11.9s8.2,3.2,11.4-0.1
	C1602.9,1509.6,1602.9,1504.2,1599.7,1500.9z"/>
<path class="st2" d="M1478.2,1380.4c-3.2-3.3-8.2-3.2-11.4,0.1c-3.1,3.3-3.1,8.6,0.1,11.9s8.2,3.2,11.4-0.1
	C1481.4,1389.1,1481.3,1383.8,1478.2,1380.4z"/>
<g>
	<circle class="st34" cx="1647.6" cy="1055.5" r="355.9"/>
	<circle class="st35" cx="1647.6" cy="1055.4" r="337.7"/>
	<circle class="st36" cx="1647.6" cy="1055.5" r="319.5"/>
	<circle class="st37" cx="1647.6" cy="1055.5" r="301.3"/>
	<circle class="st38" cx="1647.6" cy="1055.5" r="283.1"/>
	<ellipse class="st39" cx="1647.6" cy="1055.5" rx="265" ry="265"/>
	<ellipse class="st40" cx="1647.6" cy="1055.5" rx="246.8" ry="246.8"/>
	<circle class="st41" cx="1647.6" cy="1055.5" r="228.6"/>
	<circle class="st42" cx="1647.6" cy="1055.5" r="210.4"/>
	<ellipse class="st43" cx="1647.6" cy="1055.5" rx="192.2" ry="192.2"/>
	<ellipse class="st44" cx="1647.6" cy="1055.5" rx="174" ry="174"/>
	<circle class="st45" cx="1647.6" cy="1055.5" r="155.9"/>
	
		<ellipse transform="matrix(0.7071 -0.7071 0.7071 0.7071 -263.7836 1474.1995)" class="st46" cx="1647.6" cy="1055.5" rx="137.7" ry="137.7"/>
	<ellipse class="st47" cx="1647.6" cy="1055.5" rx="119.5" ry="119.5"/>
	
		<ellipse transform="matrix(0.7071 -0.7071 0.7071 0.7071 -263.7837 1474.1993)" class="st48" cx="1647.6" cy="1055.5" rx="101.3" ry="101.3"/>
	<circle class="st49" cx="1647.6" cy="1055.5" r="83.1"/>
	<circle class="st50" cx="1647.6" cy="1055.5" r="64.9"/>
	<circle class="st51" cx="1647.6" cy="1055.4" r="46.7"/>
	<circle class="st52" cx="1647.6" cy="1055.5" r="28.6"/>
	<circle class="st53" cx="1647.6" cy="1055.5" r="10.4"/>
</g>
<g>
	<line class="st1" x1="1527.2" y1="1651.1" x2="1670.6" y2="1798.9"/>
	<line class="st1" x1="1702" y1="1648.1" x2="1670.6" y2="1798.9"/>
	<line class="st1" x1="1527.2" y1="1651.1" x2="1701.2" y2="1647.4"/>
	<g>
		<line class="st1" x1="1527.2" y1="1651.1" x2="1268.1" y2="1882.2"/>
		<line class="st1" x1="1538.3" y1="1662.4" x2="1268.1" y2="1882.2"/>
		<line class="st1" x1="1549.3" y1="1673.9" x2="1268.1" y2="1882.2"/>
		<line class="st1" x1="1560.3" y1="1685.2" x2="1268.1" y2="1882.2"/>
		<line class="st1" x1="1571.4" y1="1696.6" x2="1268.1" y2="1882.2"/>
		<line class="st1" x1="1582.4" y1="1707.9" x2="1268.1" y2="1882.2"/>
		<line class="st1" x1="1593.4" y1="1719.4" x2="1268.1" y2="1882.2"/>
		<line class="st1" x1="1604.5" y1="1730.8" x2="1268.1" y2="1882.2"/>
		<line class="st1" x1="1615.5" y1="1742.1" x2="1268.1" y2="1882.2"/>
		<line class="st1" x1="1626.5" y1="1753.4" x2="1268.1" y2="1882.2"/>
		<line class="st1" x1="1637.6" y1="1764.9" x2="1268.1" y2="1882.2"/>
		<line class="st1" x1="1648.6" y1="1776.2" x2="1268.1" y2="1882.2"/>
		<line class="st1" x1="1659.6" y1="1787.7" x2="1268.1" y2="1882.2"/>
		<line class="st1" x1="1670.6" y1="1798.9" x2="1268.1" y2="1882.2"/>
	</g>
	<path class="st2" d="M1678.8,1797.8c0.9,4.4-2,8.6-6.5,9.3s-8.9-2.3-9.8-6.8c-0.9-4.4,2-8.6,6.5-9.3
		C1673.5,1790.2,1677.9,1793.2,1678.8,1797.8z"/>
	<path class="st2" d="M1535.4,1649.8c0.9,4.4-2,8.6-6.5,9.3s-8.9-2.3-9.8-6.8s2-8.6,6.5-9.3
		C1530.1,1642.2,1534.5,1645.4,1535.4,1649.8z"/>
	<path class="st2" d="M1709.4,1646.2c0.9,4.4-2,8.6-6.5,9.3c-4.5,0.7-8.9-2.3-9.8-6.8c-0.9-4.4,2-8.6,6.5-9.3
		C1704.1,1638.8,1708.4,1641.8,1709.4,1646.2z"/>
	<path class="st2" d="M1276.3,1880.9c0.9,4.4-2,8.6-6.5,9.3s-8.9-2.3-9.8-6.8c-0.9-4.4,2-8.6,6.5-9.3
		C1271,1873.4,1275.4,1876.6,1276.3,1880.9z"/>
</g>
<polyline class="st54" points="1809.4,1707.2 1808.4,1934.8 2001.9,1709.2 "/>
<path class="st2" d="M2016.4,1709.2c0,8-6.5,14.5-14.5,14.5s-14.5-6.5-14.5-14.5s6.5-14.5,14.5-14.5S2016.4,1701.2,2016.4,1709.2z"
	/>
<path class="st2" d="M1814,1940.8c-3.2,3.3-8.2,3.2-11.4-0.1c-3.1-3.3-3.1-8.6,0.1-11.9s8.2-3.2,11.4,0.1
	C1817.2,1932.2,1817.2,1937.4,1814,1940.8z"/>
<path class="st2" d="M1815.3,1712.1c-3.2,3.3-8.2,3.2-11.4-0.1c-3.1-3.3-3.1-8.6,0.1-11.9s8.2-3.2,11.4,0.1
	C1818.5,1703.6,1818.4,1708.9,1815.3,1712.1z"/>
<path class="st2" d="M2067.8,1558.8c-3.2,3.3-8.2,3.2-11.4-0.1c-3.1-3.3-3.1-8.6,0.1-11.9c3.2-3.3,8.2-3.2,11.4,0.1
	C2071,1550.2,2071,1555.4,2067.8,1558.8z"/>
<path class="st2" d="M1868.2,1513.8c-3.2,3.3-8.2,3.2-11.4-0.1c-3.1-3.3-3.1-8.6,0.1-11.9s8.2-3.2,11.4,0.1
	C1871.4,1505.2,1871.4,1510.4,1868.2,1513.8z"/>
<path class="st2" d="M1663.9,1055.5c0,8-6.5,14.5-14.5,14.5s-14.5-6.5-14.5-14.5s6.5-14.5,14.5-14.5S1663.9,1047.5,1663.9,1055.5z"
	/>
<line class="st55" x1="1670.6" y1="1798.9" x2="1808.4" y2="1934.8"/>
<polygon class="st56" points="1808.4,1934.8 1672.1,1798.9 1701.2,1647.4 1809.4,1707.2 "/>
<polyline class="st54" points="1809.4,1707.2 2002.9,1709.2 2062.2,1552.8 1702,1648.1 1809.4,1707.2 "/>
<line class="st3" x1="970.2" y1="1162.1" x2="736.2" y2="1438.9"/>
<line class="st57" x1="990.1" y1="1174.4" x2="962.2" y2="1231.2"/>
<path class="st2" d="M967.8,1237.2c-3.2,3.3-8.2,3.2-11.4-0.1c-3.1-3.3-3.1-8.6,0.1-11.9s8.2-3.2,11.4,0.1
	C971,1228.7,971,1233.9,967.8,1237.2z"/>
<path class="st2" d="M741.9,1444.9c-3.2,3.3-8.2,3.2-11.4-0.1c-3.1-3.3-3.1-8.6,0.1-11.9c3.2-3.3,8.2-3.2,11.4,0.1
	C745.1,1436.2,745,1441.6,741.9,1444.9z"/>
<g>
	<g>
		<path class="st2" d="M928.3,1842.2c8,0,14.5,6.5,14.5,14.5s-6.5,14.5-14.5,14.5s-14.5-6.5-14.5-14.5S920.3,1842.2,928.3,1842.2z"
			/>
		<path class="st2" d="M485.9,1668.6c8,0,14.5,6.5,14.5,14.5s-6.5,14.5-14.5,14.5s-14.5-6.5-14.5-14.5S477.9,1668.6,485.9,1668.6z"
			/>
		<path class="st2" d="M819.6,1766.4c3.2,0,5.7,2.6,5.7,5.7c0,3.2-2.6,5.7-5.7,5.7c-3.2,0-5.7-2.6-5.7-5.7
			C813.9,1769.1,816.5,1766.4,819.6,1766.4z"/>
		<path class="st2" d="M845,1722.6c1.4,0,2.6,1.1,2.6,2.6c0,1.4-1.1,2.6-2.6,2.6s-2.6-1.1-2.6-2.6S843.6,1722.6,845,1722.6z"/>
		<path class="st2" d="M578.1,1738.1c1.4,0,2.6,1.1,2.6,2.6s-1.1,2.6-2.6,2.6c-1.4,0-2.6-1.1-2.6-2.6S576.7,1738.1,578.1,1738.1z"/>
		<path class="st2" d="M728.9,1735.6c1.4,0,2.6,1.1,2.6,2.6s-1.1,2.6-2.6,2.6c-1.4,0-2.6-1.1-2.6-2.6S727.5,1735.6,728.9,1735.6z"/>
		<path class="st2" d="M881.5,1926.1c1.4,0,2.6,1.1,2.6,2.6c0,1.4-1.1,2.6-2.6,2.6c-1.4,0-2.6-1.1-2.6-2.6
			C879,1927.2,880.1,1926.1,881.5,1926.1z"/>
	</g>
	<path class="st58" d="M587,1600.1c0,8-6.5,14.5-14.5,14.5s-14.5-6.5-14.5-14.5s6.5-14.5,14.5-14.5S587,1592.1,587,1600.1z"/>
	<path class="st2" d="M714.8,1696.6c0,3.2-2.6,5.7-5.7,5.7c-3.2,0-5.7-2.6-5.7-5.7c0-3.2,2.6-5.7,5.7-5.7S714.8,1693.4,714.8,1696.6
		z"/>
</g>
<g>
	<g>
		<path class="st2" d="M1116.6,508.8c-1.8-2.6-1-6.2,1.6-7.9c2.6-1.8,6.2-1,7.9,1.6c1.8,2.6,1,6.2-1.6,7.9
			C1122,512.1,1118.4,511.4,1116.6,508.8z"/>
		<path class="st2" d="M1176.3,560.7c-0.8-1.2-0.5-2.8,0.7-3.6s2.8-0.5,3.6,0.7c0.8,1.2,0.5,2.8-0.7,3.6
			C1178.6,562.2,1177.1,561.9,1176.3,560.7z"/>
		<path class="st2" d="M1017.2,554.4c-0.8-1.2-0.5-2.8,0.7-3.6s2.8-0.5,3.6,0.7s0.5,2.8-0.7,3.6S1018,555.5,1017.2,554.4z"/>
	</g>
	<path class="st58" d="M694,787.3c-6.7,4.4-15.7,2.6-20.1-4.1c-4.4-6.7-2.6-15.7,4.1-20.1c6.7-4.4,15.7-2.6,20.1,4.1
		C702.5,773.9,700.7,782.9,694,787.3z"/>
	<path class="st2" d="M1033.2,607.8c-2.6,1.8-6.2,1-7.9-1.6c-1.8-2.6-1-6.2,1.6-7.9c2.6-1.8,6.2-1,7.9,1.6
		C1036.5,602.5,1035.8,606,1033.2,607.8z"/>
	<path class="st2" d="M782.9,680.9c-1.2,0.8-2.8,0.5-3.6-0.7s-0.5-2.8,0.7-3.6s2.8-0.5,3.6,0.7C784.4,678.5,784.1,680.1,782.9,680.9
		z"/>
	<path class="st2" d="M686.5,691.6c-1.2,0.8-2.8,0.5-3.6-0.7s-0.5-2.8,0.7-3.6s2.8-0.5,3.6,0.7S687.7,690.8,686.5,691.6z"/>
</g>
<g>
	<path class="st2" d="M1219.4,247.5c8-1.2,15.4,4.3,16.5,12.2c1.2,8-4.3,15.4-12.2,16.5c-8,1.2-15.4-4.3-16.5-12.2
		C1205.9,256.1,1211.4,248.7,1219.4,247.5z"/>
	<path class="st2" d="M1198.5,367.7c1.4-0.2,2.7,0.7,2.9,2.1c0.2,1.4-0.7,2.7-2.1,2.9c-1.4,0.2-2.7-0.7-2.9-2.1
		C1196.2,369.2,1197.1,367.9,1198.5,367.7z"/>
	<path class="st2" d="M1271.9,226.5c1.4-0.2,2.7,0.7,2.9,2.1s-0.7,2.7-2.1,2.9s-2.7-0.7-2.9-2.1S1270.5,226.7,1271.9,226.5z"/>
</g>
<path class="st2" d="M1216.8,218.2c-0.5-3.1,1.7-6,4.8-6.5c3.1-0.5,6,1.7,6.5,4.8c0.5,3.1-1.7,6-4.8,6.5
	C1220.2,223.5,1217.3,221.3,1216.8,218.2z"/>
<line class="st3" x1="1350.2" y1="746.1" x2="1047.1" y2="1049.9"/>
<line class="st3" x1="604.5" y1="940.2" x2="1047.1" y2="1049.9"/>
<path class="st58" d="M843.4,558.1c-2.8,2.8-7.4,2.8-10.3,0c-2.8-2.8-2.8-7.4,0-10.3c2.8-2.8,7.4-2.8,10.3,0
	C846.2,550.6,846.2,555.2,843.4,558.1z"/>
<path class="st2" d="M964.5,316.8c-4.5-0.1-8.1,3.6-8,8.1s3.9,8.3,8.5,8.3c4.5,0.1,8.1-3.6,8-8.1
	C972.9,320.6,969.1,316.9,964.5,316.8z"/>
<path class="st2" d="M1237.7,553.2c-5.7-5.7-5.7-14.9,0-20.5c5.7-5.7,14.9-5.7,20.5,0c5.7,5.7,5.7,14.9,0,20.5
	C1252.5,558.9,1243.3,558.9,1237.7,553.2z"/>
<path class="st2" d="M921.3,581.8c-3.2,0-5.7-2.6-5.7-5.7c0-3.2,2.6-5.7,5.7-5.7c3.2,0,5.7,2.6,5.7,5.7S924.5,581.8,921.3,581.8z"/>
<path class="st2" d="M880.7,626.2c-1.4,0-2.6-1.1-2.6-2.6c0-1.4,1.1-2.6,2.6-2.6c1.4,0,2.6,1.1,2.6,2.6
	C883.2,625,882.1,626.2,880.7,626.2z"/>
<path class="st2" d="M814.4,599.5c-1.4,0-2.6-1.1-2.6-2.6c0-1.4,1.1-2.6,2.6-2.6c1.4,0,2.6,1.1,2.6,2.6S815.8,599.5,814.4,599.5z"/>
<path class="st2" d="M1082.1,558.6c-1,1-2.6,1-3.6,0s-1-2.6,0-3.6s2.6-1,3.6,0C1083.1,555.9,1083.1,557.6,1082.1,558.6z"/>
<g>
	<path class="st1" d="M823.9,822.8"/>
	<path class="st1" d="M952.2,599.4"/>
	<g>
		<g>
			<g>
				<path class="st2" d="M1282.6,225.9c-0.6-4.6-4.7-7.5-9.2-6.7c-4.5,0.8-7.6,5.1-7,9.6c0.6,4.6,4.7,7.5,9.2,6.7
					C1280.1,234.6,1283.2,230.4,1282.6,225.9z"/>
			</g>
		</g>
		<path class="st1" d="M1527.3,560.5"/>
	</g>
	<line class="st1" x1="1203.8" y1="778.3" x2="1283.6" y2="858.2"/>
	<g>
		<line class="st1" x1="1527.3" y1="560.5" x2="1203.8" y2="778.3"/>
		<line class="st1" x1="1527.3" y1="560.5" x2="1199.6" y2="767.5"/>
		<line class="st1" x1="1527.3" y1="560.5" x2="1195.5" y2="756.8"/>
		<line class="st1" x1="1527.3" y1="560.5" x2="1191.3" y2="746"/>
		<line class="st1" x1="1527.3" y1="560.5" x2="1187.1" y2="735.2"/>
		<line class="st1" x1="1527.3" y1="560.5" x2="1182.9" y2="724.4"/>
		<line class="st1" x1="1527.3" y1="560.5" x2="1178.7" y2="713.6"/>
		<line class="st1" x1="1527.3" y1="560.5" x2="1174.5" y2="702.8"/>
		<line class="st1" x1="1527.3" y1="560.5" x2="1170.4" y2="692"/>
		<line class="st1" x1="1527.3" y1="560.5" x2="1166.2" y2="681.3"/>
		<line class="st1" x1="1527.3" y1="560.5" x2="1162" y2="670.5"/>
		<line class="st1" x1="1527.3" y1="560.5" x2="1157.8" y2="659.7"/>
		<line class="st1" x1="1527.3" y1="560.5" x2="1153.6" y2="648.9"/>
		<line class="st1" x1="1527.3" y1="560.5" x2="1149.4" y2="638.1"/>
	</g>
	<line class="st1" x1="1149.4" y1="638.1" x2="1203.8" y2="778.3"/>
	<line class="st1" x1="1031.3" y1="735.5" x2="1149.4" y2="638.1"/>
	<line class="st1" x1="1149.4" y1="638.1" x2="1389.3" y2="495.6"/>
	<path class="st2" d="M1149.2,629.9c-4.5-0.1-8.1,3.6-8,8.1s3.9,8.3,8.4,8.3c4.5,0.1,8.1-3.6,8-8.1S1153.7,630,1149.2,629.9z"/>
	<line class="st1" x1="1203.8" y1="778.3" x2="1031.3" y2="735.5"/>
	<path class="st2" d="M1203.6,770.1c-4.5-0.1-8.1,3.6-8,8.1s3.9,8.3,8.5,8.3c4.5,0.1,8.1-3.6,8-8.1
		C1211.9,773.9,1208.1,770.2,1203.6,770.1z"/>
	<path class="st2" d="M1283.4,849.9c-4.5-0.1-8.1,3.6-8,8.1s3.9,8.3,8.5,8.3c4.5,0.1,8.1-3.6,8-8.1
		C1291.7,853.7,1287.9,850,1283.4,849.9z"/>
	<path class="st2" d="M1031.1,727.3c-4.5-0.1-8.1,3.6-8,8.1s3.9,8.3,8.4,8.3c4.5,0.1,8.1-3.6,8-8.1S1035.6,727.4,1031.1,727.3z"/>
	<path class="st2" d="M1389.1,487.3c-4.5-0.1-8.1,3.6-8,8.1s3.9,8.3,8.5,8.3c4.5,0.1,8.1-3.6,8-8.1
		C1397.4,491.1,1393.6,487.4,1389.1,487.3z"/>
	<path class="st2" d="M823.7,814.5c-4.5-0.1-8.1,3.6-8,8.1s3.9,8.3,8.4,8.3c4.5,0.1,8.1-3.5,8-8.1
		C832,818.3,828.2,814.6,823.7,814.5z"/>
</g>
<polyline class="st54" points="2062.2,1552.8 1864.2,1509.8 2002.9,1709.2 "/>
<polyline class="st54" points="1702,1648.1 1862.6,1507.8 1527.2,1651.1 1478.3,1392.3 1599.8,1512.8 "/>
<polyline class="st54" points="1594.5,1509.7 1519.7,1311.1 1862.6,1507.8 1594.4,1509.9 1527.2,1651.1 "/>
</svg>
