<?xml version="1.0" encoding="utf-8"?>
<!-- Generator: Adobe Illustrator 24.1.0, SVG Export Plug-In . SVG Version: 6.00 Build 0)  -->
<svg version="1.1" height="15px" id="Layer_1" xmlns="http://www.w3.org/2000/svg" xmlns:xlink="http://www.w3.org/1999/xlink" x="0px" y="0px"
	 viewBox="0 0 111 111" style="enable-background:new 0 0 111 111;" xml:space="preserve">
<style type="text/css">
	.st0{fill:#8264FF;}
</style>
<g>
	<path class="st0" d="M11,42.2v3.1H9.3c0.8,0.9,1.4,1.7,1.7,2.2l3,4.4l3.7-5.1c0.6-0.8,0.8-1.1,1.3-1.5h-2.1v-3.1h7.8v3.1h-1.7
		l-7.1,9.8v5.4h1.9v3.1H9.5v-3.1h1.9v-5.4l-7.1-9.8H2.5v-3.1H11z"/>
	<path class="st0" d="M45.5,51.3v3.3H30v-3.3H45.5z M45.5,57.2v3.3H30v-3.3H45.5z"/>
	<path class="st0" d="M66,60.5h1.8v3.1h-5.4c0-1.6,0-2.4,0.2-3.2h-0.1C61.5,62.9,60,64,57.3,64c-3.3,0-5.4-1.9-5.4-4.7
		c0-1.5,0.7-3,2.2-3.9c1.5-0.9,4-1.2,6.1-1.2l1.9,0v-0.6c0-2.7-0.9-3.3-3-3.3c-0.6,0-2,0.2-2.7,0.5V53h-3.7v-4.1
		c1.8-1,4.4-1.7,6.4-1.7c4.7,0,7,1.8,7,6.3C66.1,56.1,66.1,58.2,66,60.5z M62,56.8h-1.3c-2.8,0-4.5,0.6-4.5,2.1
		c0,0.9,0.6,1.9,2.4,1.9C60.7,60.9,62,59.4,62,56.8z"/>
	<path class="st0" d="M82.4,42.2v3.1h-2.1v0.1c0.3,0.2,0.7,0.5,1.1,1l2.6,3.3l3.3-3.8c0.2-0.2,0.5-0.4,0.8-0.6v-0.1h-2v-3.1h7.4v3.1
		H92l-5.9,7l6.3,8.1h1.8v3.1h-9.1v-3.1h1.8v-0.1c-0.4-0.3-0.7-0.6-0.9-0.9l-2.8-3.8L80,59.6c-0.3,0.4-0.7,0.7-1,0.9v0.1h1.9v3.1h-8
		v-3.1h1.8l6.4-7.4l-6-7.8h-1.8v-3.1H82.4z"/>
	<path class="st0" d="M101.8,39.7v3.8c0,0.4,0,0.7-0.2,2.4h0c0.6-1.3,1.6-2,3.2-2c2.2,0,3.6,1.6,3.6,4.3c0,3.2-1.8,5.5-5.2,5.5
		c-1.4,0-3.1-0.3-3.9-0.8V41.5h-1.4v-1.8H101.8z M101.8,51.3c0.4,0.2,1,0.3,1.6,0.3c1.6,0,2.6-1.3,2.6-3.2c0-1.6-0.7-2.5-2-2.5
		c-1.4,0-2.1,0.9-2.1,2.3V51.3z"/>
</g>
</svg>
