<?xml version="1.0" encoding="utf-8"?>
<!-- Generator: Adobe Illustrator 24.1.1, SVG Export Plug-In . SVG Version: 6.00 Build 0)  -->
<svg version="1.1" id="Слой_1" xmlns="http://www.w3.org/2000/svg" xmlns:xlink="http://www.w3.org/1999/xlink" x="0px" y="0px"
	 viewBox="0 0 130 130" style="enable-background:new 0 0 130 130;" xml:space="preserve">
<style type="text/css">
	.st0{fill:#C1B1FF;}
	.st1{fill:none;stroke:#C1B1FF;stroke-width:3;stroke-linecap:round;stroke-linejoin:round;stroke-miterlimit:10;}
	.st2{fill:none;stroke:#8264FF;stroke-width:3;stroke-linecap:round;stroke-linejoin:round;stroke-miterlimit:10;}
	.st3{fill:#C1B1FF;stroke:#8264FF;stroke-width:3;stroke-miterlimit:10;}
	.st4{fill:#8264FF;}
</style>
<g>
	<circle class="st0" cx="84.1" cy="84.8" r="2.1"/>
	<line class="st1" x1="22.5" y1="25.1" x2="25.4" y2="25.1"/>
	<line class="st1" x1="11.1" y1="25.1" x2="14.3" y2="25.1"/>
	<polyline class="st1" points="32.8,25.1 39.8,25.1 51.9,25.1 	"/>
	<line class="st2" x1="3.5" y1="18.1" x2="52.6" y2="18.1"/>
	<line class="st2" x1="80.2" y1="15.9" x2="100.1" y2="15.9"/>
	<line class="st2" x1="105.8" y1="91.7" x2="125.7" y2="91.7"/>
	<line class="st1" x1="105.8" y1="100" x2="125.7" y2="100"/>
	<line class="st2" x1="105.8" y1="108.3" x2="125.7" y2="108.3"/>
	<path class="st2" d="M75,30.1H55.8c-1.6,0-2.9-1.3-2.9-2.9V9.9c0-1.6,1.3-2.9,2.9-2.9H75c1.6,0,2.9,1.3,2.9,2.9v17.3
		C78,28.8,76.6,30.1,75,30.1z"/>
	<ellipse transform="matrix(0.916 -0.4011 0.4011 0.916 2.4743 31.5622)" class="st3" cx="76.6" cy="9.9" rx="7.2" ry="7.2"/>
	<path class="st4" d="M75.2,29.7H55.6c0,4.4,2.9,8.2,6.9,9.4l0,2.2c0,0.8,0.3,1.5,0.8,2c0.5,0.5,1.3,0.8,2,0.8c0.8,0,1.5-0.3,2-0.8
		c0.5-0.5,0.8-1.2,0.8-2c0,0,0-2.3,0-2.3C72.3,37.9,75.2,34.1,75.2,29.7z"/>
	<circle class="st4" cx="49.8" cy="118.6" r="2.1"/>
	<g>
		<polyline class="st2" points="43,114.7 36.6,111.2 36.6,79.5 65.3,95.4 65.3,127.1 56.7,122.3 		"/>
		<polyline class="st2" points="78.7,88 65.3,95.4 36.6,79.5 65.3,63.4 94.2,79.4 		"/>
		<polyline class="st2" points="65.3,127.1 94.2,111.7 94.2,79.4 		"/>
		<line class="st2" x1="65.3" y1="63.4" x2="65.3" y2="53.4"/>
		<polyline class="st2" points="36.6,79.4 22.8,65.7 17.1,65.7 		"/>
		<circle class="st2" cx="10.9" cy="65.5" r="5.8"/>
		<circle class="st2" cx="120" cy="65.5" r="5.8"/>
		<polyline class="st2" points="94.2,79.4 108,65.7 113.1,65.7 		"/>
	</g>
</g>
</svg>
