<?xml version="1.0" encoding="UTF-8"?><svg id="Layer_1" xmlns="http://www.w3.org/2000/svg" viewBox="0 0 60 58"><defs><style>.cls-1{fill:#8264ff;}.cls-2{stroke:#8264ff;}.cls-2,.cls-3,.cls-4{fill:none;stroke-linecap:round;stroke-linejoin:round;}.cls-2,.cls-4{stroke-width:1.09px;}.cls-3{stroke-width:.76px;}.cls-3,.cls-4{stroke:#ccc0fc;}</style></defs><g><line class="cls-2" x1="30.43" y1="48.5" x2="30.43" y2="44.74"/><line class="cls-2" x1="30.43" y1="13.57" x2="30.43" y2="9.5"/><polyline class="cls-2" points="44.08 36.7 47.39 38.57 47.39 38.57"/><polyline class="cls-2" points="16.68 21.06 12.91 18.91 12.91 18.91"/><polyline class="cls-2" points="12.74 38.74 12.74 38.74 16.38 36.7"/><polyline class="cls-2" points="47.39 19.35 47.39 19.35 43.5 21.51"/><line class="cls-4" x1="9.83" y1="36.81" x2="9.83" y2="20.72"/><line class="cls-4" x1="47.05" y1="42.68" x2="34.01" y2="50.5"/><line class="cls-4" x1="47.09" y1="15.35" x2="33.57" y2="7.46"/><circle class="cls-2" cx="50.17" cy="17.13" r="3.57"/><circle class="cls-2" cx="30.43" cy="5.57" r="3.57"/><circle class="cls-2" cx="9.83" cy="17.13" r="3.57"/><circle class="cls-2" cx="9.83" cy="40.78" r="3.57"/><circle class="cls-2" cx="30.43" cy="52.43" r="3.57"/><circle class="cls-2" cx="50.17" cy="40.78" r="3.57"/></g><g><circle class="cls-2" cx="30" cy="29" r="15.43"/><path class="cls-1" d="M36.07,26.18c0-2.05-1.68-3.73-3.73-3.73v-1.88h-1.88v1.88h-.93v-1.88h-1.88v1.88h-3.73v1.88h1.88v9.34h-1.88v1.88h3.73v1.88h1.88v-1.88h.93v1.88h1.88v-1.88c2.05,0,3.73-1.68,3.73-3.73,0-1.13-.52-2.11-1.3-2.8,.81-.69,1.3-1.71,1.3-2.83h0Zm-1.88,5.6c0,1.04-.84,1.88-1.88,1.88h-4.65v-3.73h4.65c1.04,0,1.88,.84,1.88,1.85Zm-6.53-3.73v-3.73h4.65c1.04,0,1.88,.84,1.88,1.88s-.84,1.88-1.88,1.88h-4.65s0-.03,0-.03Z"/></g><circle class="cls-3" cx="30" cy="29" r="13.04"/><circle class="cls-1" cx="50.61" cy="23.99" r=".66"/><circle class="cls-1" cx="50.61" cy="27.34" r=".66"/><circle class="cls-1" cx="50.61" cy="30.68" r=".66"/><circle class="cls-1" cx="50.61" cy="34.02" r=".66"/><circle class="cls-1" cx="24.1" cy="8.92" r=".66"/><circle class="cls-1" cx="21.28" cy="10.54" r=".66"/><circle class="cls-1" cx="18.46" cy="12.16" r=".66"/><circle class="cls-1" cx="15.64" cy="13.77" r=".66"/><circle class="cls-1" cx="15.2" cy="45.71" r=".66"/><circle class="cls-1" cx="17.87" cy="47.18" r=".66"/><circle class="cls-1" cx="20.53" cy="48.66" r=".66"/><circle class="cls-1" cx="23.19" cy="50.14" r=".66"/></svg>